<?xml version="1.0" encoding="UTF-8" standalone="no"?>
<!-- Created with Inkscape (http://www.inkscape.org/) -->

<svg
   width="210mm"
   height="297mm"
   viewBox="0 0 210 297"
   version="1.1"
   id="svg5"
   sodipodi:docname="oppgave_stående_bølger_streng.svg"
   inkscape:version="1.3.2 (091e20e, 2023-11-25, custom)"
   xmlns:inkscape="http://www.inkscape.org/namespaces/inkscape"
   xmlns:sodipodi="http://sodipodi.sourceforge.net/DTD/sodipodi-0.dtd"
   xmlns="http://www.w3.org/2000/svg"
   xmlns:svg="http://www.w3.org/2000/svg">
  <sodipodi:namedview
     id="namedview7"
     pagecolor="#ffffff"
     bordercolor="#666666"
     borderopacity="1.0"
     inkscape:pageshadow="2"
     inkscape:pageopacity="0.0"
     inkscape:pagecheckerboard="0"
     inkscape:document-units="mm"
     showgrid="true"
     inkscape:zoom="0.7823708"
     inkscape:cx="380.25448"
     inkscape:cy="95.862473"
     inkscape:window-width="1368"
     inkscape:window-height="850"
     inkscape:window-x="-6"
     inkscape:window-y="-6"
     inkscape:window-maximized="1"
     inkscape:current-layer="layer1"
     inkscape:showpageshadow="2"
     inkscape:deskcolor="#d1d1d1">
    <inkscape:grid
       type="xygrid"
       id="grid824"
       originx="0"
       originy="0"
       spacingy="1"
       spacingx="1"
       units="mm"
       visible="true" />
  </sodipodi:namedview>
  <defs
     id="defs2">
    <marker
       style="overflow:visible"
       id="DiamondM"
       refX="0.0"
       refY="0.0"
       orient="auto"
       inkscape:stockid="DiamondM"
       inkscape:isstock="true">
      <path
         transform="scale(0.4)"
         style="fill-rule:evenodd;fill:context-stroke;stroke:context-stroke;stroke-width:1.0pt"
         d="M 0,-7.0710768 L -7.0710894,0 L 0,7.0710589 L 7.0710462,0 L 0,-7.0710768 z "
         id="path946" />
    </marker>
  </defs>
  <g
     inkscape:label="Layer 1"
     inkscape:groupmode="layer"
     id="layer1">
    <path
       style="fill:none;stroke:#000000;stroke-width:0.264583px;stroke-linecap:butt;stroke-linejoin:miter;stroke-opacity:1"
       d="M 19.821315,52.916668 H 191.02918"
       id="path1490"
       inkscape:export-filename="oppgave_stående_bølger_streng.png"
       inkscape:export-xdpi="300"
       inkscape:export-ydpi="300" />
    <ellipse
       style="fill:#000000;stroke:#000000;stroke-width:1"
       id="path1594"
       cx="19.821316"
       cy="52.39674"
       rx="1.336957"
       ry="1.3369571"
       inkscape:export-filename="C:\Users\knutb\OneDrive - NTNU\Nytt fag fysikk kjemi\Faglig materiale\eksamen\eksamen vår 2022\oppgavefigurer\stående_bølger_streng.png"
       inkscape:export-xdpi="300"
       inkscape:export-ydpi="300" />
    <ellipse
       style="fill:#000000;stroke:#000000;stroke-width:1"
       id="path1594-8"
       cx="63.527367"
       cy="53.167858"
       rx="1.336957"
       ry="1.3369571"
       inkscape:export-filename="C:\Users\knutb\OneDrive - NTNU\Nytt fag fysikk kjemi\Faglig materiale\eksamen\eksamen vår 2022\oppgavefigurer\stående_bølger_streng.png"
       inkscape:export-xdpi="300"
       inkscape:export-ydpi="300" />
    <ellipse
       style="fill:#000000;stroke:#000000;stroke-width:1"
       id="path1594-6"
       cx="104.26722"
       cy="53.3279"
       rx="1.336957"
       ry="1.3369571"
       inkscape:export-filename="C:\Users\knutb\OneDrive - NTNU\Nytt fag fysikk kjemi\Faglig materiale\eksamen\eksamen vår 2022\oppgavefigurer\stående_bølger_streng.png"
       inkscape:export-xdpi="300"
       inkscape:export-ydpi="300" />
    <ellipse
       style="fill:#000000;stroke:#000000;stroke-width:1"
       id="path1594-6-9"
       cx="148.44565"
       cy="53.168659"
       rx="1.336957"
       ry="1.3369571"
       inkscape:export-filename="C:\Users\knutb\OneDrive - NTNU\Nytt fag fysikk kjemi\Faglig materiale\eksamen\eksamen vår 2022\oppgavefigurer\stående_bølger_streng.png"
       inkscape:export-xdpi="300"
       inkscape:export-ydpi="300" />
    <ellipse
       style="fill:#000000;stroke:#000000;stroke-width:1"
       id="path1594-2"
       cx="190"
       cy="52.336956"
       rx="1.336957"
       ry="1.3369571"
       inkscape:export-filename="C:\Users\knutb\OneDrive - NTNU\Nytt fag fysikk kjemi\Faglig materiale\eksamen\eksamen vår 2022\oppgavefigurer\stående_bølger_streng.png"
       inkscape:export-xdpi="300"
       inkscape:export-ydpi="300" />
    <path
       style="fill:none;stroke:#000000;stroke-width:0.264583px;stroke-linecap:butt;stroke-linejoin:miter;stroke-opacity:1;marker-start:url(#DiamondM);marker-end:url(#DiamondM)"
       d="M 21.504848,82.835964 H 190.83818"
       id="path862"
       inkscape:export-filename="C:\Users\knutb\OneDrive - NTNU\Nytt fag fysikk kjemi\Faglig materiale\eksamen\eksamen vår 2022\oppgavefigurer\stående_bølger_streng.png"
       inkscape:export-xdpi="300"
       inkscape:export-ydpi="300" />
    <text
       xml:space="preserve"
       style="font-style:italic;font-size:7.7611px;line-height:1.25;font-family:'Times New Roman';-inkscape-font-specification:'Times New Roman, Italic';stroke-width:0.264583"
       x="114.71828"
       y="90.000534"
       id="text2204"
       inkscape:export-filename="C:\Users\knutb\OneDrive - NTNU\Nytt fag fysikk kjemi\Faglig materiale\eksamen\eksamen vår 2022\oppgavefigurer\stående_bølger_streng.png"
       inkscape:export-xdpi="300"
       inkscape:export-ydpi="300"><tspan
         sodipodi:role="line"
         id="tspan2202"
         style="stroke-width:0.264583"
         x="114.71828"
         y="90.000534">L</tspan></text>
    <path
       style="fill:none;stroke:#1a1a1a;stroke-width:0.394;stroke-linejoin:round;stroke-dasharray:none"
       d="m 20,50.918669 c 0.1136,-0.244713 0.2271,-0.489425 0.3407,-0.734138 0.1135,-0.244713 0.2271,-0.489426 0.3407,-0.733714 0.1135,-0.244501 0.2271,-0.488789 0.3406,-0.732866 0.1136,-0.244076 0.2272,-0.487941 0.3407,-0.731382 0.1136,-0.243652 0.2271,-0.48688 0.3407,-0.729684 0.1136,-0.242804 0.2271,-0.485185 0.3407,-0.727141 0.1135,-0.241956 0.2271,-0.483487 0.3407,-0.724384 0.1135,-0.241108 0.2271,-0.481578 0.3407,-0.721202 0.1135,-0.239835 0.2271,-0.479035 0.3406,-0.717598 0.1136,-0.238563 0.2272,-0.476278 0.3407,-0.713357 0.1136,-0.237078 0.2271,-0.473309 0.3407,-0.708691 0.1136,-0.235382 0.2271,-0.470129 0.3407,-0.703814 0.1135,-0.233686 0.2271,-0.466312 0.3407,-0.698089 0.1135,-0.231777 0.2271,-0.462494 0.3406,-0.692151 0.1136,-0.229869 0.2272,-0.458465 0.3407,-0.686001 0.1136,-0.227536 0.2271,-0.453801 0.3407,-0.679004 0.1136,-0.225204 0.2271,-0.449135 0.3407,-0.671794 0.1135,-0.222658 0.2271,-0.444045 0.3407,-0.66416 0.1135,-0.219902 0.2271,-0.438531 0.3406,-0.655889 0.1136,-0.217358 0.2272,-0.43323 0.3407,-0.647407 0.1136,-0.214389 0.2271,-0.427294 0.3407,-0.638714 0.1136,-0.211207 0.2271,-0.421142 0.3407,-0.62917 0.1136,-0.208238 0.2271,-0.414781 0.3407,-0.619627 0.1135,-0.204846 0.2271,-0.407997 0.3407,-0.609237 0.1135,-0.201454 0.2271,-0.401211 0.3406,-0.598846 0.1136,-0.19785 0.2272,-0.394 0.3407,-0.588033 0.1136,-0.194243 0.2271,-0.386578 0.3407,-0.576792 0.1136,-0.190427 0.2271,-0.378732 0.3407,-0.56513 0.1135,-0.186397 0.2271,-0.370673 0.3407,-0.553042 0.1135,-0.182368 0.2271,-0.362616 0.3406,-0.540954 0.1136,-0.178128 0.2272,-0.354134 0.3407,-0.52802 0.1136,-0.173887 0.2271,-0.345652 0.3407,-0.515085 0.1136,-0.169433 0.2271,-0.336745 0.3407,-0.501725 0.1135,-0.164979 0.2271,-0.327838 0.3407,-0.488152 0.1135,-0.160315 0.2271,-0.318508 0.3406,-0.474159 0.1136,-0.155648 0.2272,-0.308965 0.3407,-0.459949 0.1136,-0.150771 0.2271,-0.299211 0.3407,-0.445105 0.1136,-0.146107 0.2271,-0.289669 0.3407,-0.430474 0.1136,-0.141017 0.2271,-0.27949 0.3407,-0.415418 0.1135,-0.135928 0.2271,-0.269312 0.3407,-0.399938 0.1135,-0.130842 0.2271,-0.258921 0.3406,-0.384457 0.1136,-0.125324 0.2272,-0.248319 0.3407,-0.368342 0.1136,-0.120238 0.2271,-0.237715 0.3407,-0.352438 0.1136,-0.114719 0.2271,-0.226687 0.3407,-0.336108 0.1135,-0.109214 0.2271,-0.215661 0.3407,-0.319357 0.1135,-0.103696 0.2271,-0.204634 0.3406,-0.302816 0.1136,-0.09797 0.2272,-0.193395 0.3407,-0.28564 0.1136,-0.09245 0.2271,-0.182155 0.3407,-0.268675 0.1136,-0.08673 0.2271,-0.170492 0.3407,-0.251498 0.1135,-0.0808 0.2271,-0.15883 0.3407,-0.233897 0.1135,-0.07507 0.2271,-0.147167 0.3406,-0.216298 0.1136,-0.06913 0.2272,-0.135292 0.3407,-0.198485 0.1136,-0.0634 0.2272,-0.123633 0.3407,-0.180884 0.1136,-0.05726 0.2271,-0.111534 0.3407,-0.162647 0.1136,-0.05132 0.2271,-0.09945 0.3407,-0.144621 0.1135,-0.04538 0.2271,-0.08736 0.3407,-0.126595 0.1135,-0.03902 0.2271,-0.07528 0.3406,-0.108153 0.1136,-0.03308 0.2272,-0.06298 0.3407,-0.08991 0.1136,-0.02694 0.2271,-0.0509 0.3407,-0.07167 0.1136,-0.02078 0.2271,-0.03838 0.3407,-0.05302 0.1135,-0.01463 0.2271,-0.02629 0.3407,-0.03477 0.1135,-0.0085 0.2271,-0.01379 0.3406,-0.01612 0.1136,-0.0024 0.2272,-0.0014 0.3407,0.0024 0.1136,0.0038 0.2271,0.01088 0.3407,0.02078 0.1136,0.01 0.2271,0.02311 0.3407,0.03923 0.1135,0.01633 0.2271,0.03542 0.3407,0.0579 0.1135,0.02227 0.2271,0.0475 0.3407,0.07613 0.1135,0.02842 0.2271,0.0598 0.3406,0.09436 0.1136,0.03457 0.2272,0.07232 0.3407,0.112819 0.1136,0.04071 0.2271,0.0844 0.3407,0.131052 0.1136,0.04665 0.2271,0.09649 0.3407,0.149287 0.1135,0.05259 0.2271,0.108363 0.3407,0.1671 0.1135,0.05874 0.2271,0.120658 0.3406,0.185337 0.1136,0.06467 0.2272,0.132323 0.3407,0.202938 0.1136,0.07061 0.2271,0.144197 0.3407,0.22075 0.1136,0.07655 0.2271,0.156073 0.3407,0.238351 0.1135,0.08228 0.2271,0.167524 0.3407,0.25574 0.1135,0.08801 0.2271,0.178975 0.3406,0.272917 0.1136,0.09394 0.2272,0.190637 0.3407,0.290091 0.1136,0.09945 0.2271,0.201878 0.3407,0.306846 0.1136,0.105178 0.2271,0.213117 0.3407,0.323597 0.1136,0.110696 0.2271,0.224144 0.3407,0.340139 0.1135,0.116201 0.2271,0.234957 0.3407,0.356466 0.1135,0.121509 0.2271,0.24556 0.3406,0.37237 0.1136,0.126805 0.2272,0.256376 0.3407,0.388275 0.1136,0.132111 0.2271,0.266766 0.3407,0.403967 0.1136,0.1372 0.2271,0.276945 0.3407,0.419023 0.1135,0.142289 0.2271,0.287124 0.3407,0.434291 0.1135,0.147167 0.2271,0.296878 0.3406,0.448922 0.1136,0.152044 0.2272,0.306633 0.3407,0.463555 0.1136,0.156922 0.2271,0.315964 0.3407,0.477551 0.1136,0.161586 0.2271,0.325505 0.3407,0.491545 0.1135,0.166252 0.2271,0.334625 0.3407,0.505118 0.1135,0.170704 0.2271,0.343531 0.3406,0.518477 0.1136,0.174946 0.2272,0.352013 0.3407,0.531201 0.1136,0.179399 0.2272,0.360706 0.3407,0.543923 0.1136,0.183429 0.2271,0.368765 0.3407,0.556224 0.1136,0.187458 0.2271,0.376824 0.3407,0.568098 0.1135,0.191275 0.2271,0.384458 0.3407,0.579549 0.1135,0.195092 0.2271,0.392092 0.3406,0.590788 0.1136,0.198697 0.2272,0.399302 0.3407,0.601603 0.1136,0.20209 0.2271,0.406088 0.3407,0.611782 0.1136,0.205695 0.2271,0.413085 0.3407,0.621961 0.1135,0.209087 0.2271,0.419659 0.3407,0.631714 0.1135,0.212057 0.2271,0.425809 0.3406,0.640834 0.1136,0.215026 0.2272,0.431746 0.3407,0.64974 0.1136,0.217993 0.2271,0.43726 0.3407,0.65801 0.1136,0.220751 0.2271,0.442774 0.3407,0.666068 0.1135,0.223296 0.2271,0.447863 0.3407,0.673703 0.1135,0.225627 0.2271,0.452527 0.3406,0.680699 0.1136,0.227961 0.2272,0.457193 0.3407,0.687487 0.1136,0.230292 0.2272,0.461433 0.3407,0.693847 0.1136,0.232202 0.2271,0.465463 0.3407,0.699573 0.1136,0.23411 0.2271,0.469068 0.3407,0.704874 0.1135,0.235807 0.2271,0.472461 0.3407,0.709964 0.1135,0.237503 0.2271,0.475642 0.3406,0.714417 0.1136,0.238776 0.2272,0.478399 0.3407,0.718446 0.1136,0.24026 0.2271,0.480944 0.3407,0.722052 0.1136,0.241319 0.2271,0.483064 0.3407,0.725231 0.1135,0.242168 0.2271,0.484761 0.3407,0.727777 0.1135,0.243016 0.2271,0.486456 0.3406,0.730108 0.1136,0.243654 0.2272,0.48773 0.3407,0.731806 0.1136,0.244289 0.2271,0.488578 0.3407,0.733078 0.1136,0.244502 0.2271,0.489214 0.3407,0.733926 0.1135,0.244713 0.2271,0.489425 0.3407,0.73435 0.1135,0.244713 0.2271,0.489427 0.3407,0.734139 0.1135,0.2445 0.2271,0.489002 0.3406,0.733502 0.1136,0.244289 0.2272,0.488577 0.3407,0.732441 0.1136,0.243866 0.2271,0.48773 0.3407,0.730957 0.1136,0.243441 0.2271,0.486458 0.3407,0.729049 0.1135,0.242593 0.2271,0.484973 0.3407,0.726505 0.1135,0.241744 0.2271,0.483064 0.3406,0.723747 0.1136,0.240684 0.2272,0.480944 0.3407,0.720355 0.1136,0.239411 0.2271,0.478398 0.3407,0.716537 0.1136,0.238139 0.2271,0.475642 0.3407,0.712297 0.1135,0.236654 0.2271,0.472461 0.3407,0.707419 0.1135,0.234959 0.2271,0.469068 0.3406,0.70233 0.1136,0.233261 0.2272,0.465462 0.3407,0.696817 0.1136,0.23114 0.2271,0.461433 0.3407,0.690666 0.1136,0.229232 0.2271,0.457193 0.3407,0.684092 0.1136,0.2269 0.2271,0.45274 0.3407,0.677307 0.1135,0.224569 0.2271,0.447863 0.3407,0.669886 0.1135,0.222023 0.2271,0.442773 0.3406,0.662251 0.1136,0.219267 0.2272,0.43726 0.3407,0.65377 0.1136,0.216508 0.2271,0.431745 0.3407,0.645286 0.1136,0.213753 0.2271,0.425809 0.3407,0.63638 0.1135,0.210572 0.2271,0.419447 0.3407,0.626837 0.1135,0.207392 0.2271,0.413087 0.3406,0.617084 0.1136,0.203786 0.2272,0.406088 0.3407,0.606692 0.1136,0.200606 0.2271,0.399302 0.3407,0.596302 0.1136,0.196788 0.2271,0.39188 0.3407,0.585063 0.1135,0.193183 0.2271,0.38467 0.3407,0.573823 0.1135,0.189368 0.2271,0.376825 0.3406,0.562162 0.1136,0.185549 0.2272,0.368765 0.3407,0.550073 0.1136,0.181308 0.2272,0.360708 0.3407,0.537775 0.1136,0.177067 0.2271,0.352013 0.3407,0.524838 0.1136,0.172825 0.2271,0.343531 0.3407,0.511904 0.1135,0.168372 0.2271,0.334412 0.3407,0.498331 0.1135,0.163708 0.2271,0.325294 0.3406,0.484548 0.1136,0.159255 0.2272,0.316176 0.3407,0.470554 0.1136,0.154588 0.2271,0.306632 0.3407,0.456344 0.1136,0.149711 0.2271,0.296878 0.3407,0.441713 0.1135,0.144622 0.2271,0.286912 0.3407,0.426657 0.1135,0.139745 0.2271,0.276944 0.3406,0.411389 0.1136,0.134655 0.2272,0.266766 0.3407,0.39612 0.1136,0.129571 0.2271,0.256376 0.3407,0.380429 0.1136,0.124262 0.2271,0.245772 0.3407,0.364524 0.1135,0.118757 0.2271,0.234958 0.3407,0.348196 0.1135,0.113448 0.2271,0.224144 0.3407,0.331868 0.1135,0.10793 0.2271,0.213116 0.3406,0.315327 0.1136,0.102424 0.2272,0.201877 0.3407,0.298575 0.1136,0.0967 0.2271,0.190639 0.3407,0.281611 0.1136,0.09097 0.2271,0.178975 0.3407,0.264222 0.1135,0.08524 0.2271,0.167735 0.3407,0.247046 0.1135,0.07952 0.2271,0.156072 0.3406,0.229655 0.1136,0.07359 0.2272,0.144199 0.3407,0.211845 0.1136,0.06765 0.2271,0.132323 0.3407,0.194031 0.1136,0.06192 0.2271,0.120657 0.3407,0.176219 0.1135,0.05577 0.2271,0.108572 0.3407,0.158405 0.1135,0.04963 0.2271,0.09649 0.3406,0.139958 0.1136,0.04369 0.2272,0.0844 0.3407,0.122138 0.1136,0.03754 0.2271,0.07211 0.3407,0.103486 0.1136,0.0316 0.2271,0.06001 0.3407,0.08546 0.1135,0.02523 0.2271,0.04771 0.3407,0.0668 0.1135,0.01929 0.2271,0.03542 0.3407,0.04856 0.1135,0.01315 0.2271,0.02311 0.3406,0.03011 0.1136,0.0068 0.2272,0.01088 0.3407,0.0114 0.1136,8.48e-4 0.2271,-0.0014 0.3407,-0.0068 0.1136,-0.0055 0.2271,-0.014 0.3407,-0.02544 0.1135,-0.01167 0.2271,-0.02629 0.3407,-0.0439 0.1135,-0.01781 0.2271,-0.03859 0.3406,-0.06234 0.1136,-0.02396 0.2272,-0.0509 0.3407,-0.0808 0.1136,-0.0299 0.2271,-0.06298 0.3407,-0.09903 0.1136,-0.03605 0.2271,-0.07528 0.3407,-0.117485 0.1135,-0.04219 0.2271,-0.08736 0.3407,-0.135503 0.1135,-0.04813 0.2271,-0.09945 0.3406,-0.153741 0.1136,-0.05429 0.2272,-0.111547 0.3407,-0.171766 0.1136,-0.06023 0.2271,-0.123423 0.3407,-0.189578 0.1136,-0.06615 0.2271,-0.135504 0.3407,-0.207603 0.1136,-0.07209 0.2271,-0.147167 0.3407,-0.224991 0.1135,-0.07804 0.2271,-0.159042 0.3407,-0.242805 0.1135,-0.08376 0.2271,-0.170492 0.3406,-0.25998 0.1136,-0.08949 0.2272,-0.181945 0.3407,-0.277157 0.1136,-0.09543 0.2271,-0.193396 0.3407,-0.294334 0.1136,-0.100943 0.2271,-0.204634 0.3407,-0.311086 0.1135,-0.106672 0.2271,-0.215874 0.3407,-0.327839 0.1135,-0.111967 0.2271,-0.226687 0.3406,-0.344168 0.1136,-0.117485 0.2272,-0.237714 0.3407,-0.360495 0.1136,-0.122781 0.2271,-0.248317 0.3407,-0.376399 0.1136,-0.128076 0.2271,-0.258921 0.3407,-0.392303 0.1135,-0.133172 0.2271,-0.2691 0.3407,-0.407572 0.1135,-0.138473 0.2271,-0.27949 0.3406,-0.423053 0.1136,-0.143349 0.2272,-0.289456 0.3407,-0.437895 0.1136,-0.14844 0.2272,-0.299211 0.3407,-0.452528 0.1136,-0.153317 0.2271,-0.308965 0.3407,-0.46716 0.1136,-0.157982 0.2271,-0.318296 0.3407,-0.481155 0.1135,-0.162647 0.2271,-0.327626 0.3407,-0.494939 0.1135,-0.167313 0.2271,-0.336746 0.3406,-0.50851 0.1136,-0.171554 0.2272,-0.34544 0.3407,-0.521659 0.1136,-0.176006 0.2271,-0.354132 0.3407,-0.534381 0.1136,-0.180248 0.2271,-0.362616 0.3407,-0.547104 0.1135,-0.184278 0.2271,-0.370675 0.3407,-0.559193 0.1135,-0.188305 0.2271,-0.378732 0.3406,-0.570854 0.1136,-0.192335 0.2272,-0.386367 0.3407,-0.582518 0.1136,-0.19594 0.2271,-0.393788 0.3407,-0.593334 0.1136,-0.199756 0.2271,-0.401209 0.3407,-0.604359 0.1135,-0.202938 0.2271,-0.407784 0.3407,-0.614327 0.1135,-0.206542 0.2271,-0.414781 0.3407,-0.624505 0.1135,-0.209724 0.2271,-0.421144 0.3406,-0.634047 0.1136,-0.212693 0.2272,-0.427082 0.3407,-0.642955 0.1136,-0.215872 0.2271,-0.43323 0.3407,-0.651861 0.1136,-0.218629 0.2271,-0.438743 0.3407,-0.66013 0.1135,-0.221386 0.2271,-0.444045 0.3407,-0.667976 0.1135,-0.223931 0.2271,-0.449135 0.3406,-0.675399 0.1136,-0.226476 0.2272,-0.4538 0.3406,-0.682609 0.114,-0.228596 0.227,-0.458253 0.341,-0.68897 0.113,-0.230716 0.227,-0.462494 0.34,-0.695332 0.114,-0.232626 0.228,-0.466311 0.341,-0.701057 0.114,-0.234535 0.227,-0.469917 0.341,-0.706147 0.113,-0.236231 0.227,-0.473309 0.341,-0.711023 0.113,-0.237928 0.227,-0.476491 0.34,-0.71569 0.114,-0.238987 0.227,-0.478823 0.341,-0.719294 0.113,-0.240472 0.227,-0.481368 0.341,-0.7229 0.113,-0.241531 0.227,-0.483487 0.34,-0.725868 0.114,-0.24238 0.227,-0.485184 0.341,-0.728412 0.113,-0.243228 0.227,-0.486882 0.341,-0.730534 0.113,-0.243864 0.227,-0.487941 0.34,-0.732229 0.114,-0.244289 0.227,-0.488789 0.341,-0.73329 0.114,-0.244713 0.227,-0.489425 0.341,-0.734138 0.113,-0.244714 0.227,-0.489426 0.34,-0.734139 0.114,-0.244712 0.227,-0.489425 0.341,-0.734138 0.114,-0.244501 0.227,-0.489001 0.341,-0.73329 0.113,-0.244289 0.227,-0.488366 0.34,-0.73223 0.114,-0.243652 0.228,-0.487304 0.341,-0.730533 0.114,-0.243228 0.227,-0.486032 0.341,-0.728413 0.113,-0.242379 0.227,-0.484335 0.34,-0.725868 0.114,-0.241531 0.228,-0.482426 0.341,-0.722898 0.114,-0.240473 0.227,-0.480308 0.341,-0.719507 0.113,-0.238987 0.227,-0.477551 0.34,-0.715477 0.114,-0.237716 0.228,-0.474794 0.341,-0.711025 0.114,-0.23623 0.227,-0.471612 0.341,-0.706146 0.113,-0.234746 0.227,-0.468432 0.341,-0.701058 0.113,-0.232837 0.227,-0.464614 0.34,-0.695331 0.114,-0.230718 0.227,-0.460375 0.341,-0.688971 0.113,-0.228809 0.227,-0.456345 0.341,-0.682608 0.113,-0.226264 0.227,-0.451467 0.34,-0.675399 0.114,-0.223931 0.227,-0.44659 0.341,-0.667977 0.113,-0.221385 0.227,-0.4415 0.341,-0.66013 0.113,-0.21863 0.227,-0.435987 0.34,-0.65186 0.114,-0.215874 0.227,-0.430263 0.341,-0.643167 0.114,-0.212692 0.227,-0.424112 0.341,-0.633836 0.113,-0.209722 0.227,-0.417962 0.34,-0.624505 0.114,-0.206542 0.227,-0.411389 0.341,-0.614538 0.114,-0.202938 0.227,-0.404392 0.341,-0.604148 0.113,-0.199544 0.227,-0.397392 0.34,-0.593333 0.114,-0.196152 0.227,-0.390183 0.341,-0.582518 0.114,-0.192335 0.227,-0.382549 0.341,-0.570855 0.113,-0.188518 0.227,-0.374915 0.34,-0.559191 0.114,-0.18449 0.228,-0.366858 0.341,-0.547105 0.114,-0.180248 0.227,-0.358376 0.341,-0.534382 0.113,-0.176219 0.227,-0.350105 0.34,-0.521658 0.114,-0.171765 0.228,-0.341198 0.341,-0.50851 0.114,-0.167313 0.227,-0.332293 0.341,-0.49494 0.113,-0.162858 0.227,-0.323173 0.341,-0.481155 0.113,-0.158193 0.227,-0.313843 0.34,-0.467159 0.114,-0.153317 0.227,-0.304088 0.341,-0.452528 0.113,-0.148439 0.227,-0.294545 0.341,-0.437895 0.113,-0.143562 0.227,-0.28458 0.34,-0.423052 0.114,-0.138474 0.227,-0.274401 0.341,-0.407572 0.113,-0.133384 0.227,-0.264222 0.341,-0.392304 0.113,-0.128076 0.227,-0.253619 0.34,-0.3764 0.114,-0.122781 0.227,-0.243016 0.341,-0.360495 0.114,-0.117486 0.227,-0.232201 0.341,-0.344167 0.113,-0.111967 0.227,-0.221175 0.34,-0.327838 0.114,-0.106449 0.227,-0.210149 0.341,-0.311087 0.114,-0.100943 0.227,-0.198908 0.341,-0.294333 0.113,-0.09522 0.227,-0.18767 0.34,-0.277159 0.114,-0.08949 0.227,-0.176218 0.341,-0.25998 0.114,-0.08376 0.227,-0.164768 0.341,-0.242804 0.113,-0.07782 0.227,-0.152892 0.34,-0.224992 0.114,-0.07211 0.228,-0.141441 0.341,-0.207603 0.114,-0.06615 0.227,-0.129348 0.341,-0.189578 0.113,-0.06022 0.227,-0.117485 0.34,-0.171765 0.114,-0.05429 0.228,-0.10561 0.341,-0.153742 0.114,-0.04813 0.227,-0.09351 0.341,-0.135503 0.113,-0.04219 0.227,-0.08143 0.34,-0.117485 0.114,-0.03605 0.228,-0.06913 0.341,-0.09903 0.114,-0.0299 0.227,-0.05683 0.341,-0.0808 0.113,-0.02375 0.227,-0.04453 0.341,-0.06234 0.113,-0.0176 0.227,-0.03223 0.34,-0.0439 0.114,-0.0114 0.227,-0.01994 0.341,-0.02544 0.113,-0.0052 0.227,-0.0076 0.341,-0.0068 0.113,6.36e-4 0.227,0.0045 0.34,0.0114 0.114,0.0069 0.227,0.01696 0.341,0.03011 0.114,0.01315 0.227,0.02927 0.341,0.04856 0.113,0.01909 0.227,0.04157 0.34,0.0668 0.114,0.02544 0.227,0.05386 0.341,0.08546 0.114,0.03138 0.227,0.06594 0.341,0.103486 0.113,0.03775 0.227,0.07825 0.34,0.121929 0.114,0.04369 0.227,0.09055 0.341,0.140168 0.114,0.04984 0.227,0.102635 0.341,0.158195 0.113,0.05577 0.227,0.11451 0.34,0.17643 0.114,0.06171 0.228,0.126385 0.341,0.194032 0.114,0.06765 0.227,0.13826 0.341,0.211843 0.113,0.07359 0.227,0.150136 0.34,0.229657 0.114,0.0793 0.228,0.161799 0.341,0.247046 0.114,0.08525 0.227,0.17325 0.341,0.264222 0.113,0.09097 0.227,0.184912 0.34,0.28161 0.114,0.0967 0.228,0.196152 0.341,0.298575 0.114,0.102214 0.227,0.20739 0.341,0.315116 0.113,0.107942 0.227,0.218629 0.341,0.33208 0.113,0.113238 0.227,0.229444 0.34,0.348196 0.114,0.118757 0.227,0.240258 0.341,0.364523 0.113,0.124052 0.227,0.250863 0.341,0.380429 0.113,0.129348 0.227,0.261465 0.34,0.395909 0.114,0.134655 0.227,0.271856 0.341,0.411601 0.113,0.139745 0.227,0.282035 0.341,0.426657 0.113,0.144834 0.227,0.292 0.34,0.441712 0.114,0.149711 0.227,0.301757 0.341,0.456345 0.114,0.154378 0.227,0.311299 0.341,0.470553 0.113,0.159254 0.227,0.320841 0.34,0.484548 0.114,0.163919 0.227,0.32996 0.341,0.498332 0.114,0.168373 0.227,0.339077 0.341,0.511902 0.113,0.172827 0.227,0.347773 0.34,0.52484 0.114,0.177067 0.228,0.356466 0.341,0.537774 0.114,0.181308 0.227,0.364525 0.341,0.550074 0.113,0.185337 0.227,0.372794 0.34,0.56216 0.114,0.189154 0.228,0.380641 0.341,0.573824 0.114,0.193183 0.227,0.388274 0.341,0.585063 0.113,0.197 0.227,0.395696 0.34,0.596301 0.114,0.200606 0.228,0.402695 0.341,0.606693 0.114,0.203998 0.227,0.409693 0.341,0.617083 0.113,0.207391 0.227,0.416266 0.341,0.626838 0.113,0.210572 0.227,0.422628 0.34,0.636381 0.114,0.213539 0.227,0.428565 0.341,0.645286 0.113,0.21651 0.227,0.434503 0.341,0.65377 0.113,0.219477 0.227,0.440227 0.34,0.66225 0.114,0.222023 0.227,0.445318 0.341,0.669885 0.113,0.224567 0.227,0.450407 0.341,0.677307 0.113,0.226901 0.227,0.454861 0.34,0.684094 0.114,0.229232 0.227,0.459526 0.341,0.690666 0.114,0.231353 0.227,0.463554 0.341,0.696817 0.113,0.233262 0.227,0.467371 0.34,0.702329 0.114,0.234959 0.227,0.470764 0.341,0.707419 0.114,0.236654 0.227,0.474157 0.341,0.712296 0.113,0.238139 0.227,0.477128 0.34,0.716538 0.114,0.239412 0.227,0.479671 0.341,0.720354 0.114,0.240685 0.227,0.482004 0.341,0.723536 0.113,0.241744 0.227,0.484124 0.34,0.726716 0.114,0.242593 0.228,0.485609 0.341,0.729049 0.114,0.243229 0.227,0.486881 0.341,0.730957 0.113,0.243865 0.227,0.488154 0.34,0.732442 0.114,0.244289 0.228,0.489001 0.341,0.733503 0.114,0.244712 0.227,0.489425 0.341,0.734137 0.113,0.244925 0.227,0.489638 0.341,0.734351 0.113,0.244713 0.227,0.489425 0.34,0.733925 0.114,0.244502 0.227,0.48879 0.341,0.733079 0.113,0.244076 0.227,0.488153 0.341,0.731805 0.113,0.243652 0.227,0.487093 0.34,0.729897 0.114,0.243017 0.227,0.485821 0.341,0.727989 0.113,0.242168 0.227,0.483912 0.341,0.725232 0.113,0.241108 0.227,0.481791 0.34,0.722051 0.114,0.240047 0.227,0.479459 0.341,0.718446 0.114,0.238776 0.227,0.476914 0.341,0.714416 0.113,0.237291 0.227,0.474159 0.34,0.709964 0.114,0.235807 0.227,0.470765 0.341,0.704875 0.114,0.23411 0.227,0.467372 0.341,0.699573 0.113,0.232413 0.227,0.463555 0.34,0.693848 0.114,0.230292 0.227,0.459525 0.341,0.687485 0.114,0.228173 0.227,0.455072 0.341,0.680701 0.113,0.22584 0.227,0.450407 0.34,0.673701 0.114,0.223296 0.228,0.445319 0.341,0.666069 0.114,0.22075 0.227,0.440016 0.341,0.65801 0.113,0.217993 0.227,0.434715 0.34,0.64974 0.114,0.215024 0.228,0.428777 0.341,0.640833 0.114,0.212056 0.227,0.422628 0.341,0.631503 0.113,0.209087 0.227,0.416479 0.341,0.622173 0.113,0.205695 0.227,0.409692 0.34,0.611782 0.114,0.202302 0.227,0.402906 0.341,0.601603 0.113,0.198697 0.227,0.395697 0.341,0.590789 0.113,0.195091 0.227,0.388274 0.34,0.579549 0.114,0.191274 0.227,0.38064 0.341,0.568098 0.113,0.187457 0.227,0.372794 0.341,0.556223 0.113,0.183216 0.227,0.364524 0.34,0.543924 0.114,0.179188 0.227,0.356254 0.341,0.531201 0.114,0.174946 0.227,0.347771 0.341,0.518477 0.113,0.170492 0.227,0.338864 0.34,0.505117 0.114,0.16604 0.227,0.32996 0.341,0.491546 0.114,0.161374 0.227,0.320629 0.341,0.477551 0.113,0.156921 0.227,0.31151 0.34,0.463554 0.114,0.152044 0.227,0.301756 0.341,0.448923 0.114,0.147167 0.227,0.292001 0.341,0.434291 0.113,0.142077 0.227,0.281822 0.34,0.419023 0.114,0.137199 0.228,0.271856 0.341,0.403967 0.114,0.131899 0.227,0.261464 0.341,0.388274 0.113,0.126805 0.227,0.250862 0.34,0.37237 0.114,0.121509 0.228,0.24026 0.341,0.356467 0.114,0.115991 0.227,0.229444 0.341,0.340137 0.113,0.110486 0.227,0.218419 0.34,0.323598 0.114,0.104968 0.228,0.207391 0.341,0.306845 0.114,0.09945 0.227,0.196152 0.341,0.290093 0.113,0.09373 0.227,0.184914 0.341,0.272917 0.113,0.08822 0.227,0.173461 0.34,0.255739 0.114,0.08228 0.227,0.161799 0.341,0.238351 0.113,0.07655 0.227,0.150135 0.341,0.22075 0.113,0.07061 0.227,0.138261 0.34,0.202938 0.114,0.06467 0.227,0.126385 0.341,0.185338 0.114,0.05874 0.227,0.1143 0.341,0.1671 0.113,0.0528 0.227,0.102634 0.34,0.149287 0.114,0.04665 0.227,0.09034 0.341,0.131052 0.114,0.0405 0.227,0.07825 0.341,0.112819 0.113,0.03457 0.227,0.06594 0.34,0.09436 0.114,0.02863 0.227,0.05386 0.341,0.07613 0.114,0.02248 0.227,0.04157 0.341,0.0579 0.113,0.01611 0.227,0.02927 0.34,0.03923 0.114,0.01 0.228,0.01696 0.341,0.02078 0.114,0.0038 0.227,0.0047 0.341,0.0024 0.113,-0.0024 0.227,-0.0076 0.34,-0.01611 0.114,-0.0085 0.228,-0.02015 0.341,-0.03477 0.114,-0.01463 0.227,-0.03223 0.341,-0.05301 0.113,-0.02078 0.227,-0.04475 0.34,-0.07167 0.114,-0.02692 0.228,-0.05684 0.341,-0.08991 0.114,-0.03308 0.227,-0.06913 0.341,-0.108153 0.113,-0.03923 0.227,-0.08142 0.341,-0.126595 0.113,-0.04517 0.227,-0.0933 0.34,-0.144622 0.114,-0.05132 0.227,-0.105387 0.341,-0.162647 0.113,-0.05725 0.227,-0.117473 0.341,-0.180884 0.113,-0.06319 0.227,-0.129361 0.34,-0.198484 0.114,-0.06913 0.227,-0.14123 0.341,-0.216298 0.113,-0.07507 0.227,-0.153104 0.341,-0.233898 0.113,-0.08101 0.227,-0.164768 0.34,-0.251498 0.114,-0.08652 0.227,-0.176219 0.341,-0.268675 0.114,-0.09224 0.227,-0.18767 0.341,-0.285639 0.113,-0.09818 0.227,-0.199121 0.34,-0.302817 0.114,-0.103696 0.227,-0.210147 0.341,-0.319569 0.114,-0.109214 0.227,-0.221175 0.341,-0.335897 0.113,-0.114719 0.227,-0.232201 0.34,-0.352436 0.114,-0.120029 0.228,-0.243017 0.341,-0.368342 0.114,-0.125533 0.227,-0.253619 0.341,-0.384457 0.113,-0.130633 0.227,-0.26401 0.34,-0.399938 0.114,-0.135928 0.228,-0.274401 0.341,-0.415418 0.114,-0.140806 0.227,-0.284368 0.341,-0.430474 0.113,-0.145895 0.227,-0.294334 0.34,-0.445319 0.114,-0.150771 0.228,-0.304088 0.341,-0.459737 0.114,-0.155649 0.227,-0.313843 0.341,-0.474157 0.113,-0.160315 0.227,-0.323173 0.341,-0.488153 0.113,-0.16498 0.227,-0.332293 0.34,-0.501726 0.114,-0.169431 0.227,-0.341197 0.341,-0.515083 0.113,-0.173886 0.227,-0.349892 0.341,-0.52802 0.113,-0.178339 0.227,-0.358586 0.34,-0.540955 0.114,-0.182368 0.227,-0.366644 0.341,-0.553043 0.113,-0.186397 0.227,-0.374703 0.341,-0.565129 0.113,-0.190426 0.227,-0.382549 0.34,-0.576792 0.114,-0.194032 0.227,-0.390183 0.341,-0.588032 0.114,-0.197637 0.227,-0.397393 0.341,-0.598846 0.113,-0.201242 0.227,-0.404391 0.34,-0.609237 0.114,-0.204846 0.227,-0.411389 0.341,-0.619629 0.114,-0.208026 0.227,-0.417962 0.341,-0.62917 0.113,-0.21142 0.227,-0.424323 0.34,-0.638712 0.114,-0.214177 0.227,-0.430051 0.341,-0.647407 0.114,-0.217358 0.227,-0.435989 0.341,-0.656103 0.113,-0.219902 0.227,-0.441288 0.34,-0.663948 0.114,-0.222658 0.228,-0.446589 0.341,-0.671792 0.114,-0.225204 0.227,-0.451468 0.341,-0.679005 0.113,-0.227536 0.227,-0.456132 0.34,-0.686 0.114,-0.229657 0.228,-0.460374 0.341,-0.692152 0.114,-0.231778 0.227,-0.464614 0.341,-0.698088 0.113,-0.233686 0.227,-0.468432 0.341,-0.703814 0.113,-0.235382 0.227,-0.471613 0.34,-0.708693 0.114,-0.237078 0.227,-0.474792 0.341,-0.713356 0.113,-0.238564 0.227,-0.477762 0.341,-0.717598 0.113,-0.239623 0.227,-0.480095 0.34,-0.721203 0.114,-0.240895 0.227,-0.482428 0.341,-0.724383 0.113,-0.241956 0.227,-0.484336 0.341,-0.727141 0.113,-0.242804 0.227,-0.486031 0.34,-0.729685 0.114,-0.243439 0.227,-0.487304 0.341,-0.73138 0.114,-0.244077 0.227,-0.488366 0.341,-0.732866 0.113,-0.24429 0.227,-0.489002 0.34,-0.733714 0.114,-0.244713 0.227,-0.489427 0.341,-0.734139"
       title="sin(x)"
       id="path1" />
  </g>
</svg>
