<?xml version="1.0" encoding="UTF-8" standalone="no"?>
<!-- Created with Inkscape (http://www.inkscape.org/) -->

<svg
   width="210mm"
   height="297mm"
   viewBox="0 0 210 297"
   version="1.1"
   id="svg2154"
   inkscape:version="1.2.1 (9c6d41e410, 2022-07-14)"
   sodipodi:docname="oppgave_heis_badevekt.svg"
   xmlns:inkscape="http://www.inkscape.org/namespaces/inkscape"
   xmlns:sodipodi="http://sodipodi.sourceforge.net/DTD/sodipodi-0.dtd"
   xmlns="http://www.w3.org/2000/svg"
   xmlns:svg="http://www.w3.org/2000/svg">
  <sodipodi:namedview
     id="namedview2156"
     pagecolor="#ffffff"
     bordercolor="#666666"
     borderopacity="1.0"
     inkscape:showpageshadow="2"
     inkscape:pageopacity="1"
     inkscape:pagecheckerboard="0"
     inkscape:deskcolor="#d1d1d1"
     inkscape:document-units="mm"
     showgrid="true"
     inkscape:zoom="0.84096521"
     inkscape:cx="487.53503"
     inkscape:cy="140.90952"
     inkscape:window-width="1368"
     inkscape:window-height="850"
     inkscape:window-x="-6"
     inkscape:window-y="-6"
     inkscape:window-maximized="1"
     inkscape:current-layer="layer1">
    <inkscape:grid
       type="xygrid"
       id="grid2275" />
  </sodipodi:namedview>
  <defs
     id="defs2151">
    <rect
       x="61.239157"
       y="14.863873"
       width="385.27159"
       height="340.08541"
       id="rect6103" />
    <inkscape:path-effect
       effect="spiro"
       id="path-effect3113"
       is_visible="true"
       lpeversion="1" />
    <marker
       style="overflow:visible"
       id="TriangleStart"
       refX="0"
       refY="0"
       orient="auto-start-reverse"
       inkscape:stockid="TriangleStart"
       markerWidth="5.3244081"
       markerHeight="6.155385"
       viewBox="0 0 5.3244081 6.1553851"
       inkscape:isstock="true"
       inkscape:collect="always"
       preserveAspectRatio="xMidYMid">
      <path
         transform="scale(0.5)"
         style="fill:context-stroke;fill-rule:evenodd;stroke:context-stroke;stroke-width:1pt"
         d="M 5.77,0 -2.88,5 V -5 Z"
         id="path135" />
    </marker>
    <marker
       style="overflow:visible"
       id="TriangleStart-4"
       refX="0"
       refY="0"
       orient="auto-start-reverse"
       inkscape:stockid="TriangleStart"
       markerWidth="5.3244081"
       markerHeight="6.155385"
       viewBox="0 0 5.3244081 6.1553851"
       inkscape:isstock="true"
       inkscape:collect="always"
       preserveAspectRatio="xMidYMid">
      <path
         transform="scale(0.5)"
         style="fill:context-stroke;fill-rule:evenodd;stroke:context-stroke;stroke-width:1pt"
         d="M 5.77,0 -2.88,5 V -5 Z"
         id="path135-8" />
    </marker>
  </defs>
  <g
     inkscape:label="Layer 1"
     inkscape:groupmode="layer"
     id="layer1">
    <path
       style="fill:none;stroke:#000000;stroke-width:0.264583px;stroke-linecap:butt;stroke-linejoin:miter;stroke-opacity:1;marker-end:url(#TriangleStart)"
       d="M 39.687499,78.988345 V 10.698141"
       id="path2340"
       inkscape:export-filename="oppgave_heis_badevekt.png"
       inkscape:export-xdpi="300"
       inkscape:export-ydpi="300" />
    <path
       style="fill:none;stroke:#000000;stroke-width:0.264583px;stroke-linecap:butt;stroke-linejoin:miter;stroke-opacity:1;marker-end:url(#TriangleStart-4)"
       d="m 33.0722,77.932085 h 93.80175"
       id="path2340-3" />
    <path
       style="fill:none;stroke:#000000;stroke-width:0.264583px;stroke-linecap:butt;stroke-linejoin:miter;stroke-dasharray:1.5875, 0.264583;stroke-dashoffset:0;stroke-opacity:1"
       d="m 91.345692,68.094971 v 9.883416"
       id="path5493-2-5-8" />
    <text
       xml:space="preserve"
       style="font-style:italic;font-size:4.9389px;line-height:1.25;font-family:'Times New Roman';-inkscape-font-specification:'Times New Roman, Italic';font-variant-ligatures:none;stroke-width:0.264583"
       x="40.711823"
       y="13.570608"
       id="text3975"><tspan
         sodipodi:role="line"
         id="tspan3973"
         style="stroke-width:0.264583"
         x="40.711823"
         y="13.570608">F <tspan
   style="font-style:normal;font-variant:normal;font-weight:normal;font-stretch:normal;font-size:4.9389px;font-family:'Times New Roman';-inkscape-font-specification:'Times New Roman, Normal';font-variant-ligatures:none;font-variant-caps:normal;font-variant-numeric:normal;font-variant-east-asian:normal"
   id="tspan5491">[N]</tspan></tspan></text>
    <text
       xml:space="preserve"
       style="font-style:italic;font-size:4.9389px;line-height:1.25;font-family:'Times New Roman';-inkscape-font-specification:'Times New Roman, Italic';font-variant-ligatures:none;stroke-width:0.264583"
       x="129.30382"
       y="79.075974"
       id="text3979"><tspan
         sodipodi:role="line"
         id="tspan3977"
         style="stroke-width:0.264583"
         x="129.30382"
         y="79.075974">t</tspan></text>
    <path
       style="fill:none;stroke:#000000;stroke-width:0.264583px;stroke-linecap:butt;stroke-linejoin:miter;stroke-opacity:1;stroke-dasharray:1.58749795,0.26458299;stroke-dashoffset:0"
       d="m 39.6875,42.333333 h 84.66667"
       id="path5493" />
    <path
       style="fill:none;stroke:#0000ff;stroke-width:0.465;stroke-linecap:butt;stroke-linejoin:miter;stroke-opacity:1;stroke-dasharray:none"
       d="m 39.641949,42.001588 c 0.786545,0 1.573093,0 2.359639,0 0.104873,0 0.209745,0 0.314618,0 0.104873,0 0.215128,0.03317 0.314619,0 0.07035,-0.02344 0.09098,-0.124146 0.157311,-0.157308 0.0469,-0.02344 0.104873,0 0.157308,0 0.15731,0 0.314618,0 0.471929,0 0.05244,0 0.110408,0.02344 0.157308,0 0.06633,-0.03316 0.08696,-0.133861 0.157311,-0.157311 0.09949,-0.03316 0.209746,0 0.314618,0 0.104873,0 0.209746,0 0.314619,0 0.419492,0 0.838983,0 1.258475,0 0.262181,0 0.524364,0 0.786545,0 0.05244,0 0.104873,0 0.157311,0 0.104873,0 0.212876,-0.02543 0.314619,0 0.113749,0.02844 0.203382,0.120232 0.314618,0.157311 0.04975,0.01659 0.12023,-0.03708 0.157308,0 0.03708,0.03708 -0.03708,0.120232 0,0.157308 0.03708,0.03708 0.104873,0 0.157311,0 0.209053,0 0.105563,0 0.314619,0 0.524364,0 1.048726,0 1.57309,0 0.104873,0 0.209746,0 0.314619,0 0.104873,0 0.215127,0.03317 0.314619,0 0.07035,-0.02344 0.09561,-0.116174 0.15731,-0.157308 0.09756,-0.06504 0.203386,-0.120232 0.314619,-0.157311 0.04974,-0.01659 0.120232,0.03708 0.157308,0 0.03708,-0.03708 0,-0.104873 0,-0.157308 0.05244,-0.05244 0.09561,-0.116176 0.157311,-0.157311 0.09756,-0.06504 0.217059,-0.09227 0.314618,-0.157308 0.0617,-0.04113 0.104873,-0.104873 0.157308,-0.15731 0.05244,-0.05244 0.116176,-0.09561 0.157311,-0.157308 0.06504,-0.09756 0.09227,-0.217059 0.157308,-0.314619 0.04113,-0.0617 0.116176,-0.09561 0.157311,-0.157311 0.330525,-0.495787 -0.06549,-0.265504 0.629237,-0.786545 0.04195,-0.03146 0.115359,0.03146 0.157308,0 0.177977,-0.133482 0.314619,-0.314619 0.47193,-0.47193 0.05244,-0.05244 0.09561,-0.116173 0.157308,-0.157308 0.09756,-0.06504 0.209745,-0.104872 0.314618,-0.15731 0.104873,-0.05244 0.209746,-0.10487 0.314619,-0.157308 0.104873,-0.05244 0.244269,-0.06351 0.314619,-0.157308 0.09949,-0.132657 0.08315,-0.323617 0.15731,-0.47193 0.0048,-0.0095 0.300779,-0.296164 0.314619,-0.314618 0.113437,-0.151249 0.18093,-0.338241 0.314619,-0.471927 0.03708,-0.03708 0.104873,0 0.157308,0 0.05244,-0.05244 0.116176,-0.09561 0.15731,-0.157311 0.130077,-0.195117 0.184539,-0.434117 0.314619,-0.629237 0.04113,-0.0617 0.124145,-0.09098 0.157308,-0.157308 0.02344,-0.0469 0,-0.104873 0,-0.157311 0.104873,-0.209745 0.209746,-0.419491 0.314619,-0.629237 0.15731,-0.314619 0.314618,-0.629237 0.471929,-0.943856 0.104873,-0.209746 0.227526,-0.411507 0.314619,-0.629237 0.01947,-0.04869 -0.01273,-0.106437 0,-0.157308 0.0033,-0.01299 0.313528,-0.937324 0.314618,-0.943857 0.02585,-0.15517 -0.04322,-0.320672 0,-0.471929 -0.241636,-0.538549 0.33519,-0.513069 0.471927,-0.786545 0.02344,-0.0469 0,-0.104873 0,-0.157311 0.05244,-0.104873 0.08696,-0.220816 0.157311,-0.314619 0.08899,-0.118649 0.232349,-0.191214 0.314618,-0.314618 0.02909,-0.04363 -0.01659,-0.107564 0,-0.157308 0.07416,-0.22247 0.240462,-0.406768 0.314617,-0.629238 0.01659,-0.04975 -0.02344,-0.110408 0,-0.15731 0.08455,-0.169101 0.230068,-0.302824 0.314618,-0.471927 0.07416,-0.148312 0.09573,-0.317968 0.157311,-0.471927 0.04355,-0.108865 0.104873,-0.209746 0.157308,-0.314618 0.104873,-0.209746 0.222245,-0.413698 0.314619,-0.629238 0.06532,-0.152413 0.111757,-0.312491 0.15731,-0.471929 0.05939,-0.207883 0.0695,-0.431671 0.157308,-0.629238 1.330809,-2.994319 -0.30312,1.532848 0.629238,-1.730402 0.02037,-0.0713 0.142766,-0.08459 0.15731,-0.157309 0.04113,-0.205673 -0.03448,-0.422345 0,-0.629237 0.01926,-0.115656 0.104873,-0.209746 0.157308,-0.314619 0.104873,-0.209746 0.227529,-0.411507 0.314619,-0.629237 0.01947,-0.04869 0,-0.104873 0,-0.15731 0,-0.104872 -0.03316,-0.215127 0,-0.314618 0.02344,-0.07035 0.104873,-0.104873 0.157311,-0.15731 0,-0.104873 -0.02543,-0.212876 0,-0.314618 0.02844,-0.113751 0.104873,-0.209746 0.157308,-0.314619 0.05244,-0.104873 0.104873,-0.209746 0.15731,-0.314618 0.05244,-0.104873 0.120232,-0.203385 0.157308,-0.314619 0.01659,-0.04975 -0.01659,-0.107564 0,-0.157309 0.03708,-0.111235 0.104873,-0.209746 0.157311,-0.314619 0.05244,-0.104873 0.104873,-0.209746 0.157308,-0.314619 0.05244,-0.104873 0.09699,-0.214076 0.157311,-0.314618 0.09727,-0.16212 0.217347,-0.309809 0.314618,-0.471928 0.06032,-0.100543 0.09227,-0.21706 0.157308,-0.314619 0.04113,-0.0617 0.116176,-0.09561 0.157311,-0.157309 0.06504,-0.09756 0.104873,-0.209746 0.157308,-0.314619 0.05244,-0.104873 0.0744,-0.231709 0.157311,-0.314619 0.209746,-0.209745 0.150947,0.333704 0.314618,-0.157309 0.03316,-0.09949 -0.0469,-0.220817 0,-0.314618 0.02344,-0.0469 0.110408,0.02345 0.157308,0 0.06633,-0.03316 0.09098,-0.124146 0.157311,-0.15731 0.0469,-0.02345 0.110408,0.02345 0.157308,0 0.06633,-0.03316 0.09098,-0.124145 0.157311,-0.157309 0.0469,-0.02345 0.120229,0.03708 0.157308,0 0.08291,-0.08291 0.05975,-0.249579 0.157311,-0.314619 0.09438,-0.06292 0.34608,0.03146 0.471926,0 0.16087,-0.04022 0.31106,-0.117092 0.47193,-0.157309 0.05087,-0.01272 0.110408,0.02345 0.157308,0 0.06633,-0.03316 0.09098,-0.124146 0.15731,-0.157309 0.06562,-0.03281 0.277995,0.03662 0.314619,0 0.03708,-0.03708 -0.03708,-0.120232 0,-0.15731 0.03708,-0.03708 0.104873,0 0.157308,0 0.05244,0 0.104873,0 0.157311,0 0.209745,0 0.419491,0 0.629237,0 0.05244,0 0.104873,0 0.157308,0 0.05244,0 0.110408,0.02345 0.157311,0 0.06632,-0.03316 0.09098,-0.124145 0.157308,-0.157309 0.0469,-0.02345 0.104873,0 0.15731,0 0.05244,0 0.104873,0 0.157308,0 0.157311,0 0.314619,0 0.471927,0 0.05244,0 0.133861,-0.0469 0.157311,0 0.0469,0.0938 -0.0469,0.220817 0,0.314619 0.02344,0.0469 0.110408,-0.02345 0.157308,0 0.521732,0.521729 -0.148312,-0.07416 0.314618,0.157309 0.06633,0.03316 0.104873,0.104873 0.157311,0.157309 0.05244,0.05244 0.104873,0.104873 0.157308,0.15731 0.05244,0.05244 0.104873,0.104872 0.157311,0.157309 0.104873,0.104873 0.225631,0.195968 0.314618,0.314619 0.386432,0.05609 0.06533,0.333958 0.157308,0.471927 0.08227,0.123404 0.209746,0.209746 0.314619,0.314619 0.05244,0.05244 0.124148,0.09098 0.157311,0.157309 0.02344,0.0469 0,0.104873 0,0.15731 0.05244,0.104873 0.09227,0.217059 0.157308,0.314618 0.04114,0.0617 0.104873,0.104873 0.157311,0.15731 0.05244,0.05244 0.133858,0.08696 0.157308,0.157309 0.03316,0.09949 -0.03316,0.215128 0,0.314619 0.02344,0.07035 0.116175,0.09561 0.15731,0.157309 0.06504,0.09756 0.104873,0.209746 0.157308,0.314619 0.104873,0.209745 0.240464,0.406768 0.314619,0.629237 0.03316,0.09949 -0.03316,0.215127 0,0.314619 0.02344,0.07035 0.133861,0.08696 0.157311,0.157309 0.03316,0.09949 -0.03316,0.215127 0,0.314618 0.02344,0.07035 0.104872,0.104873 0.157308,0.15731 0.05244,0.104873 0.128873,0.200868 0.15731,0.314618 0.05087,0.203484 -0.05087,0.425754 0,0.629238 0.05137,0.205478 0.399426,0.665712 0.471927,0.786546 0.381971,0.636618 -0.0016,-0.0067 0.157311,0.629238 0.18991,0.759638 0.07476,-0.0078 0.314618,0.471928 0.07415,0.148312 0.09199,0.319516 0.157308,0.471928 0.09238,0.215542 0.240464,0.406768 0.314619,0.629237 0.03317,0.09949 -0.02056,0.211781 0,0.314619 0.03252,0.162597 0.104873,0.314619 0.157311,0.471927 0.05243,0.157311 0.104873,0.314619 0.157308,0.47193 0.05244,0.157308 0.12479,0.309327 0.15731,0.471926 0.02056,0.102836 -0.02543,0.212876 0,0.314619 0.02844,0.11375 0.113763,0.205753 0.157308,0.314619 0.06158,0.153958 0.104873,0.314618 0.157311,0.471926 0.05244,0.157311 0.104873,0.314619 0.157308,0.47193 0.05244,0.157308 0.133861,0.307776 0.157311,0.471926 0.02966,0.20764 -0.03448,0.422347 0,0.629238 0.01929,0.115657 0.12887,0.200869 0.157308,0.314618 0.02543,0.101743 -0.02543,0.212879 0,0.314619 0.216233,0.864936 0.133591,-0.397632 0.471929,0.786548 0.05762,0.201676 -0.04114,0.423564 0,0.629237 0.01455,0.07272 0.129768,0.08846 0.157308,0.157308 0.0803,0.20074 0.08894,0.424133 0.157311,0.629238 0.03708,0.111236 0.120229,0.203385 0.157308,0.314619 0.06837,0.205107 0.08894,0.424132 0.15731,0.629237 0.171167,0.513506 0.205505,0.131863 0.314619,0.786548 0.02585,0.155167 -0.04975,0.322691 0,0.471927 0.05978,0.179361 0.244401,0.296389 0.314619,0.471929 0.03895,0.09737 -0.02056,0.21178 0,0.314619 0.03252,0.162597 0.124788,0.309329 0.157308,0.471926 0.02056,0.102836 -0.02056,0.211783 0,0.314619 5.29e-4,0.0026 0.312502,0.93645 0.314619,0.943856 0.0594,0.207883 0.09791,0.421354 0.15731,0.629237 0.04555,0.159438 0.130048,0.308367 0.157308,0.471927 0.02585,0.15517 -0.02585,0.316759 0,0.47193 0.11865,0.711901 0.2427,0.29886 0.47193,1.101164 0.04321,0.151257 -0.04322,0.320672 0,0.471929 0.06442,0.22548 0.222242,0.413694 0.314618,0.629237 0.06532,0.152411 0.10487,0.314619 0.157308,0.471927 0.05244,0.157311 0.104873,0.314619 0.157308,0.471929 0.05244,0.157308 0.117094,0.31106 0.157311,0.471927 0.006,0.0241 -0.0062,0.299114 0,0.314619 0.08709,0.217731 0.250195,0.403757 0.314619,0.629237 0.04322,0.151257 -0.03085,0.317675 0,0.471929 0.02299,0.114975 0.134313,0.199644 0.157308,0.314619 0.03085,0.154255 -0.03085,0.317672 0,0.471927 -0.116843,0.291137 0.268766,0.288512 0.314618,0.471929 0.03816,0.152612 0,0.314619 0,0.471927 0,0.157311 -0.07035,0.331226 0,0.471929 0.05244,0.104873 0.254294,0.05677 0.314619,0.157308 0.111236,0.185391 0.08894,0.424133 0.157311,0.629238 0.03708,0.111233 0.104873,0.209745 0.157308,0.314618 0.05244,0.209746 0.09519,0.422154 0.15731,0.629238 0.09529,0.31765 0.183981,0.639032 0.314619,0.943856 0.287835,0.671613 0.04886,-0.591114 0.314619,0.471926 0,1.043459 -0.07416,-0.222467 0.157308,0.47193 0.03316,0.09949 -0.03316,0.215127 0,0.314618 0.02344,0.07035 0.124148,0.09098 0.15731,0.157308 0.07416,0.148315 0.08315,0.323618 0.157308,0.47193 0.03317,0.06633 0.129771,0.08845 0.157311,0.157308 0.0803,0.200739 0.07702,0.4285 0.157308,0.629237 0.02754,0.06885 0.139324,0.08537 0.157311,0.157311 0.03815,0.152612 -0.03085,0.317672 0,0.471927 0.02299,0.114974 0.113763,0.205753 0.157308,0.314618 0.06158,0.153959 0.111757,0.312489 0.15731,0.47193 0.05244,0.209745 0.104873,0.419491 0.157308,0.629237 0,0.05244 -0.01273,0.106437 0,0.157308 0.04022,0.160869 0.104873,0.314619 0.157311,0.471929 0.05243,0.157308 0.104873,0.314619 0.157308,0.471927 0.05244,0.157311 0.124791,0.30933 0.157311,0.471929 0.02056,0.102836 -0.0469,0.220816 0,0.314619 0.02344,0.0469 0.133858,-0.0469 0.157308,0 0.09669,0.193376 0.09791,0.421354 0.157311,0.629237 0.04555,0.159438 0.09909,0.316667 0.157308,0.471927 0.09915,0.264401 0.199935,0.528505 0.314618,0.786546 0.09524,0.214294 0.240464,0.40677 0.314619,0.629237 0.03317,0.09949 -0.02881,0.213783 0,0.314619 0.341492,1.19522 0.19526,0.409493 0.471929,1.101166 0.06158,0.153959 0.072,0.32974 0.157308,0.471927 0.07631,0.127177 0.248293,0.181965 0.314619,0.314619 0.0469,0.0938 -0.02543,0.212878 0,0.314618 0.02844,0.113753 0.113763,0.205754 0.157311,0.314619 0.06158,0.153958 0.09572,0.317971 0.157308,0.471929 0.04355,0.108866 0.113763,0.205754 0.15731,0.314619 0.06158,0.153958 0.072,0.32974 0.157308,0.471927 0.07631,0.127177 0.209746,0.209746 0.314619,0.314618 0.05244,0.05244 0.124145,0.09098 0.157311,0.157311 0.07415,0.148312 0.09572,0.317968 0.157308,0.471927 0.285146,0.712864 0.01453,0.02177 0.314618,0.471929 0.06504,0.09756 0.0744,0.231709 0.157311,0.314619 0.08291,0.08291 0.231709,0.0744 0.314619,0.157308 0.133686,0.133689 0.230065,0.302826 0.314618,0.471929 0.02344,0.0469 -0.03708,0.12023 0,0.157308 0.133686,0.133689 0.320678,0.201181 0.471927,0.314619 0.11865,0.08899 0.191214,0.232349 0.314619,0.314619 0.09756,0.06504 0.231709,0.0744 0.314618,0.15731 0.133686,0.133686 0.201182,0.320678 0.314619,0.471927 0.04449,0.05933 0.104873,0.104873 0.157308,0.157311 0.104873,0.104873 0.195969,0.225628 0.314619,0.314618 0.0938,0.07035 0.217061,0.09227 0.314619,0.157308 0.0617,0.04113 0.09561,0.116176 0.15731,0.157311 0.231466,0.15431 0.530725,0.229343 0.786546,0.314616 0.15731,0.05244 0.314618,0.104873 0.471929,0.157311 0.157308,0.05244 0.31106,0.117091 0.471927,0.157308 0.05087,0.01273 0.104873,0 0.15731,0 0.05244,0 0.104873,0 0.157308,0 0.209746,0 0.419492,0 0.629238,0 0.15731,0 0.314618,0 0.471929,0 0.05244,0 0.104873,0 0.157308,0 0.05244,0 0.110411,0.02344 0.157311,0 0.06633,-0.03316 0.104873,-0.104873 0.157308,-0.157308 0.05244,-0.05244 0.104873,-0.104873 0.15731,-0.157311 0.05244,-0.05243 0.104873,-0.10487 0.157308,-0.157308 0.104873,-0.104873 0.23235,-0.191214 0.314619,-0.314619 1.247934,-1.8719 -0.367054,0.367057 0.471929,-1.101164 0.130078,-0.227639 0.354677,-0.394734 0.471927,-0.629237 0.0469,-0.0938 -0.02056,-0.211783 0,-0.314619 0.03252,-0.162599 0.08315,-0.323617 0.157311,-0.471929 0.08455,-0.169103 0.230066,-0.302826 0.314618,-0.471927 0.02344,-0.0469 0,-0.104873 0,-0.15731 0.05244,-0.104873 0.08696,-0.220816 0.157309,-0.314619 0.08899,-0.11865 0.238312,-0.187442 0.314618,-0.314619 0.08531,-0.142187 0.09573,-0.317968 0.157311,-0.471927 0.235453,-0.588634 0.1026,-0.04789 0.471927,-0.786548 0.02344,-0.0469 -0.01659,-0.107563 0,-0.157308 0.0016,-0.0046 0.311541,-0.621548 0.314618,-0.629237 0.06158,-0.153958 0.08315,-0.323614 0.157311,-0.471929 0.03316,-0.06633 0.124145,-0.09098 0.157308,-0.157308 0.02344,-0.0469 -0.01659,-0.107564 0,-0.157311 0.365159,-0.730316 0.01336,0.09055 0.157311,-0.629237 0.03252,-0.162597 0.104872,-0.314619 0.157308,-0.471927 0.05244,-0.157311 0.08315,-0.323615 0.15731,-0.471929 0.03316,-0.06633 0.142764,-0.08459 0.157308,-0.157308 0.04113,-0.205674 0,-0.419492 0,-0.629238 0.104873,-0.314618 0.223512,-0.624977 0.314619,-0.943856 0.01442,-0.05042 0,-0.104873 0,-0.157308 0,-0.157311 0,-0.314619 0,-0.471929 0,-0.262181 0,-0.524365 0,-0.786546 0,-0.15731 -0.02225,-0.3162 0,-0.471929 -0.0149,-0.39832 0.25186,-0.724617 0.314619,-1.101164 0.02585,-0.15517 0,-0.314619 0,-0.471929 0,-0.104873 0,-0.209746 0,-0.314619 0,-0.104873 -0.03316,-0.215127 0,-0.314619 0.02344,-0.07035 0.124145,-0.09098 0.157308,-0.157308 0.02344,-0.0469 0,-0.104873 0,-0.15731 0,-0.157308 0,-0.314619 0,-0.471927 0,-0.209746 0,-0.419492 0,-0.629237 0,-0.157311 0,-0.314619 0,-0.47193 0,-0.104873 -0.02056,-0.21178 0,-0.314619 0.03252,-0.162597 0.12479,-0.309329 0.15731,-0.471926 0.02056,-0.102836 0,-0.209746 0,-0.314619 0.05244,-0.157311 0.124791,-0.30933 0.157308,-0.471929 0.02056,-0.102836 -0.03316,-0.215128 0,-0.314619 0.02344,-0.07035 0.124148,-0.09098 0.157311,-0.157308 0.450207,-0.900417 -0.09774,-0.09928 0.314619,-0.786548 0.09727,-0.162118 0.209746,-0.314616 0.314618,-0.471927 0.104873,-0.157308 0.201182,-0.320677 0.314619,-0.471926 0.04449,-0.05933 0.116173,-0.09561 0.157308,-0.157311 0.06504,-0.09756 0.09227,-0.217059 0.157311,-0.314619 0.260863,-0.391297 0.03615,-0.01807 0.314618,-0.157308 0.06633,-0.03316 0.104873,-0.104873 0.157308,-0.15731 0.05244,-0.05244 0.104873,-0.104873 0.157313,-0.157308 0.17998,-0.179989 0.18622,-0.219382 0.47192,-0.314619 0.0339,-0.0113 0.29121,0.01172 0.31462,0 0.13266,-0.06633 0.18197,-0.248293 0.31462,-0.314619 0.0469,-0.02344 0.11041,0.02344 0.15731,0 0.0663,-0.03317 0.091,-0.124148 0.15731,-0.15731 0.14831,-0.07415 0.33396,-0.06533 0.47193,-0.157308 0.0436,-0.02909 -0.0371,-0.120232 0,-0.157311 0.0457,-0.04569 0.25071,0.0426 0.31462,0 0.1234,-0.08227 0.20974,-0.209746 0.31462,-0.314619 0.0524,-0.05243 0.091,-0.124145 0.15731,-0.157308 0.0469,-0.02344 0.1104,0.02344 0.15731,0 0.0663,-0.03316 0.091,-0.124148 0.1573,-0.157311 0.0469,-0.02344 0.11041,0.02344 0.15731,0 0.33312,-0.166557 -0.0185,-0.14806 0.31462,-0.314618 0.0469,-0.02344 0.11368,0.02909 0.15731,0 0.10487,-0.104873 0.20975,-0.209746 0.31462,-0.314619 0.0524,0 0.11041,0.02344 0.15731,0 0.0663,-0.03316 0.091,-0.124145 0.15731,-0.157308 0.0938,-0.0469 0.22082,0.0469 0.31462,0 0.0663,-0.03317 0.091,-0.124145 0.15731,-0.157311 0.0469,-0.02344 0.10487,0 0.15731,0 0.15731,-0.05244 0.32361,-0.08315 0.47193,-0.157308 0.0663,-0.03317 0.087,-0.13386 0.1573,-0.15731 0.0995,-0.03316 0.21179,0.02056 0.31462,0 1.3245,-0.264898 0.005,-0.0024 0.62924,-0.314619 0.0469,-0.02344 0.10487,0 0.15731,0 0.15731,0 0.31462,0 0.47193,0 0.41949,0 0.83898,0 1.25847,0 0.10487,0 0.20975,0 0.31462,0 0.10487,0 0.21288,0.02543 0.31462,0 0.11375,-0.02844 0.20338,-0.120229 0.31462,-0.157308 0.0497,-0.01659 0.10487,0 0.15731,0 0.15731,0 0.31461,0 0.47193,0 0.10487,0 0.21512,0.03316 0.31461,0 0.0703,-0.02344 0.091,-0.124145 0.15731,-0.157311 0.0469,-0.02344 0.10487,0 0.15731,0 0.0524,0 0.10488,0 0.15731,0 0.41949,0 0.83898,0 1.25848,0 0.36705,0 0.73411,0 1.10116,0 0.15731,0 0.31462,0 0.47193,0 0.0524,0 0.11041,0.02344 0.15731,0 0.0663,-0.03316 0.091,-0.124145 0.15731,-0.157308 0.0469,-0.02344 0.10487,0 0.15731,0 0.0524,0 0.10487,0 0.15731,0 0.20974,0 0.41949,0 0.62923,0 0.0524,0 0.10488,0 0.15731,0 0.0524,0 0.10757,0.01659 0.15731,0 0.11124,-0.03708 0.20339,-0.120232 0.31462,-0.15731 0.0498,-0.01659 0.10487,0 0.15731,0 0.0524,0 0.10487,0 0.15731,0 0.20975,0 0.41949,0 0.62924,0 0.83898,0 1.67796,0 2.51695,0 0.10487,0 0.20974,0 0.31462,0 0.0524,0 0.12023,0.03708 0.1573,0 0.0371,-0.03708 -0.0371,-0.12023 0,-0.157308 0.0371,-0.03708 0.10757,0.01659 0.15731,0 0.11124,-0.03708 0.20339,-0.120232 0.31462,-0.157311 0.0498,-0.01659 0.11041,0.02344 0.15731,0 0.0663,-0.03316 0.091,-0.124145 0.15731,-0.157308 0.0469,-0.02344 0.10487,0 0.15731,0 0.0524,0 0.10487,0 0.15731,0 0.10487,0 0.20975,0 0.31462,0 0.23371,0 0.43363,0.03829 0.62924,-0.157311 0.0371,-0.03708 0,-0.104873 0,-0.157308"
       id="path5497" />
    <text
       xml:space="preserve"
       style="font-style:normal;font-size:4.93889982px;line-height:1.25;font-family:'Times New Roman';-inkscape-font-specification:'Times New Roman, Normal';font-variant-ligatures:none;stroke-width:0.264583;font-weight:normal;font-stretch:normal;font-variant:normal;font-variant-caps:normal;font-variant-numeric:normal;font-variant-east-asian:normal"
       x="29.888769"
       y="44.046608"
       id="text5501"><tspan
         sodipodi:role="line"
         id="tspan5499"
         style="stroke-width:0.264583;-inkscape-font-specification:'Times New Roman, Normal';font-family:'Times New Roman';font-weight:normal;font-style:normal;font-stretch:normal;font-variant:normal;font-size:4.93889982px;font-variant-ligatures:none;font-variant-caps:normal;font-variant-numeric:normal;font-variant-east-asian:normal"
         x="29.888769"
         y="44.046608">700</tspan></text>
    <text
       xml:space="preserve"
       style="font-style:normal;font-variant:normal;font-weight:normal;font-stretch:normal;font-size:4.9389px;line-height:1.25;font-family:'Times New Roman';-inkscape-font-specification:'Times New Roman, Normal';font-variant-ligatures:none;font-variant-caps:normal;font-variant-numeric:normal;font-variant-east-asian:normal;stroke-width:0.264583"
       x="30.32519"
       y="20.045059"
       id="text5501-5"><tspan
         sodipodi:role="line"
         id="tspan5499-7"
         style="font-style:normal;font-variant:normal;font-weight:normal;font-stretch:normal;font-size:4.9389px;font-family:'Times New Roman';-inkscape-font-specification:'Times New Roman, Normal';font-variant-ligatures:none;font-variant-caps:normal;font-variant-numeric:normal;font-variant-east-asian:normal;stroke-width:0.264583"
         x="30.32519"
         y="20.045059">765</tspan></text>
    <path
       style="fill:none;stroke:#000000;stroke-width:0.264583px;stroke-linecap:butt;stroke-linejoin:miter;stroke-dasharray:1.5875, 0.264583;stroke-dashoffset:0;stroke-opacity:1"
       d="M 123.01589,42.133108 V 78.051215"
       id="path5493-2-5-5" />
    <path
       style="fill:none;stroke:#000000;stroke-width:0.264583px;stroke-linecap:butt;stroke-linejoin:miter;stroke-dasharray:1.5875, 0.264583;stroke-dashoffset:0;stroke-opacity:1"
       d="M 50.338981,42.141775 V 77.837411"
       id="path5493-2" />
    <path
       style="fill:none;stroke:#000000;stroke-width:0.264583px;stroke-linecap:butt;stroke-linejoin:miter;stroke-dasharray:1.5875, 0.264583;stroke-dashoffset:0;stroke-opacity:1"
       d="M 77.553498,41.866484 V 77.784591"
       id="path5493-2-5" />
    <path
       style="fill:none;stroke:#000000;stroke-width:0.264584px;stroke-linecap:butt;stroke-linejoin:miter;stroke-dasharray:1.5875, 0.264584;stroke-dashoffset:0;stroke-opacity:1"
       d="M 67.468747,17.759695 V 78.052081"
       id="path5493-2-5-0" />
    <text
       xml:space="preserve"
       style="font-style:italic;font-size:4.9389px;line-height:1.25;font-family:'Times New Roman';-inkscape-font-specification:'Times New Roman, Italic';font-variant-ligatures:none;stroke-width:0.264583"
       x="49.237816"
       y="81.643539"
       id="text5926"><tspan
         sodipodi:role="line"
         id="tspan5924"
         style="stroke-width:0.264583"
         x="49.237816"
         y="81.643539">t<tspan
   style="font-size:65%;baseline-shift:sub"
   id="tspan5928">1</tspan></tspan></text>
    <text
       xml:space="preserve"
       style="font-style:italic;font-size:4.9389px;line-height:1.25;font-family:'Times New Roman';-inkscape-font-specification:'Times New Roman, Italic';font-variant-ligatures:none;stroke-width:0.264583"
       x="66.342827"
       y="81.438751"
       id="text5926-7"><tspan
         sodipodi:role="line"
         id="tspan5924-0"
         style="stroke-width:0.264583"
         x="66.342827"
         y="81.438751">t<tspan
   style="font-size:65%;baseline-shift:sub"
   id="tspan5962">2</tspan></tspan></text>
    <text
       xml:space="preserve"
       style="font-style:italic;font-size:4.9389px;line-height:1.25;font-family:'Times New Roman';-inkscape-font-specification:'Times New Roman, Italic';font-variant-ligatures:none;stroke-width:0.264583"
       x="77.039864"
       y="81.281448"
       id="text5926-5"><tspan
         sodipodi:role="line"
         id="tspan5924-1"
         style="stroke-width:0.264583"
         x="77.039864"
         y="81.281448">t<tspan
   style="font-size:65%;baseline-shift:sub"
   id="tspan5985">3</tspan></tspan></text>
    <text
       xml:space="preserve"
       style="font-style:italic;font-size:4.9389px;line-height:1.25;font-family:'Times New Roman';-inkscape-font-specification:'Times New Roman, Italic';font-variant-ligatures:none;stroke-width:0.264583"
       x="90.195847"
       y="81.262634"
       id="text5926-5-6"><tspan
         sodipodi:role="line"
         id="tspan5924-1-8"
         style="stroke-width:0.264583"
         x="90.195847"
         y="81.262634">t<tspan
   style="font-size:65%;baseline-shift:sub"
   id="tspan6019">4</tspan></tspan></text>
    <text
       xml:space="preserve"
       transform="scale(0.26458333)"
       id="text6101"
       style="line-height:1.25;font-family:'Times New Roman';font-size:18.66666985px;-inkscape-font-specification:'Times New Roman, Italic';font-style:italic;font-variant-ligatures:none;white-space:pre;shape-inside:url(#rect6103)" />
    <text
       xml:space="preserve"
       style="font-style:italic;font-size:4.9389px;line-height:1.25;font-family:'Times New Roman';-inkscape-font-specification:'Times New Roman, Italic';font-variant-ligatures:none;stroke-width:0.264583"
       x="122.23365"
       y="81.891876"
       id="text5926-5-6-1"><tspan
         sodipodi:role="line"
         id="tspan5924-1-8-2"
         style="stroke-width:0.264583"
         x="122.23365"
         y="81.891876">t<tspan
   style="font-size:65%;baseline-shift:sub"
   id="tspan6151">5</tspan></tspan></text>
  </g>
</svg>
