<?xml version="1.0" encoding="UTF-8" standalone="no"?>
<!-- Created with Inkscape (http://www.inkscape.org/) -->

<svg
   width="210mm"
   height="297mm"
   viewBox="0 0 210 297"
   version="1.1"
   id="svg944"
   inkscape:version="1.2.2 (732a01da63, 2022-12-09)"
   sodipodi:docname="grafer_vinkelfart_vinkelakselerasjon.svg"
   xmlns:inkscape="http://www.inkscape.org/namespaces/inkscape"
   xmlns:sodipodi="http://sodipodi.sourceforge.net/DTD/sodipodi-0.dtd"
   xmlns="http://www.w3.org/2000/svg"
   xmlns:svg="http://www.w3.org/2000/svg">
  <sodipodi:namedview
     id="namedview946"
     pagecolor="#ffffff"
     bordercolor="#666666"
     borderopacity="1.0"
     inkscape:showpageshadow="2"
     inkscape:pageopacity="1"
     inkscape:pagecheckerboard="0"
     inkscape:deskcolor="#d1d1d1"
     inkscape:document-units="mm"
     showgrid="true"
     inkscape:zoom="0.84096521"
     inkscape:cx="414.40478"
     inkscape:cy="415.59389"
     inkscape:window-width="1368"
     inkscape:window-height="850"
     inkscape:window-x="-6"
     inkscape:window-y="-6"
     inkscape:window-maximized="1"
     inkscape:current-layer="layer1">
    <inkscape:grid
       type="xygrid"
       id="grid1065" />
  </sodipodi:namedview>
  <defs
     id="defs941">
    <marker
       style="overflow:visible"
       id="TriangleStart"
       refX="0"
       refY="0"
       orient="auto-start-reverse"
       inkscape:stockid="TriangleStart"
       markerWidth="5.3244081"
       markerHeight="6.155385"
       viewBox="0 0 5.3244081 6.1553851"
       inkscape:isstock="true"
       inkscape:collect="always"
       preserveAspectRatio="xMidYMid">
      <path
         transform="scale(0.5)"
         style="fill:context-stroke;fill-rule:evenodd;stroke:context-stroke;stroke-width:1pt"
         d="M 5.77,0 -2.88,5 V -5 Z"
         id="path135" />
    </marker>
    <marker
       style="overflow:visible"
       id="TriangleStart-4"
       refX="0"
       refY="0"
       orient="auto-start-reverse"
       inkscape:stockid="TriangleStart"
       markerWidth="5.3244081"
       markerHeight="6.155385"
       viewBox="0 0 5.3244081 6.1553851"
       inkscape:isstock="true"
       inkscape:collect="always"
       preserveAspectRatio="xMidYMid">
      <path
         transform="scale(0.5)"
         style="fill:context-stroke;fill-rule:evenodd;stroke:context-stroke;stroke-width:1pt"
         d="M 5.77,0 -2.88,5 V -5 Z"
         id="path135-1" />
    </marker>
    <marker
       style="overflow:visible"
       id="TriangleStart-48"
       refX="0"
       refY="0"
       orient="auto-start-reverse"
       inkscape:stockid="TriangleStart"
       markerWidth="5.3244081"
       markerHeight="6.155385"
       viewBox="0 0 5.3244081 6.1553851"
       inkscape:isstock="true"
       inkscape:collect="always"
       preserveAspectRatio="xMidYMid">
      <path
         transform="scale(0.5)"
         style="fill:context-stroke;fill-rule:evenodd;stroke:context-stroke;stroke-width:1pt"
         d="M 5.77,0 -2.88,5 V -5 Z"
         id="path135-5" />
    </marker>
    <marker
       style="overflow:visible"
       id="TriangleStart-4-3"
       refX="0"
       refY="0"
       orient="auto-start-reverse"
       inkscape:stockid="TriangleStart"
       markerWidth="5.3244081"
       markerHeight="6.155385"
       viewBox="0 0 5.3244081 6.1553851"
       inkscape:isstock="true"
       inkscape:collect="always"
       preserveAspectRatio="xMidYMid">
      <path
         transform="scale(0.5)"
         style="fill:context-stroke;fill-rule:evenodd;stroke:context-stroke;stroke-width:1pt"
         d="M 5.77,0 -2.88,5 V -5 Z"
         id="path135-1-1" />
    </marker>
    <marker
       style="overflow:visible"
       id="TriangleStart-48-3"
       refX="0"
       refY="0"
       orient="auto-start-reverse"
       inkscape:stockid="TriangleStart"
       markerWidth="5.3244081"
       markerHeight="6.155385"
       viewBox="0 0 5.3244081 6.1553851"
       inkscape:isstock="true"
       inkscape:collect="always"
       preserveAspectRatio="xMidYMid">
      <path
         transform="scale(0.5)"
         style="fill:context-stroke;fill-rule:evenodd;stroke:context-stroke;stroke-width:1pt"
         d="M 5.77,0 -2.88,5 V -5 Z"
         id="path135-5-0" />
    </marker>
    <marker
       style="overflow:visible"
       id="TriangleStart-4-3-1"
       refX="0"
       refY="0"
       orient="auto-start-reverse"
       inkscape:stockid="TriangleStart"
       markerWidth="5.3244081"
       markerHeight="6.155385"
       viewBox="0 0 5.3244081 6.1553851"
       inkscape:isstock="true"
       inkscape:collect="always"
       preserveAspectRatio="xMidYMid">
      <path
         transform="scale(0.5)"
         style="fill:context-stroke;fill-rule:evenodd;stroke:context-stroke;stroke-width:1pt"
         d="M 5.77,0 -2.88,5 V -5 Z"
         id="path135-1-1-7" />
    </marker>
    <marker
       style="overflow:visible"
       id="TriangleStart-48-1"
       refX="0"
       refY="0"
       orient="auto-start-reverse"
       inkscape:stockid="TriangleStart"
       markerWidth="5.3244081"
       markerHeight="6.155385"
       viewBox="0 0 5.3244081 6.1553851"
       inkscape:isstock="true"
       inkscape:collect="always"
       preserveAspectRatio="xMidYMid">
      <path
         transform="scale(0.5)"
         style="fill:context-stroke;fill-rule:evenodd;stroke:context-stroke;stroke-width:1pt"
         d="M 5.77,0 -2.88,5 V -5 Z"
         id="path135-5-7" />
    </marker>
    <marker
       style="overflow:visible"
       id="TriangleStart-4-3-3"
       refX="0"
       refY="0"
       orient="auto-start-reverse"
       inkscape:stockid="TriangleStart"
       markerWidth="5.3244081"
       markerHeight="6.155385"
       viewBox="0 0 5.3244081 6.1553851"
       inkscape:isstock="true"
       inkscape:collect="always"
       preserveAspectRatio="xMidYMid">
      <path
         transform="scale(0.5)"
         style="fill:context-stroke;fill-rule:evenodd;stroke:context-stroke;stroke-width:1pt"
         d="M 5.77,0 -2.88,5 V -5 Z"
         id="path135-1-1-1" />
    </marker>
    <marker
       style="overflow:visible"
       id="TriangleStart-48-3-5"
       refX="0"
       refY="0"
       orient="auto-start-reverse"
       inkscape:stockid="TriangleStart"
       markerWidth="5.3244081"
       markerHeight="6.155385"
       viewBox="0 0 5.3244081 6.1553851"
       inkscape:isstock="true"
       inkscape:collect="always"
       preserveAspectRatio="xMidYMid">
      <path
         transform="scale(0.5)"
         style="fill:context-stroke;fill-rule:evenodd;stroke:context-stroke;stroke-width:1pt"
         d="M 5.77,0 -2.88,5 V -5 Z"
         id="path135-5-0-0" />
    </marker>
    <marker
       style="overflow:visible"
       id="TriangleStart-4-3-1-0"
       refX="0"
       refY="0"
       orient="auto-start-reverse"
       inkscape:stockid="TriangleStart"
       markerWidth="5.3244081"
       markerHeight="6.155385"
       viewBox="0 0 5.3244081 6.1553851"
       inkscape:isstock="true"
       inkscape:collect="always"
       preserveAspectRatio="xMidYMid">
      <path
         transform="scale(0.5)"
         style="fill:context-stroke;fill-rule:evenodd;stroke:context-stroke;stroke-width:1pt"
         d="M 5.77,0 -2.88,5 V -5 Z"
         id="path135-1-1-7-1" />
    </marker>
    <marker
       style="overflow:visible"
       id="TriangleStart-48-1-9"
       refX="0"
       refY="0"
       orient="auto-start-reverse"
       inkscape:stockid="TriangleStart"
       markerWidth="5.3244081"
       markerHeight="6.155385"
       viewBox="0 0 5.3244081 6.1553851"
       inkscape:isstock="true"
       inkscape:collect="always"
       preserveAspectRatio="xMidYMid">
      <path
         transform="scale(0.5)"
         style="fill:context-stroke;fill-rule:evenodd;stroke:context-stroke;stroke-width:1pt"
         d="M 5.77,0 -2.88,5 V -5 Z"
         id="path135-5-7-6" />
    </marker>
    <marker
       style="overflow:visible"
       id="TriangleStart-4-3-3-9"
       refX="0"
       refY="0"
       orient="auto-start-reverse"
       inkscape:stockid="TriangleStart"
       markerWidth="5.3244081"
       markerHeight="6.155385"
       viewBox="0 0 5.3244081 6.1553851"
       inkscape:isstock="true"
       inkscape:collect="always"
       preserveAspectRatio="xMidYMid">
      <path
         transform="scale(0.5)"
         style="fill:context-stroke;fill-rule:evenodd;stroke:context-stroke;stroke-width:1pt"
         d="M 5.77,0 -2.88,5 V -5 Z"
         id="path135-1-1-1-9" />
    </marker>
  </defs>
  <g
     inkscape:label="Layer 1"
     inkscape:groupmode="layer"
     id="layer1">
    <path
       style="fill:none;stroke:#000000;stroke-width:0.264583px;stroke-linecap:butt;stroke-linejoin:miter;stroke-opacity:1;marker-end:url(#TriangleStart)"
       d="M 26.02887,63.403656 26.473808,7.563945"
       id="path4882"
       inkscape:export-filename="vinkelfart_graf.png"
       inkscape:export-xdpi="300"
       inkscape:export-ydpi="300" />
    <path
       style="fill:none;stroke:#000000;stroke-width:0.264583px;stroke-linecap:butt;stroke-linejoin:miter;stroke-opacity:1;marker-end:url(#TriangleStart-4)"
       d="M 16.779721,58.756108 97.587176,58.31117"
       id="path4882-3" />
    <path
       style="fill:none;stroke:#0000ff;stroke-width:0.465;stroke-linecap:butt;stroke-linejoin:miter;stroke-opacity:1;stroke-dasharray:none"
       d="m 26.251339,58.954278 c 9.512255,-29.84446 42.468627,-36.92985 70.967602,-36.92985"
       id="path5037" />
    <path
       style="fill:none;stroke:#008000;stroke-width:0.465;stroke-linecap:butt;stroke-linejoin:miter;stroke-dasharray:none;stroke-opacity:1"
       d="m 115.64391,118.90922 c 9.51225,-29.844459 42.46863,-36.929849 70.9676,-36.929849"
       id="path5037-6"
       inkscape:export-filename="vinkelakselerasjon_grafer.png"
       inkscape:export-xdpi="300"
       inkscape:export-ydpi="300" />
    <text
       xml:space="preserve"
       style="font-style:italic;font-size:4.9389px;line-height:1.25;font-family:'Times New Roman';-inkscape-font-specification:'Times New Roman, Italic';font-variant-ligatures:none;stroke-width:0.264583"
       x="22.024429"
       y="6.4516006"
       id="text5041"><tspan
         sodipodi:role="line"
         id="tspan5039"
         style="font-style:normal;font-variant:normal;font-weight:normal;font-stretch:normal;font-size:4.9389px;font-family:Symbol;-inkscape-font-specification:'Symbol, Normal';font-variant-ligatures:none;font-variant-caps:normal;font-variant-numeric:normal;font-variant-east-asian:normal;stroke-width:0.264583"
         x="22.024429"
         y="6.4516006">w</tspan></text>
    <text
       xml:space="preserve"
       style="font-style:italic;font-size:4.9389px;line-height:1.25;font-family:'Times New Roman';-inkscape-font-specification:'Times New Roman, Italic';font-variant-ligatures:none;stroke-width:0.264583"
       x="102.11325"
       y="60.066624"
       id="text5045"><tspan
         sodipodi:role="line"
         id="tspan5043"
         style="stroke-width:0.264583"
         x="102.11325"
         y="60.066624">t</tspan></text>
    <path
       style="fill:none;stroke:#000000;stroke-width:0.264583px;stroke-linecap:butt;stroke-linejoin:miter;stroke-opacity:1;marker-end:url(#TriangleStart-48)"
       d="M 22.547158,123.0622 22.992096,67.222488"
       id="path4882-36" />
    <path
       style="fill:none;stroke:#000000;stroke-width:0.264583px;stroke-linecap:butt;stroke-linejoin:miter;stroke-opacity:1;marker-end:url(#TriangleStart-4-3)"
       d="m 14.556484,118.25735 80.807455,-0.44494"
       id="path4882-3-3" />
    <text
       xml:space="preserve"
       style="font-style:italic;font-size:4.9389px;line-height:1.25;font-family:'Times New Roman';-inkscape-font-specification:'Times New Roman, Italic';font-variant-ligatures:none;stroke-width:0.264583"
       x="17.576504"
       y="70.624687"
       id="text5041-9"><tspan
         sodipodi:role="line"
         id="tspan5039-3"
         style="font-style:normal;font-variant:normal;font-weight:normal;font-stretch:normal;font-size:4.9389px;font-family:Symbol;-inkscape-font-specification:'Symbol, Normal';font-variant-ligatures:none;font-variant-caps:normal;font-variant-numeric:normal;font-variant-east-asian:normal;stroke-width:0.264583"
         x="17.576504"
         y="70.624687">a</tspan></text>
    <text
       xml:space="preserve"
       style="font-style:italic;font-size:4.9389px;line-height:1.25;font-family:'Times New Roman';-inkscape-font-specification:'Times New Roman, Italic';font-variant-ligatures:none;stroke-width:0.264583"
       x="99.890015"
       y="119.56786"
       id="text5045-8"><tspan
         sodipodi:role="line"
         id="tspan5043-4"
         style="stroke-width:0.264583"
         x="99.890015"
         y="119.56786">t</tspan></text>
    <path
       style="fill:none;stroke:#008000;stroke-width:0.465;stroke-dasharray:none"
       d="M 22.9672 78.9693 C 23.0161 78.7066 23.0651 79.2477 23.1141 78.9851 C 23.163 78.7224 23.212 79.2949 23.261 79.0324 C 23.3099 78.7699 23.3589 79.3732 23.4079 79.1109 C 23.4568 78.8487 23.5058 79.4822 23.5548 79.2204 C 23.6038 78.9585 23.6527 79.6216 23.7017 79.3602 C 23.7507 79.0988 23.7996 79.7906 23.8486 79.5298 C 23.8976 79.269 23.9465 79.9884 23.9955 79.7283 C 24.0445 79.4681 24.0934 80.2141 24.1424 79.9548 C 24.1914 79.6954 24.2403 80.4667 24.2893 80.2083 C 24.3383 79.9499 24.3873 80.7452 24.4362 80.4877 C 24.4852 80.2303 24.5342 81.0482 24.5831 80.7918 C 24.6321 80.5354 24.6811 81.3744 24.73 81.1193 C 24.779 80.8641 24.828 81.7227 24.8769 81.4688 C 24.9259 81.215 24.9749 82.0915 25.0238 81.839 C 25.0728 81.5866 25.1218 82.4794 25.1708 82.2284 C 25.2197 81.9775 25.2687 82.8849 25.3177 82.6356 C 25.3666 82.3863 25.4156 83.3067 25.4646 83.0591 C 25.5135 82.8115 25.5625 83.7432 25.6115 83.4974 C 25.6604 83.2516 25.7094 84.1929 25.7584 83.949 C 25.8073 83.7051 25.8563 84.6544 25.9053 84.4125 C 25.9542 84.1706 26.0032 85.1263 26.0522 84.8865 C 26.1012 84.6467 26.1501 85.6071 26.1991 85.3695 C 26.2481 85.132 26.297 86.0956 26.346 85.8603 C 26.395 85.625 26.4439 86.5905 26.4929 86.3576 C 26.5419 86.1247 26.5908 87.0904 26.6398 86.86 C 26.6888 86.6296 26.7377 87.5942 26.7867 87.3664 C 26.8357 87.1385 26.8847 88.1008 26.9336 87.8756 C 26.9826 87.6505 27.0316 88.6091 27.0805 88.3867 C 27.1295 88.1643 27.1785 89.1181 27.2274 88.8985 C 27.2764 88.6789 27.3254 89.6268 27.3743 89.4101 C 27.4233 89.1935 27.4723 90.1344 27.5212 89.9207 C 27.5702 89.7071 27.6192 90.64 27.6682 90.4295 C 27.7171 90.2189 27.7661 91.1429 27.8151 90.9356 C 27.864 90.7282 27.913 91.6424 27.962 91.4384 C 28.0109 91.2343 28.0599 92.1379 28.1089 91.9372 C 28.1578 91.7365 28.2068 92.6288 28.2558 92.4315 C 28.3047 92.2343 28.3537 93.1146 28.4027 92.9208 C 28.4517 92.7271 28.5006 93.5947 28.5496 93.4046 C 28.5986 93.2145 28.6475 94.0689 28.6965 93.8825 C 28.7455 93.696 28.7944 94.5367 28.8434 94.354 C 28.8924 94.1713 28.9413 94.9979 28.9903 94.819 C 29.0393 94.6401 29.0882 95.4521 29.1372 95.2771 C 29.1862 95.102 29.2352 95.8991 29.2841 95.728 C 29.3331 95.5569 29.3821 96.3386 29.431 96.1716 C 29.48 96.0046 29.529 96.7707 29.5779 96.6077 C 29.6269 96.4448 29.6759 97.195 29.7248 97.0363 C 29.7738 96.8775 29.8228 97.6116 29.8717 97.457 C 29.9207 97.3025 29.9697 98.0202 30.0187 97.87 C 30.0676 97.7197 30.1166 98.421 30.1656 98.2751 C 30.2145 98.1292 30.2635 98.8138 30.3125 98.6723 C 30.3614 98.5308 30.4104 99.1987 30.4594 99.0616 C 30.5083 98.9246 30.5573 99.5756 30.6063 99.4431 C 30.6552 99.3106 30.7042 99.9446 30.7532 99.8167 C 30.8022 99.6887 30.8511 100.306 30.9001 100.182 C 30.9491 100.059 30.998 100.659 31.047 100.54 C 31.096 100.422 31.1449 101.005 31.1939 100.891 C 31.2429 100.777 31.2918 101.343 31.3408 101.233 C 31.3898 101.124 31.4387 101.673 31.4877 101.569 C 31.5367 101.464 31.5857 101.996 31.6346 101.896 C 31.6836 101.797 31.7326 102.312 31.7815 102.217 C 31.8305 102.122 31.8795 102.62 31.9284 102.53 C 31.9774 102.441 32.0264 102.921 32.0753 102.836 C 32.1243 102.752 32.1733 103.215 32.2222 103.136 C 32.2712 103.056 32.3202 103.503 32.3691 103.428 C 32.4181 103.353 32.4671 103.783 32.5161 103.714 C 32.565 103.644 32.614 104.057 32.663 103.993 C 32.7119 103.928 32.7609 104.325 32.8099 104.265 C 32.8588 104.206 32.9078 104.586 32.9568 104.531 C 33.0057 104.477 33.0547 104.841 33.1037 104.792 C 33.1526 104.742 33.2016 105.089 33.2506 105.046 C 33.2996 105.002 33.3485 105.332 33.3975 105.294 C 33.4465 105.255 33.4954 105.569 33.5444 105.536 C 33.5934 105.502 33.6423 105.801 33.6913 105.773 C 33.7403 105.744 33.7892 106.027 33.8382 106.004 C 33.8872 105.981 33.9361 106.247 33.9851 106.229 C 34.0341 106.212 34.0831 106.462 34.132 106.45 C 34.181 106.437 34.23 106.672 34.2789 106.665 C 34.3279 106.658 34.3769 106.877 34.4258 106.875 C 34.4748 106.873 34.5238 107.078 34.5727 107.081 C 34.6217 107.084 34.6707 107.273 34.7196 107.281 C 34.7686 107.29 34.8176 107.464 34.8666 107.477 C 34.9155 107.491 34.9645 107.65 35.0135 107.669 C 35.0624 107.688 35.1114 107.831 35.1604 107.856 C 35.2093 107.88 35.2583 108.009 35.3073 108.038 C 35.3562 108.068 35.4052 108.182 35.4542 108.217 C 35.5031 108.252 35.5521 108.351 35.6011 108.391 C 35.6501 108.431 35.699 108.516 35.748 108.562 C 35.797 108.607 35.8459 108.678 35.8949 108.728 C 35.9439 108.778 35.9928 108.835 36.0418 108.891 C 36.0908 108.946 36.1397 108.989 36.1887 109.05 C 36.2377 109.11 36.2866 109.139 36.3356 109.205 C 36.3846 109.271 36.4336 109.286 36.4825 109.357 C 36.5315 109.428 36.5805 109.43 36.6294 109.505 C 36.6784 109.581 36.7274 109.57 36.7763 109.651 C 36.8253 109.731 36.8743 109.707 36.9232 109.792 C 36.9722 109.878 37.0212 109.84 37.0701 109.931 C 37.1191 110.022 37.1681 109.971 37.2171 110.067 C 37.266 110.163 37.315 110.099 37.364 110.2 C 37.4129 110.3 37.4619 110.224 37.5109 110.329 C 37.5598 110.435 37.6088 110.346 37.6578 110.456 C 37.7067 110.567 37.7557 110.465 37.8047 110.58 C 37.8536 110.696 37.9026 110.582 37.9516 110.702 C 38.0006 110.822 38.0495 110.696 38.0985 110.821 C 38.1475 110.945 38.1964 110.808 38.2454 110.937 C 38.2944 111.066 38.3433 110.917 38.3923 111.051 C 38.4413 111.185 38.4902 111.024 38.5392 111.162 C 38.5882 111.3 38.6371 111.129 38.6861 111.271 C 38.7351 111.414 38.784 111.231 38.833 111.378 C 38.882 111.525 38.931 111.331 38.9799 111.483 C 39.0289 111.634 39.0779 111.429 39.1268 111.585 C 39.1758 111.74 39.2248 111.525 39.2737 111.685 C 39.3227 111.845 39.3717 111.619 39.4206 111.783 C 39.4696 111.947 39.5186 111.711 39.5675 111.879 C 39.6165 112.047 39.6655 111.801 39.7145 111.973 C 39.7634 112.145 39.8124 111.889 39.8614 112.065 C 39.9103 112.241 39.9593 111.976 40.0083 112.156 C 40.0572 112.335 40.1062 112.06 40.1552 112.244 C 40.2041 112.428 40.2531 112.143 40.3021 112.331 C 40.351 112.518 40.4 112.225 40.449 112.416 C 40.498 112.607 40.5469 112.304 40.5959 112.499 C 40.6449 112.693 40.6938 112.382 40.7428 112.58 C 40.7918 112.778 40.8407 112.459 40.8897 112.66 C 40.9387 112.862 40.9876 112.534 41.0366 112.739 C 41.0856 112.943 41.1345 112.607 41.1835 112.816 C 41.2325 113.024 41.2815 112.68 41.3304 112.891 C 41.3794 113.102 41.4284 112.75 41.4773 112.965 C 41.5263 113.179 41.5753 112.82 41.6242 113.037 C 41.6732 113.255 41.7222 112.888 41.7711 113.108 C 41.8201 113.328 41.8691 112.955 41.918 113.178 C 41.967 113.401 42.016 113.02 42.065 113.246 C 42.1139 113.472 42.1629 113.085 42.2119 113.313 C 42.2608 113.542 42.3098 113.148 42.3588 113.379 C 42.4077 113.61 42.4567 113.21 42.5057 113.444 C 42.5546 113.677 42.6036 113.271 42.6526 113.507 C 42.7015 113.743 42.7505 113.331 42.7995 113.569 C 42.8485 113.807 42.8974 113.39 42.9464 113.63 C 42.9954 113.871 43.0443 113.448 43.0933 113.69 C 43.1423 113.933 43.1912 113.505 43.2402 113.749 C 43.2892 113.993 43.3381 113.561 43.3871 113.807 C 43.4361 114.053 43.485 113.616 43.534 113.864 C 43.583 114.112 43.632 113.67 43.6809 113.919 C 43.7299 114.169 43.7789 113.723 43.8278 113.974 C 43.8768 114.225 43.9258 113.775 43.9747 114.028 C 44.0237 114.28 44.0727 113.826 44.1216 114.08 C 44.1706 114.335 44.2196 113.877 44.2685 114.132 C 44.3175 114.388 44.3665 113.927 44.4154 114.183 C 44.4644 114.44 44.5134 113.975 44.5624 114.233 C 44.6113 114.491 44.6603 114.024 44.7093 114.282 C 44.7582 114.541 44.8072 114.071 44.8562 114.331 C 44.9051 114.59 44.9541 114.118 45.0031 114.378 C 45.052 114.638 45.101 114.164 45.15 114.425 C 45.1989 114.686 45.2479 114.209 45.2969 114.471 C 45.3459 114.732 45.3948 114.254 45.4438 114.516 C 45.4928 114.778 45.5417 114.298 45.5907 114.56 C 45.6397 114.822 45.6886 114.341 45.7376 114.603 C 45.7866 114.866 45.8355 114.384 45.8845 114.646 C 45.9335 114.909 45.9824 114.426 46.0314 114.688 C 46.0804 114.951 46.1294 114.467 46.1783 114.73 C 46.2273 114.992 46.2763 114.508 46.3252 114.77 C 46.3742 115.033 46.4232 114.548 46.4721 114.81 C 46.5211 115.073 46.5701 114.588 46.619 114.85 C 46.668 115.112 46.717 114.627 46.7659 114.889 C 46.8149 115.15 46.8639 114.666 46.9129 114.927 C 46.9618 115.187 47.0108 114.704 47.0598 114.964 C 47.1087 115.224 47.1577 114.742 47.2067 115.001 C 47.2556 115.26 47.3046 114.779 47.3536 115.037 C 47.4025 115.296 47.4515 114.816 47.5005 115.073 C 47.5494 115.33 47.5984 114.852 47.6474 115.108 C 47.6964 115.364 47.7453 114.888 47.7943 115.143 C 47.8433 115.398 47.8922 114.923 47.9412 115.177 C 47.9902 115.431 48.0391 114.958 48.0881 115.211 C 48.1371 115.463 48.186 114.993 48.235 115.244 C 48.284 115.494 48.3329 115.027 48.3819 115.276 C 48.4309 115.525 48.4799 115.061 48.5288 115.308 C 48.5778 115.555 48.6268 115.094 48.6757 115.339 C 48.7247 115.585 48.7737 115.127 48.8226 115.37 C 48.8716 115.614 48.9206 115.16 48.9695 115.401 C 49.0185 115.642 49.0675 115.192 49.1164 115.431 C 49.1654 115.67 49.2144 115.224 49.2634 115.461 C 49.3123 115.698 49.3613 115.255 49.4103 115.49 C 49.4592 115.725 49.5082 115.286 49.5572 115.519 C 49.6061 115.751 49.6551 115.317 49.7041 115.547 C 49.753 115.777 49.802 115.348 49.851 115.575 C 49.8999 115.802 49.9489 115.378 49.9979 115.602 C 50.0469 115.827 50.0958 115.408 50.1448 115.629 C 50.1938 115.851 50.2427 115.437 50.2917 115.656 C 50.3407 115.875 50.3896 115.466 50.4386 115.682 C 50.4876 115.898 50.5365 115.495 50.5855 115.708 C 50.6345 115.921 50.6834 115.524 50.7324 115.734 C 50.7814 115.944 50.8303 115.552 50.8793 115.759 C 50.9283 115.966 50.9773 115.581 51.0262 115.784 C 51.0752 115.987 51.1242 115.608 51.1731 115.808 C 51.2221 116.008 51.2711 115.636 51.32 115.832 C 51.369 116.029 51.418 115.663 51.4669 115.856 C 51.5159 116.049 51.5649 115.69 51.6138 115.88 C 51.6628 116.069 51.7118 115.717 51.7608 115.903 C 51.8097 116.088 51.8587 115.744 51.9077 115.925 C 51.9566 116.107 52.0056 115.77 52.0546 115.948 C 52.1035 116.126 52.1525 115.796 52.2015 115.97 C 52.2504 116.144 52.2994 115.822 52.3484 115.992 C 52.3973 116.162 52.4463 115.847 52.4953 116.013 C 52.5443 116.18 52.5932 115.873 52.6422 116.035 C 52.6912 116.197 52.7401 115.898 52.7891 116.056 C 52.8381 116.213 52.887 115.923 52.936 116.076 C 52.985 116.23 53.0339 115.948 53.0829 116.097 C 53.1319 116.246 53.1808 115.972 53.2298 116.117 C 53.2788 116.262 53.3278 115.996 53.3767 116.137 C 53.4257 116.277 53.4747 116.02 53.5236 116.156 C 53.5726 116.292 53.6216 116.044 53.6705 116.176 C 53.7195 116.307 53.7685 116.068 53.8174 116.195 C 53.8664 116.322 53.9154 116.091 53.9643 116.214 C 54.0133 116.336 54.0623 116.115 54.1113 116.232 C 54.1602 116.35 54.2092 116.138 54.2582 116.25 C 54.3071 116.363 54.3561 116.161 54.4051 116.269 C 54.454 116.377 54.503 116.183 54.552 116.286 C 54.6009 116.39 54.6499 116.206 54.6989 116.304 C 54.7478 116.402 54.7968 116.228 54.8458 116.321 C 54.8948 116.415 54.9437 116.25 54.9927 116.339 C 55.0417 116.427 55.0906 116.272 55.1396 116.356 C 55.1886 116.439 55.2375 116.294 55.2865 116.372 C 55.3355 116.451 55.3844 116.315 55.4334 116.389 C 55.4824 116.462 55.5313 116.337 55.5803 116.405 C 55.6293 116.474 55.6783 116.358 55.7272 116.421 C 55.7762 116.485 55.8252 116.379 55.8741 116.437 C 55.9231 116.495 55.9721 116.4 56.021 116.453 C 56.07 116.506 56.119 116.421 56.1679 116.468 C 56.2169 116.516 56.2659 116.441 56.3148 116.484 C 56.3638 116.527 56.4128 116.461 56.4618 116.499 C 56.5107 116.536 56.5597 116.482 56.6087 116.514 C 56.6576 116.546 56.7066 116.502 56.7556 116.529 C 56.8045 116.556 56.8535 116.521 56.9025 116.543 C 56.9514 116.565 57.0004 116.541 57.0494 116.558 C 57.0983 116.574 57.1473 116.561 57.1963 116.572 C 57.2452 116.583 57.2942 116.58 57.3432 116.586 C 57.3922 116.592 57.4411 116.599 57.4901 116.6 C 57.5391 116.601 57.588 116.618 57.637 116.614 C 57.686 116.609 57.7349 116.637 57.7839 116.627 C 57.8329 116.617 57.8818 116.656 57.9308 116.641 C 57.9798 116.626 58.0287 116.674 58.0777 116.654 C 58.1267 116.634 58.1757 116.692 58.2246 116.667 C 58.2736 116.641 58.3226 116.711 58.3715 116.68 C 58.4205 116.649 58.4695 116.729 58.5184 116.693 C 58.5674 116.657 58.6164 116.747 58.6653 116.705 C 58.7143 116.664 58.7633 116.764 58.8122 116.718 C 58.8612 116.671 58.9102 116.782 58.9592 116.73 C 59.0081 116.679 59.0571 116.799 59.1061 116.742 C 59.155 116.686 59.204 116.816 59.253 116.754 C 59.3019 116.693 59.3509 116.833 59.3999 116.766 C 59.4488 116.699 59.4978 116.85 59.5468 116.778 C 59.5957 116.706 59.6447 116.867 59.6937 116.79 C 59.7427 116.713 59.7916 116.883 59.8406 116.801 C 59.8896 116.719 59.9385 116.9 59.9875 116.813 C 60.0365 116.726 60.0854 116.916 60.1344 116.824 C 60.1834 116.732 60.2323 116.932 60.2813 116.835 C 60.3303 116.738 60.3792 116.948 60.4282 116.846 C 60.4772 116.744 60.5262 116.964 60.5751 116.857 C 60.6241 116.75 60.6731 116.979 60.722 116.868 C 60.771 116.756 60.82 116.995 60.8689 116.879 C 60.9179 116.762 60.9669 117.01 61.0158 116.889 C 61.0648 116.768 61.1138 117.025 61.1627 116.899 C 61.2117 116.774 61.2607 117.04 61.3097 116.91 C 61.3586 116.78 61.4076 117.055 61.4566 116.92 C 61.5055 116.785 61.5545 117.069 61.6035 116.93 C 61.6524 116.791 61.7014 117.084 61.7504 116.94 C 61.7993 116.796 61.8483 117.098 61.8973 116.95 C 61.9462 116.802 61.9952 117.112 62.0442 116.96 C 62.0932 116.807 62.1421 117.126 62.1911 116.969 C 62.2401 116.813 62.289 117.14 62.338 116.979 C 62.387 116.818 62.4359 117.153 62.4849 116.988 C 62.5339 116.823 62.5828 117.167 62.6318 116.998 C 62.6808 116.829 62.7297 117.18 62.7787 117.007 C 62.8277 116.834 62.8767 117.193 62.9256 117.016 C 62.9746 116.839 63.0236 117.206 63.0725 117.025 C 63.1215 116.844 63.1705 117.219 63.2194 117.034 C 63.2684 116.85 63.3174 117.231 63.3663 117.043 C 63.4153 116.855 63.4643 117.244 63.5132 117.052 C 63.5622 116.86 63.6112 117.256 63.6601 117.06 C 63.7091 116.865 63.7581 117.268 63.8071 117.069 C 63.856 116.87 63.905 117.28 63.954 117.078 C 64.0029 116.875 64.0519 117.292 64.1009 117.086 C 64.1498 116.88 64.1988 117.303 64.2478 117.094 C 64.2967 116.886 64.3457 117.315 64.3947 117.103 C 64.4436 116.891 64.4926 117.326 64.5416 117.111 C 64.5906 116.896 64.6395 117.337 64.6885 117.119 C 64.7375 116.901 64.7864 117.348 64.8354 117.127 C 64.8844 116.906 64.9333 117.359 64.9823 117.135 C 65.0313 116.911 65.0802 117.369 65.1292 117.143 C 65.1782 116.916 65.2271 117.379 65.2761 117.15 C 65.3251 116.921 65.3741 117.39 65.423 117.158 C 65.472 116.926 65.521 117.4 65.5699 117.166 C 65.6189 116.932 65.6679 117.41 65.7168 117.173 C 65.7658 116.937 65.8148 117.419 65.8637 117.181 C 65.9127 116.942 65.9617 117.429 66.0106 117.188 C 66.0596 116.947 66.1086 117.438 66.1576 117.195 C 66.2065 116.953 66.2555 117.447 66.3045 117.203 C 66.3534 116.958 66.4024 117.456 66.4514 117.21 C 66.5003 116.963 66.5493 117.465 66.5983 117.217 C 66.6472 116.969 66.6962 117.474 66.7452 117.224 C 66.7941 116.974 66.8431 117.483 66.8921 117.231 C 66.9411 116.979 66.99 117.491 67.039 117.238 C 67.088 116.985 67.1369 117.499 67.1859 117.245 C 67.2349 116.99 67.2838 117.507 67.3328 117.251 C 67.3818 116.996 67.4307 117.515 67.4797 117.258 C 67.5287 117.001 67.5776 117.523 67.6266 117.265 C 67.6756 117.007 67.7246 117.53 67.7735 117.271 C 67.8225 117.013 67.8715 117.538 67.9204 117.278 C 67.9694 117.018 68.0184 117.545 68.0673 117.284 C 68.1163 117.024 68.1653 117.552 68.2142 117.291 C 68.2632 117.03 68.3122 117.559 68.3611 117.297 C 68.4101 117.035 68.4591 117.565 68.5081 117.303 C 68.557 117.041 68.606 117.572 68.655 117.31 C 68.7039 117.047 68.7529 117.578 68.8019 117.316 C 68.8508 117.053 68.8998 117.585 68.9488 117.322 C 68.9977 117.059 69.0467 117.591 69.0957 117.328 C 69.1446 117.065 69.1936 117.596 69.2426 117.334 C 69.2915 117.071 69.3405 117.602 69.3895 117.34 C 69.4385 117.077 69.4874 117.608 69.5364 117.346 C 69.5854 117.084 69.6343 117.613 69.6833 117.352 C 69.7323 117.09 69.7812 117.618 69.8302 117.357 C 69.8792 117.096 69.9281 117.624 69.9771 117.363 C 70.0261 117.103 70.075 117.628 70.124 117.369 C 70.173 117.109 70.222 117.633 70.2709 117.374 C 70.3199 117.115 70.3689 117.638 70.4178 117.38 C 70.4668 117.122 70.5158 117.642 70.5647 117.385 C 70.6137 117.128 70.6627 117.647 70.7116 117.391 C 70.7606 117.135 70.8096 117.651 70.8585 117.396 C 70.9075 117.142 70.9565 117.655 71.0055 117.402 C 71.0544 117.148 71.1034 117.659 71.1524 117.407 C 71.2013 117.155 71.2503 117.662 71.2993 117.412 C 71.3482 117.162 71.3972 117.666 71.4462 117.417 C 71.4951 117.169 71.5441 117.669 71.5931 117.423 C 71.642 117.176 71.691 117.673 71.74 117.428 C 71.789 117.183 71.8379 117.676 71.8869 117.433 C 71.9359 117.19 71.9848 117.679 72.0338 117.438 C 72.0828 117.197 72.1317 117.682 72.1807 117.443 C 72.2297 117.204 72.2786 117.684 72.3276 117.448 C 72.3766 117.211 72.4255 117.687 72.4745 117.453 C 72.5235 117.219 72.5725 117.689 72.6214 117.458 C 72.6704 117.226 72.7194 117.692 72.7683 117.463 C 72.8173 117.233 72.8663 117.694 72.9152 117.467 C 72.9642 117.241 73.0132 117.696 73.0621 117.472 C 73.1111 117.248 73.1601 117.698 73.209 117.477 C 73.258 117.256 73.307 117.7 73.356 117.482 C 73.4049 117.263 73.4539 117.701 73.5029 117.486 C 73.5518 117.271 73.6008 117.703 73.6498 117.491 C 73.6987 117.279 73.7477 117.704 73.7967 117.495 C 73.8456 117.286 73.8946 117.706 73.9436 117.5 C 73.9925 117.294 74.0415 117.707 74.0905 117.504 C 74.1395 117.302 74.1884 117.708 74.2374 117.509 C 74.2864 117.31 74.3353 117.709 74.3843 117.513 C 74.4333 117.318 74.4822 117.71 74.5312 117.518 C 74.5802 117.325 74.6291 117.71 74.6781 117.522 C 74.7271 117.333 74.776 117.711 74.825 117.526 C 74.874 117.341 74.923 117.711 74.9719 117.53 C 75.0209 117.349 75.0699 117.712 75.1188 117.535 C 75.1678 117.358 75.2168 117.712 75.2657 117.539 C 75.3147 117.366 75.3637 117.712 75.4126 117.543 C 75.4616 117.374 75.5106 117.712 75.5595 117.547 C 75.6085 117.382 75.6575 117.712 75.7064 117.551 C 75.7554 117.39 75.8044 117.712 75.8534 117.555 C 75.9023 117.398 75.9513 117.712 76.0003 117.559 C 76.0492 117.407 76.0982 117.712 76.1472 117.563 C 76.1961 117.415 76.2451 117.711 76.2941 117.567 C 76.343 117.423 76.392 117.711 76.441 117.571 C 76.4899 117.432 76.5389 117.71 76.5879 117.575 C 76.6369 117.44 76.6858 117.709 76.7348 117.579 C 76.7838 117.449 76.8327 117.709 76.8817 117.583 C 76.9307 117.457 76.9796 117.708 77.0286 117.587 C 77.0776 117.465 77.1265 117.707 77.1755 117.59 C 77.2245 117.474 77.2734 117.706 77.3224 117.594 C 77.3714 117.482 77.4204 117.705 77.4693 117.598 C 77.5183 117.491 77.5673 117.704 77.6162 117.601 C 77.6652 117.499 77.7142 117.702 77.7631 117.605 C 77.8121 117.508 77.8611 117.701 77.91 117.609 C 77.959 117.516 78.008 117.7 78.0569 117.612 C 78.1059 117.525 78.1549 117.698 78.2039 117.616 C 78.2528 117.534 78.3018 117.697 78.3508 117.619 C 78.3997 117.542 78.4487 117.695 78.4977 117.623 C 78.5466 117.551 78.5956 117.694 78.6446 117.626 C 78.6935 117.559 78.7425 117.692 78.7915 117.63 C 78.8404 117.568 78.8894 117.69 78.9384 117.633 C 78.9874 117.576 79.0363 117.689 79.0853 117.637 C 79.1343 117.585 79.1832 117.687 79.2322 117.64 C 79.2812 117.594 79.3301 117.685 79.3791 117.644 C 79.4281 117.602 79.477 117.683 79.526 117.647 C 79.575 117.611 79.6239 117.681 79.6729 117.65 C 79.7219 117.619 79.7709 117.679 79.8198 117.653 C 79.8688 117.628 79.9178 117.677 79.9667 117.657 C 80.0157 117.636 80.0647 117.675 80.1136 117.66 C 80.1626 117.645 80.2116 117.673 80.2605 117.663 C 80.3095 117.653 80.3585 117.671 80.4074 117.666 C 80.4564 117.662 80.5054 117.669 80.5544 117.67 C 80.6033 117.67 80.6523 117.667 80.7013 117.673 C 80.7502 117.678 80.7992 117.665 80.8482 117.676 C 80.8971 117.687 80.9461 117.663 80.9951 117.679 C 81.044 117.695 81.093 117.66 81.142 117.682 C 81.1909 117.703 81.2399 117.658 81.2889 117.685 C 81.3379 117.712 81.3868 117.656 81.4358 117.688 C 81.4848 117.72 81.5337 117.654 81.5827 117.691 C 81.6317 117.728 81.6806 117.652 81.7296 117.694 C 81.7786 117.736 81.8275 117.649 81.8765 117.697 C 81.9255 117.744 81.9744 117.647 82.0234 117.7 C 82.0724 117.753 82.1213 117.645 82.1703 117.703 C 82.2193 117.761 82.2683 117.643 82.3172 117.706 C 82.3662 117.769 82.4152 117.64 82.4641 117.709 C 82.5131 117.777 82.5621 117.638 82.611 117.711 C 82.66 117.785 82.709 117.636 82.7579 117.714 C 82.8069 117.792 82.8559 117.634 82.9048 117.717 C 82.9538 117.8 83.0028 117.632 83.0518 117.72 C 83.1007 117.808 83.1497 117.629 83.1987 117.723 C 83.2476 117.816 83.2966 117.627 83.3456 117.725 C 83.3945 117.823 83.4435 117.625 83.4925 117.728 C 83.5414 117.831 83.5904 117.623 83.6394 117.731 C 83.6883 117.839 83.7373 117.621 83.7863 117.733 C 83.8353 117.846 83.8842 117.619 83.9332 117.736 C 83.9822 117.853 84.0311 117.617 84.0801 117.739 C 84.1291 117.861 84.178 117.615 84.227 117.741 C 84.276 117.868 84.3249 117.613 84.3739 117.744 C 84.4229 117.875 84.4718 117.611 84.5208 117.747 C 84.5698 117.882 84.6188 117.609 84.6677 117.749 C 84.7167 117.889 84.7657 117.607 84.8146 117.752 C 84.8636 117.896 84.9126 117.605 84.9615 117.754 C 85.0105 117.903 85.0595 117.604 85.1084 117.757 C 85.1574 117.91 85.2064 117.602 85.2553 117.759 C 85.3043 117.917 85.3533 117.6 85.4023 117.762 C 85.4512 117.924 85.5002 117.598 85.5492 117.764 C 85.5981 117.93 85.6471 117.597 85.6961 117.767 C 85.745 117.937 85.794 117.595 85.843 117.769 C 85.8919 117.943 85.9409 117.594 85.9899 117.772 C 86.0388 117.949 86.0878 117.592 86.1368 117.774 C 86.1858 117.956 86.2347 117.591 86.2837 117.776 C 86.3327 117.962 86.3816 117.59 86.4306 117.779 C 86.4796 117.968 86.5285 117.588 86.5775 117.781 C 86.6265 117.974 86.6754 117.587 86.7244 117.784 C 86.7734 117.98 86.8223 117.586 86.8713 117.786 C 86.9203 117.986 86.9693 117.585 87.0182 117.788 C 87.0672 117.991 87.1162 117.584 87.1651 117.79 C 87.2141 117.997 87.2631 117.583 87.312 117.793 C 87.361 118.002 87.41 117.582 87.4589 117.795 C 87.5079 118.008 87.5569 117.581 87.6058 117.797 C 87.6548 118.013 87.7038 117.581 87.7528 117.799 C 87.8017 118.018 87.8507 117.58 87.8997 117.802 C 87.9486 118.023 87.9976 117.58 88.0466 117.804 C 88.0955 118.028 88.1445 117.579 88.1935 117.806 C 88.2424 118.033 88.2914 117.579 88.3404 117.808 C 88.3893 118.038 88.4383 117.578 88.4873 117.81 C 88.5362 118.043 88.5852 117.578 88.6342 117.813 C 88.6832 118.047 88.7321 117.578 88.7811 117.815 C 88.8301 118.052 88.879 117.578 88.928 117.817 C 88.977 118.056 89.0259 117.578 89.0749 117.819 C 89.1239 118.06 89.1728 117.578 89.2218 117.821 C 89.2708 118.064 89.3197 117.578 89.3687 117.823 C 89.4177 118.068 89.4667 117.578 89.5156 117.825 C 89.5646 118.072 89.6136 117.578 89.6625 117.827 C 89.7115 118.076 89.7605 117.579 89.8094 117.829 C 89.8584 118.08 89.9074 117.579 89.9563 117.831 C 90.0053 118.083 90.0543 117.58 90.1032 117.833 C 90.1522 118.087 90.2012 117.58 90.2502 117.835 C 90.2991 118.09 90.3481 117.581 90.3971 117.837 C 90.446 118.093 90.495 117.582 90.544 117.839 C 90.5929 118.096 90.6419 117.583 90.6909 117.841 C 90.7398 118.099 90.7888 117.584 90.8378 117.843 C 90.8867 118.102 90.9357 117.585 90.9847 117.845 C 91.0337 118.105 91.0826 117.586 91.1316 117.847 C 91.1806 118.108 91.2295 117.588 91.2785 117.849 C 91.3275 118.11 91.3764 117.589 91.4254 117.851 C 91.4744 118.113 91.5233 117.591 91.5723 117.853 C 91.6213 118.115 91.6702 117.592 91.7192 117.855 C 91.7682 118.117 91.8172 117.594 91.8661 117.856 C 91.9151 118.119 91.9641 117.596 92.013 117.858 C 92.062 118.121 92.111 117.597 92.1599 117.86 C 92.2089 118.123 92.2579 117.599 92.3068 117.862 C 92.3558 118.124 92.4048 117.601 92.4537 117.864 C 92.5027 118.126 92.5517 117.604 92.6007 117.866 C 92.6496 118.128 92.6986 117.606 92.7476 117.867 C 92.7965 118.129 92.8455 117.608 92.8945 117.869 C 92.9434 118.13 92.9924 117.611 93.0414 117.871 C 93.0903 118.131 93.1393 117.613 93.1883 117.873 C 93.2372 118.132 93.2862 117.616 93.3352 117.874 C 93.3842 118.133 93.4331 117.618 93.4821 117.876 C 93.5311 118.134 93.58 117.621 93.629 117.878 C 93.678 118.135 93.7269 117.624 93.7759 117.88 C 93.8249 118.135 93.8738 117.627 93.9228 117.881 C 93.9718 118.136 94.0207 117.63 94.0697 117.883 C 94.1187 118.136 94.1676 117.633 94.2166 117.885 C 94.2656 118.136 94.3146 117.637 94.3635 117.886 C 94.4125 118.136 94.4615 117.64 94.5104 117.888 C 94.5594 118.136 94.6084 117.643 94.6573 117.89 C 94.7063 118.136 94.7553 117.647 94.8042 117.891 C 94.8532 118.136 94.9022 117.65 94.9511 117.893 C 95.0001 118.135 95.0491 117.654 95.0981 117.895 C 95.147 118.135 95.196 117.658 95.245 117.896 C 95.2939 118.134 95.3429 117.662 95.3919 117.898 C 95.4408 118.134 95.4898 117.666 95.5388 117.899 C 95.5877 118.133 95.6367 117.67 95.6857 117.901 C 95.7346 118.132 95.7836 117.674 95.8326 117.903 C 95.8816 118.131 95.9305 117.678 95.9795 117.904 C 96.0285 118.13 96.0774 117.682 96.1264 117.906 C 96.1754 118.129 96.2243 117.687 96.2733 117.907"
       title="1/(x*x+1)"
       id="path5470" />
    <path
       style="fill:none;stroke:#000000;stroke-width:0.264583px;stroke-linecap:butt;stroke-linejoin:miter;stroke-opacity:1;marker-end:url(#TriangleStart-48-3)"
       d="m 115.19904,123.27211 0.44493,-55.839712"
       id="path4882-36-0" />
    <path
       style="fill:none;stroke:#000000;stroke-width:0.264583px;stroke-linecap:butt;stroke-linejoin:miter;stroke-opacity:1;marker-end:url(#TriangleStart-4-3-1)"
       d="m 107.20836,118.46726 80.80746,-0.44494"
       id="path4882-3-3-3" />
    <text
       xml:space="preserve"
       style="font-style:italic;font-size:4.9389px;line-height:1.25;font-family:'Times New Roman';-inkscape-font-specification:'Times New Roman, Italic';font-variant-ligatures:none;stroke-width:0.264583"
       x="110.22838"
       y="70.834595"
       id="text5041-9-6"><tspan
         sodipodi:role="line"
         id="tspan5039-3-3"
         style="font-style:normal;font-variant:normal;font-weight:normal;font-stretch:normal;font-size:4.9389px;font-family:Symbol;-inkscape-font-specification:'Symbol, Normal';font-variant-ligatures:none;font-variant-caps:normal;font-variant-numeric:normal;font-variant-east-asian:normal;stroke-width:0.264583"
         x="110.22838"
         y="70.834595">a</tspan></text>
    <text
       xml:space="preserve"
       style="font-style:italic;font-size:4.9389px;line-height:1.25;font-family:'Times New Roman';-inkscape-font-specification:'Times New Roman, Italic';font-variant-ligatures:none;stroke-width:0.264583"
       x="192.5419"
       y="119.77777"
       id="text5045-8-1"><tspan
         sodipodi:role="line"
         id="tspan5043-4-6"
         style="stroke-width:0.264583"
         x="192.5419"
         y="119.77777">t</tspan></text>
    <path
       style="fill:none;stroke:#000000;stroke-width:0.264583px;stroke-linecap:butt;stroke-linejoin:miter;stroke-opacity:1;marker-end:url(#TriangleStart-48-1)"
       d="m 21.932138,184.56859 0.444938,-55.83971"
       id="path4882-36-4" />
    <path
       style="fill:none;stroke:#000000;stroke-width:0.264583px;stroke-linecap:butt;stroke-linejoin:miter;stroke-opacity:1;marker-end:url(#TriangleStart-4-3-3)"
       d="M 13.941464,179.76374 94.748919,179.3188"
       id="path4882-3-3-5" />
    <text
       xml:space="preserve"
       style="font-style:italic;font-size:4.9389px;line-height:1.25;font-family:'Times New Roman';-inkscape-font-specification:'Times New Roman, Italic';font-variant-ligatures:none;stroke-width:0.264583"
       x="16.961485"
       y="132.13107"
       id="text5041-9-8"><tspan
         sodipodi:role="line"
         id="tspan5039-3-8"
         style="font-style:normal;font-variant:normal;font-weight:normal;font-stretch:normal;font-size:4.9389px;font-family:Symbol;-inkscape-font-specification:'Symbol, Normal';font-variant-ligatures:none;font-variant-caps:normal;font-variant-numeric:normal;font-variant-east-asian:normal;stroke-width:0.264583"
         x="16.961485"
         y="132.13107">a</tspan></text>
    <text
       xml:space="preserve"
       style="font-style:italic;font-size:4.9389px;line-height:1.25;font-family:'Times New Roman';-inkscape-font-specification:'Times New Roman, Italic';font-variant-ligatures:none;stroke-width:0.264583"
       x="99.274994"
       y="181.07426"
       id="text5045-8-3"><tspan
         sodipodi:role="line"
         id="tspan5043-4-9"
         style="stroke-width:0.264583"
         x="99.274994"
         y="181.07426">t</tspan></text>
    <path
       style="fill:none;stroke:#000000;stroke-width:0.264583px;stroke-linecap:butt;stroke-linejoin:miter;stroke-opacity:1;marker-end:url(#TriangleStart-48-1-9)"
       d="m 21.368297,244.79438 0.444938,-55.83971"
       id="path4882-36-4-0" />
    <path
       style="fill:none;stroke:#000000;stroke-width:0.264583px;stroke-linecap:butt;stroke-linejoin:miter;stroke-opacity:1;marker-end:url(#TriangleStart-4-3-3-9)"
       d="m 13.377623,239.98953 80.807455,-0.44494"
       id="path4882-3-3-5-6" />
    <text
       xml:space="preserve"
       style="font-style:italic;font-size:4.9389px;line-height:1.25;font-family:'Times New Roman';-inkscape-font-specification:'Times New Roman, Italic';font-variant-ligatures:none;stroke-width:0.264583"
       x="16.397644"
       y="192.35687"
       id="text5041-9-8-2"><tspan
         sodipodi:role="line"
         id="tspan5039-3-8-2"
         style="font-style:normal;font-variant:normal;font-weight:normal;font-stretch:normal;font-size:4.9389px;font-family:Symbol;-inkscape-font-specification:'Symbol, Normal';font-variant-ligatures:none;font-variant-caps:normal;font-variant-numeric:normal;font-variant-east-asian:normal;stroke-width:0.264583"
         x="16.397644"
         y="192.35687">a</tspan></text>
    <text
       xml:space="preserve"
       style="font-style:italic;font-size:4.9389px;line-height:1.25;font-family:'Times New Roman';-inkscape-font-specification:'Times New Roman, Italic';font-variant-ligatures:none;stroke-width:0.264583"
       x="98.711151"
       y="241.30006"
       id="text5045-8-3-3"><tspan
         sodipodi:role="line"
         id="tspan5043-4-9-9"
         style="stroke-width:0.264583"
         x="98.711151"
         y="241.30006">t</tspan></text>
    <path
       style="fill:none;stroke:#000000;stroke-width:0.264583px;stroke-linecap:butt;stroke-linejoin:miter;stroke-opacity:1;marker-end:url(#TriangleStart-48-3-5)"
       d="m 114.58402,184.7785 0.44493,-55.83971"
       id="path4882-36-0-8" />
    <path
       style="fill:none;stroke:#000000;stroke-width:0.264583px;stroke-linecap:butt;stroke-linejoin:miter;stroke-opacity:1;marker-end:url(#TriangleStart-4-3-1-0)"
       d="m 106.59334,179.97365 80.80747,-0.44494"
       id="path4882-3-3-3-4" />
    <text
       xml:space="preserve"
       style="font-style:italic;font-size:4.9389px;line-height:1.25;font-family:'Times New Roman';-inkscape-font-specification:'Times New Roman, Italic';font-variant-ligatures:none;stroke-width:0.264583"
       x="109.61337"
       y="132.34097"
       id="text5041-9-6-9"><tspan
         sodipodi:role="line"
         id="tspan5039-3-3-2"
         style="font-style:normal;font-variant:normal;font-weight:normal;font-stretch:normal;font-size:4.9389px;font-family:Symbol;-inkscape-font-specification:'Symbol, Normal';font-variant-ligatures:none;font-variant-caps:normal;font-variant-numeric:normal;font-variant-east-asian:normal;stroke-width:0.264583"
         x="109.61337"
         y="132.34097">a</tspan></text>
    <text
       xml:space="preserve"
       style="font-style:italic;font-size:4.9389px;line-height:1.25;font-family:'Times New Roman';-inkscape-font-specification:'Times New Roman, Italic';font-variant-ligatures:none;stroke-width:0.264583"
       x="191.92688"
       y="181.28416"
       id="text5045-8-1-4"><tspan
         sodipodi:role="line"
         id="tspan5043-4-6-0"
         style="stroke-width:0.264583"
         x="191.92688"
         y="181.28416">t</tspan></text>
    <text
       xml:space="preserve"
       style="font-style:italic;font-size:4.9389px;line-height:1.25;font-family:'Times New Roman';-inkscape-font-specification:'Times New Roman, Italic';font-variant-ligatures:none;stroke-width:0.264583"
       x="48.136654"
       y="90.924789"
       id="text6093"><tspan
         sodipodi:role="line"
         id="tspan6091"
         style="font-style:normal;font-variant:normal;font-weight:normal;font-stretch:normal;font-size:4.9389px;font-family:'Times New Roman';-inkscape-font-specification:'Times New Roman, Normal';font-variant-ligatures:none;font-variant-caps:normal;font-variant-numeric:normal;font-variant-east-asian:normal;stroke-width:0.264583"
         x="48.136654"
         y="90.924789">A</tspan></text>
    <text
       xml:space="preserve"
       style="font-style:italic;font-size:4.9389px;line-height:1.25;font-family:'Times New Roman';-inkscape-font-specification:'Times New Roman, Italic';font-variant-ligatures:none;stroke-width:0.264583"
       x="165.60219"
       y="92.282593"
       id="text6093-6"><tspan
         sodipodi:role="line"
         id="tspan6091-6"
         style="font-style:normal;font-variant:normal;font-weight:normal;font-stretch:normal;font-size:4.9389px;font-family:'Times New Roman';-inkscape-font-specification:'Times New Roman, Normal';font-variant-ligatures:none;font-variant-caps:normal;font-variant-numeric:normal;font-variant-east-asian:normal;stroke-width:0.264583"
         x="165.60219"
         y="92.282593">B</tspan></text>
    <text
       xml:space="preserve"
       style="font-style:italic;font-size:4.9389px;line-height:1.25;font-family:'Times New Roman';-inkscape-font-specification:'Times New Roman, Italic';font-variant-ligatures:none;stroke-width:0.264583"
       x="48.564068"
       y="156.4648"
       id="text6093-9"><tspan
         sodipodi:role="line"
         id="tspan6091-7"
         style="font-style:normal;font-variant:normal;font-weight:normal;font-stretch:normal;font-size:4.9389px;font-family:'Times New Roman';-inkscape-font-specification:'Times New Roman, Normal';font-variant-ligatures:none;font-variant-caps:normal;font-variant-numeric:normal;font-variant-east-asian:normal;stroke-width:0.264583"
         x="48.564068"
         y="156.4648">C</tspan></text>
    <text
       xml:space="preserve"
       style="font-style:italic;font-size:4.9389px;line-height:1.25;font-family:'Times New Roman';-inkscape-font-specification:'Times New Roman, Italic';font-variant-ligatures:none;stroke-width:0.264583"
       x="150.81512"
       y="158.03789"
       id="text6093-4"><tspan
         sodipodi:role="line"
         id="tspan6091-8"
         style="font-style:normal;font-variant:normal;font-weight:normal;font-stretch:normal;font-size:4.9389px;font-family:'Times New Roman';-inkscape-font-specification:'Times New Roman, Normal';font-variant-ligatures:none;font-variant-caps:normal;font-variant-numeric:normal;font-variant-east-asian:normal;stroke-width:0.264583"
         x="150.81512"
         y="158.03789">D</tspan></text>
    <text
       xml:space="preserve"
       style="font-style:italic;font-size:4.9389px;line-height:1.25;font-family:'Times New Roman';-inkscape-font-specification:'Times New Roman, Italic';font-variant-ligatures:none;stroke-width:0.264583"
       x="46.361736"
       y="209.63535"
       id="text6093-7"><tspan
         sodipodi:role="line"
         id="tspan6091-60"
         style="font-style:normal;font-variant:normal;font-weight:normal;font-stretch:normal;font-size:4.9389px;font-family:'Times New Roman';-inkscape-font-specification:'Times New Roman, Normal';font-variant-ligatures:none;font-variant-caps:normal;font-variant-numeric:normal;font-variant-east-asian:normal;stroke-width:0.264583"
         x="46.361736"
         y="209.63535">E</tspan></text>
    <path
       style="fill:none;stroke:#008000;stroke-width:0.465;stroke-linecap:butt;stroke-linejoin:miter;stroke-opacity:1;stroke-dasharray:none"
       d="m 21.394068,179.64724 c 0.314618,-1.25847 71.733049,-33.34957 71.733049,-33.34957"
       id="path6195" />
    <path
       style="fill:none;stroke:#008000;stroke-width:0.465;stroke-linecap:butt;stroke-linejoin:miter;stroke-dasharray:none;stroke-opacity:1"
       d="m 115.21556,146.5652 c 0.31462,1.25847 71.73305,33.34957 71.73305,33.34957"
       id="path6195-9" />
    <path
       style="fill:none;stroke:#008000;stroke-width:0.465;stroke-linecap:butt;stroke-linejoin:miter;stroke-opacity:1;stroke-dasharray:none"
       d="m 21.394068,214.25529 h 73.93538"
       id="path6306" />
  </g>
</svg>
