<?xml version="1.0" encoding="UTF-8" standalone="no"?>
<!-- Created with Inkscape (http://www.inkscape.org/) -->

<svg
   width="210mm"
   height="297mm"
   viewBox="0 0 210 297"
   version="1.1"
   id="svg8031"
   sodipodi:docname="oppgave_resonanskurve_v2.svg"
   inkscape:version="1.2.2 (732a01da63, 2022-12-09)"
   xmlns:inkscape="http://www.inkscape.org/namespaces/inkscape"
   xmlns:sodipodi="http://sodipodi.sourceforge.net/DTD/sodipodi-0.dtd"
   xmlns="http://www.w3.org/2000/svg"
   xmlns:svg="http://www.w3.org/2000/svg"
   xmlns:ns1="http://www.iki.fi/pav/software/textext/">
  <sodipodi:namedview
     id="namedview8033"
     pagecolor="#ffffff"
     bordercolor="#666666"
     borderopacity="1.0"
     inkscape:showpageshadow="2"
     inkscape:pageopacity="0.0"
     inkscape:pagecheckerboard="0"
     inkscape:deskcolor="#d1d1d1"
     inkscape:document-units="mm"
     showgrid="true"
     inkscape:zoom="2.3786088"
     inkscape:cx="171.10842"
     inkscape:cy="352.30678"
     inkscape:window-width="1920"
     inkscape:window-height="1017"
     inkscape:window-x="2728"
     inkscape:window-y="-8"
     inkscape:window-maximized="1"
     inkscape:current-layer="layer1">
    <inkscape:grid
       type="xygrid"
       id="grid8152" />
  </sodipodi:namedview>
  <defs
     id="defs8028">
    <marker
       style="overflow:visible"
       id="TriangleStart"
       refX="0"
       refY="0"
       orient="auto-start-reverse"
       inkscape:stockid="TriangleStart"
       markerWidth="5.3244081"
       markerHeight="6.155385"
       viewBox="0 0 5.3244081 6.1553851"
       inkscape:isstock="true"
       inkscape:collect="always"
       preserveAspectRatio="xMidYMid">
      <path
         transform="scale(0.5)"
         style="fill:context-stroke;fill-rule:evenodd;stroke:context-stroke;stroke-width:1pt"
         d="M 5.77,0 -2.88,5 V -5 Z"
         id="path135" />
    </marker>
    <marker
       style="overflow:visible"
       id="TriangleStart-7"
       refX="0"
       refY="0"
       orient="auto-start-reverse"
       inkscape:stockid="TriangleStart"
       markerWidth="5.3244081"
       markerHeight="6.155385"
       viewBox="0 0 5.3244081 6.1553851"
       inkscape:isstock="true"
       inkscape:collect="always"
       preserveAspectRatio="xMidYMid">
      <path
         transform="scale(0.5)"
         style="fill:context-stroke;fill-rule:evenodd;stroke:context-stroke;stroke-width:1pt"
         d="M 5.77,0 -2.88,5 V -5 Z"
         id="path135-1" />
    </marker>
  </defs>
  <g
     inkscape:label="Layer 1"
     inkscape:groupmode="layer"
     id="layer1">
    <path
       style="fill:none;stroke:#000000;stroke-width:0.665;stroke-linejoin:round;stroke-dasharray:none"
       d="m 19.884513,126.54565 c 0.124854,-0.0722 0.249825,-0.14552 0.374795,-0.21683 0.124971,-0.0713 0.249942,-0.14937 0.374797,-0.22164 0.124972,-0.0714 0.249942,-0.15323 0.374912,-0.2255 0.124971,-0.0714 0.249826,-0.15805 0.374797,-0.22936 0.124972,-0.0722 0.249942,-0.16383 0.374912,-0.23514 0.12497,-0.0713 0.249827,-0.16864 0.374796,-0.23995 0.124971,-0.0713 0.249942,-0.17346 0.374911,-0.24477 0.124857,-0.0714 0.249828,-0.17828 0.374798,-0.24959 0.124971,-0.0713 0.249941,-0.18503 0.374796,-0.25538 0.124971,-0.0714 0.249942,-0.18984 0.374913,-0.26115 0.124969,-0.0714 0.249826,-0.19563 0.374796,-0.26694 0.124971,-0.0713 0.249941,-0.2014 0.374911,-0.27176 0.124858,-0.0713 0.249829,-0.20815 0.374797,-0.27946 0.124971,-0.0704 0.249942,-0.21393 0.374798,-0.28429 0.12497,-0.0713 0.24994,-0.22068 0.37491,-0.29102 0.124973,-0.0714 0.249828,-0.22743 0.374798,-0.29778 0.12497,-0.0713 0.249941,-0.23513 0.374913,-0.30548 0.124855,-0.0704 0.249826,-0.24189 0.374796,-0.31223 0.124971,-0.0704 0.249941,-0.24863 0.374797,-0.31898 0.12497,-0.0704 0.24994,-0.2573 0.37491,-0.32765 0.124971,-0.0694 0.249829,-0.265 0.374799,-0.33439 0.124968,-0.0704 0.24994,-0.27368 0.374911,-0.34403 0.124857,-0.0694 0.249826,-0.2814 0.374796,-0.35174 0.124972,-0.0694 0.249942,-0.29104 0.374798,-0.36042 0.124969,-0.0694 0.249939,-0.30066 0.374912,-0.36909 0.124969,-0.0694 0.249826,-0.3103 0.374796,-0.37968 0.124969,-0.0694 0.249942,-0.31994 0.374911,-0.38933 0.124857,-0.0684 0.249827,-0.33054 0.374797,-0.39896 0.124971,-0.0684 0.249941,-0.34114 0.374798,-0.40955 0.124969,-0.0684 0.249939,-0.35271 0.374911,-0.42114 0.12497,-0.0684 0.249939,-0.36427 0.374797,-0.43172 0.124971,-0.0684 0.249941,-0.37679 0.374911,-0.44425 0.124971,-0.0684 0.249825,-0.38933 0.374798,-0.45678 0.124971,-0.0674 0.24994,-0.40186 0.374912,-0.46932 0.124854,-0.0674 0.249825,-0.41533 0.374796,-0.48279 0.12497,-0.0665 0.249939,-0.42883 0.374796,-0.49629 0.124972,-0.0665 0.249942,-0.44426 0.374911,-0.51075 0.124972,-0.0665 0.249828,-0.45968 0.374798,-0.52617 0.12497,-0.0665 0.24994,-0.47509 0.374912,-0.54159 0.124857,-0.0665 0.249825,-0.49243 0.374796,-0.55796 0.124971,-0.0655 0.249941,-0.50978 0.374798,-0.57531 0.12497,-0.0655 0.24994,-0.52713 0.374911,-0.59266 0.124971,-0.0655 0.249826,-0.54641 0.374796,-0.61193 0.124971,-0.0646 0.249943,-0.56567 0.374912,-0.63024 0.124857,-0.0646 0.249827,-0.58688 0.374797,-0.65145 0.12497,-0.0645 0.249941,-0.60807 0.374798,-0.67168 0.12497,-0.0645 0.24994,-0.63024 0.374911,-0.6948 0.12497,-0.0636 0.249827,-0.65337 0.374795,-0.71698 0.124972,-0.0636 0.249943,-0.67842 0.374912,-0.74106 0.124857,-0.0636 0.249827,-0.70445 0.374798,-0.76709 0.124971,-0.0627 0.249941,-0.73047 0.374797,-0.7931 0.12497,-0.0627 0.249942,-0.75841 0.374912,-0.82009 0.124969,-0.0627 0.249826,-0.78828 0.374795,-0.84995 0.124973,-0.0617 0.249942,-0.81816 0.374912,-0.87984 0.12497,-0.0607 0.249828,-0.84996 0.374798,-0.91067 0.12497,-0.0617 0.24994,-0.88407 0.374911,-0.94468 0.124856,-0.0605 0.249828,-0.918676 0.374798,-0.978906 0.12497,-0.06014 0.24994,-0.955289 0.374796,-1.015133 0.124971,-0.05975 0.249941,-0.993548 0.374912,-1.05291 0.124968,-0.05946 0.249826,-1.033539 0.374798,-1.092516 0.124969,-0.05897 0.249939,-1.075266 0.374909,-1.133858 0.124856,-0.05859 0.249829,-1.118728 0.374798,-1.176934 0.12497,-0.05821 0.24994,-1.164213 0.374797,-1.221937 0.12497,-0.05772 0.24994,-1.211433 0.374911,-1.268772 0.12497,-0.05734 0.249826,-1.260678 0.374798,-1.317534 0.12497,-0.05685 0.24994,-1.311656 0.374912,-1.368128 0.124853,-0.05647 0.249825,-1.364561 0.374797,-1.42055 0.124969,-0.05609 0.249939,-1.419201 0.374796,-1.474806 0.12497,-0.0555 0.249941,-1.475479 0.374911,-1.530601 0.12497,-0.05512 0.249827,-1.533204 0.374798,-1.587845 0.12497,-0.05464 0.249939,-1.592181 0.37491,-1.646436 0.124856,-0.05415 0.249827,-1.652024 0.374797,-1.705797 0.12497,-0.05367 0.249942,-1.712448 0.374798,-1.765642 0.124971,-0.05329 0.24994,-1.772869 0.374911,-1.825583 0.124972,-0.0528 0.249826,-1.832424 0.374798,-1.884752 0.12497,-0.05223 0.24994,-1.890534 0.374912,-1.942283 0.124854,-0.05185 0.249825,-1.946138 0.374795,-1.997406 0.124971,-0.05127 0.249941,-1.997983 0.374912,-2.048672 0.124857,-0.05078 0.249826,-2.044625 0.374796,-2.094833 0.124972,-0.0503 0.249941,-2.084232 0.374799,-2.134054 0.124969,-0.04973 0.249939,-2.11507 0.374911,-2.164314 0.12497,-0.04925 0.249825,-2.134922 0.374795,-2.183683 0.124972,-0.04866 0.249943,-2.141186 0.374912,-2.189369 0.124857,-0.04818 0.249828,-2.131356 0.374798,-2.179058 0.124971,-0.04761 0.24994,-2.102446 0.374797,-2.14957 0.124971,-0.04713 0.249942,-2.051949 0.374911,-2.098591 0.12497,-0.04655 0.249827,-1.976976 0.374797,-2.023039 0.12497,-0.04596 0.249941,-1.875212 0.37491,-1.920697 0.124859,-0.04548 0.249828,-1.745019 0.374798,-1.789926 0.124971,-0.04491 0.249942,-1.585147 0.374796,-1.629572 0.124973,-0.04433 0.249943,-1.395785 0.374913,-1.439535 0.124971,-0.04385 0.249827,-1.17809 0.374797,-1.22136 0.12497,-0.04317 0.249941,-0.93457 0.374911,-0.97726 0.124857,-0.04259 0.249828,-0.669368 0.374797,-0.71148 0.12497,-0.04201 0.249942,-0.38759 0.374797,-0.429124 0.124971,-0.04144 0.249941,-0.09569 0.374912,-0.136553 0.124971,-0.04096 0.249827,0.199577 0.374797,0.159296 0.124969,-0.04038 0.24994,0.490992 0.374912,0.451288 0.124856,-0.03971 0.249826,0.77171 0.374796,0.732584 0.124972,-0.03913 0.249942,1.035371 0.374798,0.99692 0.124969,-0.03854 0.249939,1.276964 0.374913,1.238994 0.124968,-0.03787 0.249825,1.492538 0.374795,1.455243 0.124969,-0.03729 0.249941,1.679587 0.374911,1.642871 0.124969,-0.03662 0.249827,1.837146 0.374796,1.801105 0.124972,-0.03614 0.249942,1.965026 0.374912,1.929563 0.124856,-0.03546 0.249825,2.064573 0.374798,2.029785 0.124969,-0.03489 0.24994,2.137523 0.374796,2.103313 0.124971,-0.03421 0.249942,2.186189 0.374912,2.152653 0.12497,-0.03364 0.249826,2.213364 0.374798,2.180407 0.12497,-0.03296 0.24994,2.221845 0.37491,2.189466 0.124856,-0.03229 0.249827,2.214328 0.374798,2.182622 0.124969,-0.0316 0.249939,2.193417 0.374796,2.162387 0.124972,-0.03103 0.249941,2.161712 0.374911,2.131259 0.124971,-0.03035 0.249827,2.121238 0.374798,2.091557 0.124971,-0.02977 0.24994,2.073921 0.374912,2.044914 0.124855,-0.0291 0.249825,2.02169 0.374796,1.993262 0.12497,-0.02843 0.249941,1.9657 0.374798,1.937947 0.12497,-0.02775 0.24994,1.907301 0.374911,1.880222 0.12497,-0.02708 0.249827,1.847362 0.374797,1.820957 0.124971,-0.0264 0.24994,1.786843 0.374911,1.761113 0.124857,-0.02573 0.249826,1.726324 0.374796,1.701172 0.124971,-0.02505 0.249942,1.666288 0.374799,1.641907 0.124969,-0.02448 0.24994,1.607118 0.374911,1.583411 0.12497,-0.0237 0.249825,1.549297 0.374795,1.526266 0.124972,-0.02313 0.249944,1.492922 0.374913,1.470469 0.124856,-0.02236 0.249826,1.438185 0.374797,1.416503 0.124971,-0.02168 0.24994,1.385184 0.37491,1.364175 0.124857,-0.02101 0.249829,1.334013 0.374798,1.31368 0.12497,-0.02033 0.249941,1.284769 0.374796,1.26511 0.124971,-0.01956 0.249943,1.237356 0.374912,1.218469 0.124971,-0.01898 0.249826,1.191774 0.374797,1.17356 0.124971,-0.01831 0.249941,1.148121 0.374911,1.130583 0.124857,-0.01764 0.249829,1.106296 0.374798,1.089335 0.12497,-0.01686 0.24994,1.066208 0.374796,1.050018 0.124972,-0.01619 0.249942,1.027758 0.374912,1.012339 0.12497,-0.01551 0.249827,0.990944 0.374798,0.976204 0.124969,-0.0149 0.24994,0.95557 0.37491,0.94208 0.124857,-0.0145 0.249828,0.92223 0.374798,0.90874 0.12497,-0.0135 0.24994,0.88948 0.374796,0.87695 0.124971,-0.0125 0.249941,0.85959 0.374912,0.84707 0.124972,-0.0115 0.249826,0.82972 0.374798,0.81816 0.124969,-0.0106 0.24994,0.80177 0.374909,0.79117 0.124857,-0.0106 0.249829,0.7748 0.3748,0.76516 0.124968,-0.01 0.249938,0.74877 0.374796,0.73914 0.12497,-0.009 0.249941,0.72371 0.37491,0.716 0.12497,-0.009 0.249828,0.69963 0.374799,0.69192 0.124969,-0.008 0.249939,0.67747 0.374911,0.67071 0.124856,-0.007 0.249826,0.65531 0.374797,0.64952 0.12497,-0.007 0.249941,0.63506 0.374796,0.62928 0.12497,-0.006 0.249941,0.61483 0.374912,0.61001 0.124971,-0.005 0.249826,0.59555 0.374798,0.5917 0.12497,-0.005 0.24994,0.57724 0.374911,0.57337 0.12497,-0.003 0.249827,0.5599 0.374797,0.55701 0.12497,-0.003 0.249941,0.54255 0.374911,0.54062 0.124857,-0.002 0.249825,0.52617 0.374796,0.52424 0.124972,-9.7e-4 0.249941,0.51075 0.374798,0.50978 0.12497,0 0.24994,0.49533 0.374912,0.49533 0.12497,9.6e-4 0.249825,0.48087 0.374795,0.48184 0.124972,9.6e-4 0.249943,0.46641 0.374912,0.46835 0.124857,0.002 0.249827,0.45292 0.374798,0.45581 0.12497,0.002 0.24994,0.43944 0.374797,0.44329 0.124971,0.003 0.249941,0.42691 0.374911,0.43076 0.12497,0.004 0.249826,0.41534 0.374796,0.42016 0.124971,0.005 0.249943,0.40378 0.374912,0.4086 0.124856,0.006 0.249827,0.39318 0.374797,0.39896 0.124971,0.006 0.249941,0.38162 0.374797,0.38836 0.124971,0.007 0.249942,0.37101 0.374912,0.37776 0.124969,0.008 0.249826,0.36138 0.374797,0.36909 0.12497,0.009 0.24994,0.35174 0.37491,0.36042 0.124858,0.009 0.249829,0.34113 0.374797,0.35077 0.124971,0.01 0.249943,0.33247 0.374799,0.34306 0.12497,0.01 0.24994,0.32284 0.37491,0.3344 0.124972,0.0106 0.249827,0.31512 0.374797,0.32668 0.12497,0.0115 0.249941,0.30645 0.374913,0.31802 0.124855,0.0125 0.249826,0.29873 0.374796,0.31222 0.124971,0.0125 0.249941,0.29007 0.374911,0.30453 0.124857,0.0135 0.249827,0.28235 0.374799,0.29681 0.124969,0.0145 0.249939,0.27561 0.374796,0.29103 0.124968,0.0155 0.249941,0.26887 0.374911,0.28428 0.124969,0.0155 0.249827,0.26116 0.374796,0.27754 0.124972,0.0173 0.249942,0.25537 0.374912,0.27272 0.124856,0.0173 0.249826,0.24767 0.374799,0.26598 0.124969,0.0173 0.249939,0.24188 0.374795,0.26019 0.124969,0.0183 0.249942,0.2361 0.374912,0.25537 0.124969,0.0193 0.249826,0.22936 0.374798,0.24959 0.12497,0.0193 0.249939,0.22358 0.374909,0.24381 0.124856,0.0212 0.249829,0.21875 0.374799,0.23995 0.12497,0.0212 0.24994,0.21201 0.374796,0.23417 0.12497,0.0222 0.249941,0.2072 0.374911,0.22936 0.124971,0.0232 0.249826,0.20237 0.374798,0.2255 0.124971,0.0232 0.24994,0.19659 0.374912,0.22068 0.124854,0.0241 0.249825,0.19177 0.374797,0.21683 0.12497,0.024 0.249939,0.18695 0.374797,0.21201 0.12497,0.025 0.24994,0.18214 0.374909,0.20815 0.124972,0.026 0.249829,0.17732 0.374799,0.2043 0.12497,0.027 0.24994,0.1725 0.374911,0.20045 0.124857,0.027 0.249825,0.16767 0.374796,0.19658 0.124971,0.028 0.249942,0.16382 0.374798,0.19274 0.12497,0.028 0.24994,0.15997 0.374911,0.18887 0.124971,0.0299 0.24994,0.15612 0.374797,0.18599 0.124971,0.0299 0.249942,0.15227 0.374911,0.18214 0.12497,0.0308 0.249826,0.14841 0.374798,0.17924 0.12497,0.0318 0.24994,0.14456 0.374909,0.17635 0.124858,0.0318 0.249829,0.14071 0.374799,0.1725 0.12497,0.0327 0.249941,0.13685 0.374796,0.17057 0.124972,0.0327 0.249943,0.13299 0.374912,0.16672 0.124971,0.0337 0.249826,0.12913 0.374797,0.16383 0.124971,0.0347 0.249941,0.12623 0.37491,0.16189 0.124857,0.0347 0.249828,0.12239 0.374802,0.15805 0.124965,0.0357 0.24994,0.11949 0.374797,0.1561 0.124965,0.0367 0.24994,0.11565 0.374905,0.15323 0.124974,0.0367 0.249832,0.11275 0.374797,0.15034 0.124974,0.0375 0.249949,0.10985 0.374914,0.14841 0.124857,0.0385 0.249832,0.10695 0.374794,0.14551 0.12498,0.0395 0.24995,0.10407 0.3748,0.14358 0.12496,0.0395 0.24994,0.10119 0.3749,0.14167 0.12498,0.0395 0.24984,0.0983 0.37481,0.13876 0.12497,0.0405 0.24994,0.0954 0.3749,0.13684 0.12486,0.0415 0.24984,0.0925 0.37481,0.13492 0.12497,0.0415 0.24994,0.0896 0.3748,0.13202 0.12496,0.0424 0.24994,0.0877 0.37491,0.13106 0.12497,0.0424 0.24982,0.0849 0.3748,0.12817 0.12496,0.0434 0.24994,0.0819 0.37491,0.12625 0.12485,0.0443 0.24982,0.08 0.37479,0.12431 0.12497,0.0453 0.24994,0.078 0.37491,0.12335 0.12486,0.0453 0.24983,0.0752 0.3748,0.12046 0.12497,0.0462 0.24994,0.0732 0.3748,0.11949 0.12497,0.0462 0.24994,0.0704 0.37491,0.11757 0.12497,0.0462 0.24983,0.0675 0.3748,0.11564 0.12496,0.0472 0.24994,0.0655 0.37491,0.11372 0.12485,0.0482 0.24982,0.0636 0.37479,0.11274 0.12498,0.0482 0.24994,0.0617 0.3748,0.10986 0.12497,0.0492 0.24994,0.0597 0.37491,0.10986 0.12497,0.0492 0.24983,0.0579 0.3748,0.10697 0.12496,0.0501 0.24994,0.0559 0.3749,0.10696 0.12487,0.0501 0.24984,0.053 0.37481,0.10408 0.12496,0.0511 0.24994,0.052 0.37479,0.10312 0.12497,0.052 0.24994,0.0501 0.37491,0.10215 0.12497,0.052 0.24983,0.0482 0.3748,0.10021 0.12497,0.053 0.24995,0.0462 0.37435,0.0993 0.12541,0.053 0.25084,0.0444 0.37513,0.0974 0.12542,0.054 0.24972,0.0424 0.37514,0.0964 0.12544,0.054 0.2497,0.0414 0.37514,0.0954 0.12429,0.0549 0.24972,0.0395 0.37399,0.0944 0.12542,0.0549 0.25085,0.0367 0.37515,0.0925 0.12542,0.0549 0.2497,0.0357 0.37513,0.0916 0.1243,0.0559 0.24972,0.0337 0.37514,0.0896 0.12428,0.0569 0.24971,0.0327 0.37399,0.0896 0.12543,0.0569 0.25087,0.0308 0.37515,0.0877 0.12543,0.0569 0.24971,0.0299 0.37514,0.0867 0.12428,0.0579 0.24972,0.028 0.37515,0.0857 0.12429,0.0579 0.2497,0.027 0.37398,0.0849 0.12544,0.0588 0.25087,0.025 0.37514,0.0839 0.12542,0.0588 0.24971,0.0232 0.37515,0.0829 0.12429,0.0588 0.24971,0.0222 0.37514,0.0809 0.12429,0.0597 0.24971,0.0212 0.37399,0.0809 0.12545,0.0597 0.24972,0.0193 0.37515,0.08 0.12542,0.0597 0.2497,0.0173 0.37513,0.0781 0.1243,0.0607 0.24972,0.0164 0.37515,0.0781 0.12427,0.0607 0.24972,0.0154 0.374,0.0771 0.12543,0.0607 0.2497,0.0135 0.37513,0.0752 0.12541,0.0617 0.24971,0.0125 0.37514,0.0752 0.1243,0.0627 0.24971,0.0115 0.37513,0.0742 0.12429,0.0627 0.24973,0.0106 0.37401,0.0732 0.12542,0.0627 0.2497,0.009 0.37514,0.0722 0.12544,0.0636 0.24971,0.008 0.37514,0.0713 0.12429,0.0636 0.24971,0.007 0.37399,0.0714 0.12543,0.0636 0.25086,0.006 0.37516,0.0694 0.12541,0.0646 0.2497,0.005 0.37512,0.0694 0.12543,0.0645 0.24972,0.004 0.37514,0.0684 0.12428,0.0645 0.24971,0.002 0.37401,0.0674 0.12543,0.0655 0.25085,9.7e-4 0.37513,0.0665 0.12543,0.0655 0.24971,9.6e-4 0.37516,0.0665 0.12426,0.0655 0.2497,-9.7e-4 0.37511,0.0655 0.1243,0.0655 0.24972,-0.002 0.37401,0.0645 0.12542,0.0665 0.25085,-0.003 0.37514,0.0636 0.12543,0.0665 0.24971,-0.004 0.37514,0.0636 0.12429,0.0665 0.24971,-0.005 0.37513,0.0627 0.12428,0.0665 0.24973,-0.006 0.37402,0.0617 0.12542,0.0674 0.25084,-0.007 0.37512,0.0607 0.12542,0.0674 0.24973,-0.007 0.37515,0.0607 0.12427,0.0674 0.2497,-0.008 0.37513,0.0597 0.12429,0.0684 0.24972,-0.009 0.374,0.0597 0.12543,0.0684 0.24972,-0.01 0.37514,0.0588 0.12543,0.0684 0.24973,-0.0106 0.37514,0.0579 0.12429,0.0684 0.24971,-0.0115 0.37514,0.0579 0.12428,0.0684 0.2497,-0.0125 0.37399,0.0569 0.12544,0.0684 0.24972,-0.0135 0.37514,0.0559 0.12544,0.0694 0.24973,-0.0135 0.37515,0.0559 0.12428,0.0694 0.24971,-0.0145 0.37514,0.0549 0.12429,0.0694 0.24971,-0.0154 0.374,0.0549 0.12541,0.0694 0.24971,-0.0164 0.37513,0.054 0.12544,0.0694 0.24972,-0.0164 0.37514,0.053 0.12429,0.0704 0.24972,-0.0173 0.374,0.053 0.12542,0.0704 0.25086,-0.0174 0.37514,0.053 0.12543,0.0704 0.2497,-0.0193 0.37515,0.052 0.12541,0.0704 0.24971,-0.0193 0.37513,0.0511 0.12428,0.0704 0.24971,-0.0202 0.37399,0.0511 0.12545,0.0704 0.25087,-0.0202 0.37514,0.0502 0.12542,0.0704 0.24973,-0.0212 0.37515,0.0501 0.12428,0.0704 0.2497,-0.0212 0.37513,0.0492 0.1243,0.0713 0.24972,-0.0222 0.374,0.0492 0.12543,0.0713 0.25085,-0.0232 0.37513,0.0482 0.12546,0.0713 0.24972,-0.0232 0.37515,0.0482 0.12429,0.0714 0.24972,-0.0232 0.37514,0.0482 0.12429,0.0713 0.24972,-0.025 0.37401,0.0462 0.12542,0.0714 0.25084,-0.024 0.37513,0.0472 0.12544,0.0714 0.24972,-0.025 0.37513,0.0462 0.1243,0.0714 0.24971,-0.026 0.37516,0.0462 0.12428,0.0713 0.24971,-0.027 0.374,0.0453 0.12542,0.0713 0.24969,-0.027 0.37514,0.0443 0.12542,0.0722 0.2497,-0.027 0.37514,0.0452 0.12427,0.0714 0.2497,-0.0279 0.37512,0.0434 0.12431,0.0722 0.24972,-0.027 0.37401,0.0444 0.12541,0.0713 0.24969,-0.028 0.37515,0.0434 0.12542,0.0713 0.24969,-0.0289 0.37513,0.0434 0.12428,0.0713 0.24971,-0.0289 0.37513,0.0424 0.12429,0.0713 0.24971,-0.0299 0.37401,0.0424 0.12544,0.0714 0.24972,-0.0299 0.37514,0.0414 0.12541,0.0713 0.2497,-0.0299 0.37513,0.0414 0.12427,0.0713 0.24971,-0.0299 0.37402,0.0414 0.12541,0.0713 0.25083,-0.0308 0.37512,0.0405 0.12543,0.0713 0.24972,-0.0308 0.37515,0.0405 0.12542,0.0713 0.24971,-0.0308 0.37513,0.0395 0.12429,0.0713 0.24971,-0.0309 0.374,0.0405 0.12541,0.0704 0.25085,-0.0318 0.37513,0.0395 0.12544,0.0704 0.24972,-0.0328 0.37515,0.0385 0.12428,0.0713 0.24971,-0.0318 0.37514,0.0385 0.12428,0.0714 0.24972,-0.0318 0.374,0.0385 0.12542,0.0704 0.25085,-0.0328 0.37514,0.0375 0.12541,0.0714 0.24971,-0.0318 0.37513,0.0385 0.12429,0.0704 0.24972,-0.0337 0.37515,0.0366 0.12428,0.0704 0.24971,-0.0327 0.37398,0.0376 0.12543,0.0704 0.25085,-0.0337 0.37515,0.0367 0.12543,0.0704 0.24972,-0.0337 0.37514,0.0367 0.12429,0.0694 0.24972,-0.0337 0.37514,0.0366 0.12429,0.0694 0.2497,-0.0337 0.37399,0.0357 0.12544,0.0694 0.24973,-0.0337 0.37514,0.0357 0.12543,0.0694 0.24972,-0.0347 0.37514,0.0347 0.12429,0.0694 0.24973,-0.0337 0.37514,0.0357 0.1243,0.0684 0.24972,-0.0347 0.374,0.0347 0.12543,0.0684 0.24972,-0.0347 0.37514,0.0337 0.12543,0.0694 0.2497,-0.0337 0.37514,0.0347 0.1243,0.0684 0.24972,-0.0347 0.37514,0.0337 0.12428,0.0684 0.24971,-0.0347 0.374,0.0337 0.12544,0.0684 0.24971,-0.0347 0.37514,0.0337 0.12541,0.0675 0.24971,-0.0347 0.37514,0.0328 0.12429,0.0674 0.2497,-0.0347 0.374,0.0328 0.12543,0.0674 0.25086,-0.0347 0.37514,0.0327 0.12542,0.0665 0.24971,-0.0347 0.37513,0.0318 0.12543,0.0674 0.24972,-0.0337 0.37515,0.0328 0.12429,0.0665 0.24971,-0.0347 0.374,0.0318 0.12542,0.0655 0.25084,-0.0347 0.37514,0.0309 0.12543,0.0665 0.24969,-0.0337 0.37512,0.0318 0.1243,0.0655 0.24973,-0.0347 0.37515,0.0309 0.12428,0.0655 0.24971,-0.0337 0.374,0.0308 0.12544,0.0655 0.25086,-0.0337 0.37515,0.0308 0.12541,0.0646 0.2497,-0.0337 0.37512,0.0308 0.1243,0.0645 0.24971,-0.0347 0.37514,0.0299 0.12429,0.0645 0.24972,-0.0337 0.374,0.0299 0.12543,0.0636 0.25086,-0.0337 0.37515,0.0299 0.12542,0.0636 0.2497,-0.0337 0.37516,0.0289 0.12427,0.0636 0.24969,-0.0337 0.37511,0.0299 0.12429,0.0627 0.2497,-0.0337 0.37401,0.0289 0.12542,0.0627 0.24971,-0.0337 0.37514,0.0289 0.12542,0.0617 0.24971,-0.0337 0.37514,0.0289 0.12427,0.0617 0.2497,-0.0337 0.37514,0.0279 0.12427,0.0617 0.24971,-0.0327 0.374,0.028 0.12543,0.0617 0.24971,-0.0328 0.37513,0.028 0.12543,0.0607 0.24973,-0.0318 0.37515,0.0279 0.12427,0.0607 0.24971,-0.0318 0.37513,0.028 0.12428,0.0597 0.24971,-0.0318 0.374,0.027 0.12542,0.0597 0.24971,-0.0318 0.37513,0.028 0.12545,0.0588 0.24973,-0.0318 0.37515,0.027 0.12428,0.0587 0.24971,-0.0318 0.37399,0.026 0.12542,0.0588 0.25087,-0.0308 0.37516,0.027 0.12541,0.0579 0.24969,-0.0308 0.37512,0.027 0.12543,0.0569 0.24972,-0.0308 0.37515,0.026 0.12428,0.0569 0.24971,-0.0308 0.37399,0.026 0.12544,0.0569 0.25086,-0.0308 0.37514,0.026 0.12541,0.0559 0.24972,-0.0299 0.37514,0.025 0.12429,0.0559 0.24971,-0.0299 0.37514,0.026 0.12429,0.0549 0.24972,-0.0299 0.37399,0.025 0.12544,0.0549 0.25087,-0.0289 0.37514,0.025 0.12544,0.0549 0.24972,-0.0289 0.37515,0.025 0.12429,0.054 0.24972,-0.028 0.37513,0.025 0.12429,0.054 0.24972,-0.028 0.37401,0.025 0.12543,0.053 0.25085,-0.0279 0.37513,0.0242 0.12544,0.053 0.24972,-0.028 0.37514,0.0241 0.12429,0.052 0.24972,-0.027 0.37514,0.0241 0.1243,0.052 0.24973,-0.027 0.37401,0.0241 0.12542,0.0511 0.2497,-0.026 0.37512,0.024 0.12545,0.0511 0.24973,-0.026 0.37515,0.0242 0.1243,0.0501 0.24971,-0.026 0.37514,0.0232 0.12429,0.0492 0.24971,-0.025 0.374,0.0232 0.12543,0.0492 0.24971,-0.025 0.37515,0.0232 0.12542,0.0492 0.2497,-0.0241 0.37512,0.0232 0.12429,0.0482 0.2497,-0.0241 0.37515,0.0232 0.1243,0.0472 0.24971,-0.0241 0.37399,0.0232 0.12543,0.0462 0.24971,-0.0241 0.37515,0.0222 0.12543,0.0462 0.2497,-0.0232 0.37514,0.0232 0.12428,0.0453 0.24971,-0.0232 0.374,0.0222 0.12542,0.0453 0.25083,-0.0232 0.37514,0.0222 0.12541,0.0444 0.24971,-0.0222 0.37513,0.0222 0.12543,0.0434 0.24971,-0.0222 0.37514,0.0212 0.12427,0.0434 0.24971,-0.0212 0.374,0.0222 0.12543,0.0424 0.25086,-0.0212 0.37514,0.0212 0.12543,0.0424 0.24972,-0.0202 0.37515,0.0222 0.12541,0.0414 0.2497,-0.0202 0.37512,0.0212 0.12431,0.0405 0.24972,-0.0193 0.37401,0.0212 0.12541,0.0405 0.25084,-0.0192 0.37513,0.0212 0.12543,0.0395 0.24971,-0.0193 0.37515,0.0202 0.12428,0.0395 0.24971,-0.0173 0.37515,0.0212 0.12427,0.0385 0.2497,-0.0173 0.37398,0.0202 0.12542,0.0385 0.25085,-0.0164 0.37515,0.0212 0.12541,0.0375 0.24972,-0.0174 0.37513,0.0202 0.12428,0.0367 0.24971,-0.0164 0.37516,0.0202 0.12426,0.0366 0.2497,-0.0154 0.37398,0.0202 0.12542,0.0357 0.24971,-0.0154 0.37514,0.0202 0.12542,0.0347 0.24971,-0.0155 0.37513,0.0192 0.12429,0.0347 0.24973,-0.0135 0.37515,0.0202 0.12428,0.0337 0.24972,-0.0135 0.37399,0.0192 0.12542,0.0337 0.24971,-0.0125 0.37516,0.0202 0.12542,0.0318 0.2497,-0.0125 0.37512,0.0193 0.1243,0.0318 0.24973,-0.0125 0.37514,0.0193 0.12429,0.0309 0.24972,-0.0115 0.37401,0.0193 0.12542,0.0309 0.24971,-0.0115 0.37513,0.0193 0.12542,0.0299 0.24971,-0.0106 0.37514,0.0183 0.12429,0.0299 0.24972,-0.01 0.37401,0.0193 0.12543,0.0289 0.25085,-0.01 0.37512,0.0183 0.12544,0.028 0.24973,-0.009 0.37514,0.0193 0.12543,0.027 0.24973,-0.009 0.37515,0.0183 0.1243,0.027 0.24971,-0.008 0.37401,0.0183 0.12541,0.026 0.25085,-0.008 0.37513,0.0183 0.12544,0.025 0.24971,-0.007 0.37513,0.0183 0.12543,0.0241 0.24972,-0.006 0.37514,0.0183 0.12429,0.024 0.24972,-0.006 0.37401,0.0173 0.12542,0.0241 0.25085,-0.005 0.37515,0.0183 0.12541,0.0222 0.24969,-0.005 0.37511,0.0173 0.12429,0.0222 0.24973,-0.004 0.37515,0.0183 0.12429,0.0212 0.24972,-0.004 0.374,0.0173 0.12543,0.0202 0.25085,-0.003 0.37515,0.0173 0.12542,0.0202 0.2497,-0.002 0.37513,0.0173 0.12429,0.0193 0.24971,-9.6e-4 0.37514,0.0174 0.12428,0.0183 0.2497,-9.7e-4 0.37399,0.0173 0.12545,0.0173 0.24973,0 0.37515,0.0164 0.12542,0.0173 0.24971,9.6e-4 0.37515,0.0173 0.12427,0.0164 0.24969,9.5e-4 0.37513,0.0173 0.12429,0.0154 0.2497,9.7e-4 0.374,0.0164 0.12542,0.0154 0.24972,0.002 0.37513,0.0164 0.12544,0.0145 0.24971,0.003 0.37515,0.0174 0.12428,0.0135 0.24971,0.003 0.37514,0.0164 0.12427,0.0125 0.24969,0.004 0.374,0.0164 0.12543,0.0125 0.2497,0.005 0.37512,0.0164 0.12543,0.0115 0.24974,0.005 0.37515,0.0164 0.12428,0.0106 0.24971,0.006 0.37399,0.0154 0.12543,0.0106 0.25087,0.007 0.37515,0.0164 0.12542,0.01 0.24971,0.007 0.37514,0.0154 0.12542,0.01 0.24971,0.009 0.37514,0.0164 0.12429,0.008 0.24971,0.009 0.37399,0.0155 0.12543,0.008 0.25086,0.01 0.37514,0.0164 0.12542,0.007 0.24971,0.01 0.37514,0.0154 0.12543,0.006 0.24972,0.0106 0.37515,0.0154 0.12428,0.005 0.2497,0.0106 0.37398,0.0154 0.12544,0.005 0.25087,0.0115 0.37515,0.0154 0.12542,0.004 0.24972,0.0125 0.37514,0.0154 0.12429,0.003 0.24971,0.0125 0.37514,0.0154 0.12428,0.002 0.24971,0.0135 0.374,0.0145 0.12543,0.002 0.25085,0.0145 0.37514,0.0154 0.12541,9.6e-4 0.2497,0.0145 0.37514,0.0145 0.12429,9.7e-4 0.24972,0.0155 0.37513,0.0155 0.12429,-9.6e-4 0.24972,0.0164 0.374,0.0145 0.12543,-9.7e-4 0.2497,0.0173 0.37514,0.0154 0.12543,-0.002 0.24972,0.0164 0.37515,0.0145 0.12428,-0.003 0.2497,0.0173 0.37511,0.0145 0.12431,-0.004 0.24975,0.0183 0.37403,0.0145 0.12541,-0.004 0.24971,0.0193 0.37512,0.0145 0.12544,-0.005 0.24971,0.0193 0.37514,0.0145 0.12429,-0.006 0.24972,0.0202 0.37516,0.0145 0.12429,-0.007 0.24971,0.0202 0.37399,0.0135 0.12543,-0.007 0.2497,0.0222 0.37514,0.0145 0.12543,-0.008 0.24972,0.0222 0.37513,0.0145 0.1243,-0.009 0.24972,0.0222 0.37401,0.0135 0.12542,-0.009 0.25085,0.0241 0.37514,0.0135 0.12543,-0.01 0.2497,0.025 0.37514,0.0145 0.12543,-0.0106 0.24971,0.025 0.37514,0.0135 0.12427,-0.0115 0.24971,0.026 0.374,0.0135 0.12543,-0.0115 0.25085,0.027 0.37514,0.0135 0.12541,-0.0125 0.24971,0.027 0.37514,0.0135 0.12543,-0.0125 0.2497,0.028 0.37513,0.0135 0.12429,-0.0135 0.24972,0.0289 0.374,0.0135 0.12542,-0.0145 0.25084,0.0289 0.37514,0.0135 0.12544,-0.0154 0.24972,0.0299 0.37515,0.0135 0.12428,-0.0164 0.2497,0.0299 0.37513,0.0135 0.12427,-0.0173 0.2497,0.0309 0.37399,0.0125 0.12544,-0.0173 0.25086,0.0318 0.37514,0.0135 0.12543,-0.0183 0.24973,0.0318 0.37515,0.0125 0.12427,-0.0183 0.24971,0.0327 0.37514,0.0135 0.12429,-0.0193 0.2497,0.0327 0.374,0.0125"
       title="1*((x-1)**2+(2*0.1*x)**2)**(-0.5)"
       id="path8211"
       inkscape:export-filename="oppgave_resonanskurve_v2.png"
       inkscape:export-xdpi="300"
       inkscape:export-ydpi="300" />
    <path
       style="fill:none;stroke:#000000;stroke-width:0.264583px;stroke-linecap:butt;stroke-linejoin:miter;stroke-opacity:1;marker-end:url(#TriangleStart)"
       d="M 19.843751,148.16668 V 9.2604175"
       id="path8217" />
    <path
       style="fill:none;stroke:#000000;stroke-width:0.264583px;stroke-linecap:butt;stroke-linejoin:miter;stroke-opacity:1;marker-end:url(#TriangleStart-7)"
       d="M 19.843749,148.16666 H 193.14583"
       id="path8217-0" />
    <text
       xml:space="preserve"
       style="font-style:italic;font-size:4.9389px;line-height:1.25;font-family:'Times New Roman';-inkscape-font-specification:'Times New Roman, Italic';font-variant-ligatures:none;stroke-width:0.264583"
       x="53.533669"
       y="152.63599"
       id="text13217"><tspan
         sodipodi:role="line"
         id="tspan13215"
         style="font-style:normal;font-variant:normal;font-weight:normal;font-stretch:normal;font-family:'Times New Roman';-inkscape-font-specification:'Times New Roman, ';stroke-width:0.264583"
         x="53.533669"
         y="152.63599">1,0</tspan></text>
    <text
       xml:space="preserve"
       style="font-style:italic;font-size:4.9389px;line-height:1.25;font-family:'Times New Roman';-inkscape-font-specification:'Times New Roman, Italic';font-variant-ligatures:none;stroke-width:0.264583"
       x="89.252419"
       y="152.82719"
       id="text13217-5"><tspan
         sodipodi:role="line"
         id="tspan13215-0"
         style="font-style:normal;font-variant:normal;font-weight:normal;font-stretch:normal;font-family:'Times New Roman';-inkscape-font-specification:'Times New Roman, ';stroke-width:0.264583"
         x="89.252419"
         y="152.82719">2,0</tspan></text>
    <text
       xml:space="preserve"
       style="font-style:italic;font-size:4.9389px;line-height:1.25;font-family:'Times New Roman';-inkscape-font-specification:'Times New Roman, Italic';font-variant-ligatures:none;stroke-width:0.264583"
       x="125.47692"
       y="152.63599"
       id="text13217-52"><tspan
         sodipodi:role="line"
         id="tspan13215-07"
         style="font-style:normal;font-variant:normal;font-weight:normal;font-stretch:normal;font-family:'Times New Roman';-inkscape-font-specification:'Times New Roman, ';stroke-width:0.264583"
         x="125.47692"
         y="152.63599">3,0</tspan></text>
    <text
       xml:space="preserve"
       style="font-style:italic;font-size:4.9389px;line-height:1.25;font-family:'Times New Roman';-inkscape-font-specification:'Times New Roman, Italic';font-variant-ligatures:none;stroke-width:0.264583"
       x="160.68993"
       y="152.82719"
       id="text13217-6"><tspan
         sodipodi:role="line"
         id="tspan13215-4"
         style="font-style:normal;font-variant:normal;font-weight:normal;font-stretch:normal;font-family:'Times New Roman';-inkscape-font-specification:'Times New Roman, ';stroke-width:0.264583"
         x="160.68993"
         y="152.82719">4,0</tspan></text>
    <text
       xml:space="preserve"
       style="font-style:italic;font-size:4.9389px;line-height:1.25;font-family:'Times New Roman';-inkscape-font-specification:'Times New Roman, Italic';font-variant-ligatures:none;stroke-width:0.264583"
       x="12.65039"
       y="115.59432"
       id="text13217-58"><tspan
         sodipodi:role="line"
         id="tspan13215-2"
         style="font-style:normal;font-variant:normal;font-weight:normal;font-stretch:normal;font-family:'Times New Roman';-inkscape-font-specification:'Times New Roman, ';stroke-width:0.264583"
         x="12.65039"
         y="115.59432">1,0</tspan></text>
    <text
       xml:space="preserve"
       style="font-style:italic;font-size:4.9389px;line-height:1.25;font-family:'Times New Roman';-inkscape-font-specification:'Times New Roman, Italic';font-variant-ligatures:none;stroke-width:0.264583"
       x="12.523253"
       y="81.198486"
       id="text13217-5-3"><tspan
         sodipodi:role="line"
         id="tspan13215-0-1"
         style="font-style:normal;font-variant:normal;font-weight:normal;font-stretch:normal;font-family:'Times New Roman';-inkscape-font-specification:'Times New Roman, ';stroke-width:0.264583"
         x="12.523253"
         y="81.198486">2,0</tspan></text>
    <text
       xml:space="preserve"
       style="font-style:italic;font-size:4.9389px;line-height:1.25;font-family:'Times New Roman';-inkscape-font-specification:'Times New Roman, Italic';font-variant-ligatures:none;stroke-width:0.264583"
       x="12.523253"
       y="46.993866"
       id="text13217-5-0"><tspan
         sodipodi:role="line"
         id="tspan13215-0-0"
         style="font-style:normal;font-variant:normal;font-weight:normal;font-stretch:normal;font-family:'Times New Roman';-inkscape-font-specification:'Times New Roman, ';stroke-width:0.264583"
         x="12.523253"
         y="46.993866">3,0</tspan></text>
    <text
       xml:space="preserve"
       style="font-style:italic;font-size:4.9389px;line-height:1.25;font-family:'Times New Roman';-inkscape-font-specification:'Times New Roman, Italic';font-variant-ligatures:none;stroke-width:0.264583"
       x="11.82908"
       y="12.598033"
       id="text13217-5-0-3"><tspan
         sodipodi:role="line"
         id="tspan13215-0-0-7"
         style="font-style:normal;font-variant:normal;font-weight:normal;font-stretch:normal;font-family:'Times New Roman';-inkscape-font-specification:'Times New Roman, ';stroke-width:0.264583"
         x="11.82908"
         y="12.598033">4,0</tspan></text>
    <text
       xml:space="preserve"
       style="font-style:italic;font-variant:normal;font-weight:normal;font-stretch:normal;font-size:4.9389px;line-height:1.25;font-family:'Times New Roman';-inkscape-font-specification:'Times New Roman,  Italic';font-variant-ligatures:none;stroke-width:0.264583"
       x="14.552083"
       y="6.614583"
       id="text14112"><tspan
         sodipodi:role="line"
         id="tspan14110"
         style="font-style:normal;font-variant:normal;font-weight:normal;font-stretch:normal;font-family:'Times New Roman';-inkscape-font-specification:'Times New Roman, ';stroke-width:0.264583"
         x="14.552083"
         y="6.614583"><tspan
   style="font-style:italic;font-variant:normal;font-weight:normal;font-stretch:normal;font-family:'Times New Roman';-inkscape-font-specification:'Times New Roman,  Italic'"
   id="tspan14114">A</tspan> [cm]</tspan></text>
    <g
       transform="matrix(0.529167,0,0,0.529167,195.31211,147.1002)"
       ns1:version="1.8.2"
       ns1:texconverter="pdflatex"
       ns1:pdfconverter="inkscape"
       ns1:text="$\\omega$"
       ns1:preamble="C:\Users\knutb\AppData\Roaming\inkscape\extensions\textext\default_packages.tex"
       ns1:scale="1.5"
       ns1:alignment="middle center"
       ns1:stroke-to-path="0"
       ns1:inkscapeversion="1.2.2"
       ns1:jacobian_sqrt="0.529167"
       id="g14360">
      <defs
         id="id-ed1d2686-aa42-436e-a188-c055804db249">
        <g
           id="id-1c87dedd-74c9-4c8b-b55b-3f726687d73c">
          <g
             id="id-40c3b291-89c5-4762-b2e7-57c9545f38f3" />
          <g
             id="id-de4c97a2-e186-4b2f-a0bf-cfebe95c2191">
            <path
               d="m 6.03125,-3.703125 c 0,-0.453125 -0.171875,-0.703125 -0.40625,-0.703125 -0.25,0 -0.515625,0.234375 -0.515625,0.46875 0,0.09375 0.046875,0.203125 0.140625,0.296875 0.171875,0.15625 0.359375,0.421875 0.359375,0.84375 0,0.390625 -0.203125,0.96875 -0.5,1.421875 C 4.8125,-0.953125 4.4375,-0.609375 3.96875,-0.609375 3.40625,-0.609375 3.09375,-0.96875 3,-1.5 c 0.109375,-0.265625 0.34375,-0.90625 0.34375,-1.1875 0,-0.109375 -0.046875,-0.21875 -0.1875,-0.21875 -0.078125,0 -0.1875,0.03125 -0.265625,0.171875 C 2.78125,-2.53125 2.65625,-1.890625 2.65625,-1.53125 2.328125,-1.0625 1.9375,-0.609375 1.3125,-0.609375 c -0.671875,0 -0.875,-0.59375 -0.875,-1.140625 0,-1.25 1.015625,-2.296875 1.015625,-2.421875 0,-0.109375 -0.078125,-0.1875 -0.1875,-0.1875 -0.125,0 -0.203125,0.125 -0.265625,0.21875 -0.5,0.734375 -0.875,1.921875 -0.875,2.828125 0,0.6875 0.21875,1.421875 1.046875,1.421875 0.703125,0 1.171875,-0.5 1.53125,-1.046875 0.09375,0.578125 0.484375,1.046875 1.09375,1.046875 0.78125,0 1.25,-0.609375 1.609375,-1.359375 0.25,-0.484375 0.625,-1.84375 0.625,-2.453125 z m 0,0"
               id="id-fdd5d584-1bc3-4f07-bf62-92400abee57a" />
          </g>
        </g>
      </defs>
      <g
         fill="#000000"
         fill-opacity="1"
         id="id-a799c962-3939-46ad-b05c-7f6e9f8e3331"
         transform="translate(-148.837,-130.359)">
        <g
           transform="translate(148.712,134.765)"
           id="g14357">
          <path
             d="m 6.03125,-3.703125 c 0,-0.453125 -0.171875,-0.703125 -0.40625,-0.703125 -0.25,0 -0.515625,0.234375 -0.515625,0.46875 0,0.09375 0.046875,0.203125 0.140625,0.296875 0.171875,0.15625 0.359375,0.421875 0.359375,0.84375 0,0.390625 -0.203125,0.96875 -0.5,1.421875 C 4.8125,-0.953125 4.4375,-0.609375 3.96875,-0.609375 3.40625,-0.609375 3.09375,-0.96875 3,-1.5 c 0.109375,-0.265625 0.34375,-0.90625 0.34375,-1.1875 0,-0.109375 -0.046875,-0.21875 -0.1875,-0.21875 -0.078125,0 -0.1875,0.03125 -0.265625,0.171875 C 2.78125,-2.53125 2.65625,-1.890625 2.65625,-1.53125 2.328125,-1.0625 1.9375,-0.609375 1.3125,-0.609375 c -0.671875,0 -0.875,-0.59375 -0.875,-1.140625 0,-1.25 1.015625,-2.296875 1.015625,-2.421875 0,-0.109375 -0.078125,-0.1875 -0.1875,-0.1875 -0.125,0 -0.203125,0.125 -0.265625,0.21875 -0.5,0.734375 -0.875,1.921875 -0.875,2.828125 0,0.6875 0.21875,1.421875 1.046875,1.421875 0.703125,0 1.171875,-0.5 1.53125,-1.046875 0.09375,0.578125 0.484375,1.046875 1.09375,1.046875 0.78125,0 1.25,-0.609375 1.609375,-1.359375 0.25,-0.484375 0.625,-1.84375 0.625,-2.453125 z m 0,0"
             id="id-511e5edc-5e42-47c7-bcca-edff56de6932" />
        </g>
      </g>
    </g>
    <text
       xml:space="preserve"
       style="font-style:italic;font-size:4.9389px;line-height:1.25;font-family:'Times New Roman';-inkscape-font-specification:'Times New Roman, Italic';font-variant-ligatures:none;stroke-width:0.264583"
       x="199.76042"
       y="149.48958"
       id="text14388"><tspan
         sodipodi:role="line"
         id="tspan14386"
         style="stroke-width:0.264583"
         x="199.76042"
         y="149.48958"><tspan
           style="font-style:normal;font-variant:normal;font-weight:normal;font-stretch:normal;font-family:'Times New Roman';-inkscape-font-specification:'Times New Roman, '"
           id="tspan14396">[s</tspan><tspan
           style="font-style:normal;font-variant:normal;font-weight:normal;font-stretch:normal;font-size:65%;font-family:'Times New Roman';-inkscape-font-specification:'Times New Roman, ';baseline-shift:super"
           id="tspan14392">-1</tspan><tspan
           style="font-style:normal;font-variant:normal;font-weight:normal;font-stretch:normal;font-family:'Times New Roman';-inkscape-font-specification:'Times New Roman, '"
           id="tspan14398">]</tspan></tspan></text>
    <g
       inkscape:label="GridCartesian:X5:Y4"
       transform="matrix(7.18625,0,0,6.8500003,19.84375,11.402078)"
       id="g18946"
       style="stroke-width:0.142529">
      <g
         inkscape:label="MajorXGridlines"
         id="g18858"
         style="stroke-width:0.142529">
        <path
           style="fill:none;stroke:#000000;stroke-width:0.0377108"
           d="M 5,0 V 20"
           inkscape:label="MajorXDiv1"
           id="path18850" />
        <path
           style="fill:none;stroke:#000000;stroke-width:0.0377108"
           d="M 10,0 V 20"
           inkscape:label="MajorXDiv2"
           id="path18852" />
        <path
           style="fill:none;stroke:#000000;stroke-width:0.0377108"
           d="M 15,0 V 20"
           inkscape:label="MajorXDiv3"
           id="path18854" />
        <path
           style="fill:none;stroke:#000000;stroke-width:0.0377108"
           d="M 20,0 V 20"
           inkscape:label="MajorXDiv4"
           id="path18856" />
      </g>
      <g
         inkscape:label="MajorYGridlines"
         id="g18866"
         style="stroke-width:0.142529">
        <path
           style="fill:none;stroke:#000000;stroke-width:0.0377108"
           d="M 0,5 H 25"
           inkscape:label="MajorYDiv1"
           id="path18860" />
        <path
           style="fill:none;stroke:#000000;stroke-width:0.0377108"
           d="M 0,10 H 25"
           inkscape:label="MajorYDiv2"
           id="path18862" />
        <path
           style="fill:none;stroke:#000000;stroke-width:0.0377108"
           d="M 0,15 H 25"
           inkscape:label="MajorYDiv3"
           id="path18864" />
      </g>
      <g
         inkscape:label="SubMinorXGridlines"
         id="g18908"
         style="stroke-width:0.142529">
        <path
           style="fill:none;stroke:#000000;stroke-width:0.0113132"
           d="M 1,0 V 20"
           inkscape:label="SubminorXDiv0:0:1"
           id="path18868" />
        <path
           style="fill:none;stroke:#000000;stroke-width:0.0113132"
           d="M 2,0 V 20"
           inkscape:label="SubminorXDiv0:0:2"
           id="path18870" />
        <path
           style="fill:none;stroke:#000000;stroke-width:0.0113132"
           d="M 3,0 V 20"
           inkscape:label="SubminorXDiv0:0:3"
           id="path18872" />
        <path
           style="fill:none;stroke:#000000;stroke-width:0.0113132"
           d="M 4,0 V 20"
           inkscape:label="SubminorXDiv0:0:4"
           id="path18874" />
        <path
           style="fill:none;stroke:#000000;stroke-width:0.0113132"
           d="M 6,0 V 20"
           inkscape:label="SubminorXDiv1:0:1"
           id="path18876" />
        <path
           style="fill:none;stroke:#000000;stroke-width:0.0113132"
           d="M 7,0 V 20"
           inkscape:label="SubminorXDiv1:0:2"
           id="path18878" />
        <path
           style="fill:none;stroke:#000000;stroke-width:0.0113132"
           d="M 8,0 V 20"
           inkscape:label="SubminorXDiv1:0:3"
           id="path18880" />
        <path
           style="fill:none;stroke:#000000;stroke-width:0.0113132"
           d="M 9,0 V 20"
           inkscape:label="SubminorXDiv1:0:4"
           id="path18882" />
        <path
           style="fill:none;stroke:#000000;stroke-width:0.0113132"
           d="M 11,0 V 20"
           inkscape:label="SubminorXDiv2:0:1"
           id="path18884" />
        <path
           style="fill:none;stroke:#000000;stroke-width:0.0113132"
           d="M 12,0 V 20"
           inkscape:label="SubminorXDiv2:0:2"
           id="path18886" />
        <path
           style="fill:none;stroke:#000000;stroke-width:0.0113132"
           d="M 13,0 V 20"
           inkscape:label="SubminorXDiv2:0:3"
           id="path18888" />
        <path
           style="fill:none;stroke:#000000;stroke-width:0.0113132"
           d="M 14,0 V 20"
           inkscape:label="SubminorXDiv2:0:4"
           id="path18890" />
        <path
           style="fill:none;stroke:#000000;stroke-width:0.0113132"
           d="M 16,0 V 20"
           inkscape:label="SubminorXDiv3:0:1"
           id="path18892" />
        <path
           style="fill:none;stroke:#000000;stroke-width:0.0113132"
           d="M 17,0 V 20"
           inkscape:label="SubminorXDiv3:0:2"
           id="path18894" />
        <path
           style="fill:none;stroke:#000000;stroke-width:0.0113132"
           d="M 18,0 V 20"
           inkscape:label="SubminorXDiv3:0:3"
           id="path18896" />
        <path
           style="fill:none;stroke:#000000;stroke-width:0.0113132"
           d="M 19,0 V 20"
           inkscape:label="SubminorXDiv3:0:4"
           id="path18898" />
        <path
           style="fill:none;stroke:#000000;stroke-width:0.0113132"
           d="M 21,0 V 20"
           inkscape:label="SubminorXDiv4:0:1"
           id="path18900" />
        <path
           style="fill:none;stroke:#000000;stroke-width:0.0113132"
           d="M 22,0 V 20"
           inkscape:label="SubminorXDiv4:0:2"
           id="path18902" />
        <path
           style="fill:none;stroke:#000000;stroke-width:0.0113132"
           d="M 23,0 V 20"
           inkscape:label="SubminorXDiv4:0:3"
           id="path18904" />
        <path
           style="fill:none;stroke:#000000;stroke-width:0.0113132"
           d="M 24,0 V 20"
           inkscape:label="SubminorXDiv4:0:4"
           id="path18906" />
      </g>
      <g
         inkscape:label="SubMinorYGridlines"
         id="g18942"
         style="stroke-width:0.142529">
        <path
           style="fill:none;stroke:#000000;stroke-width:0.0113132"
           d="M 0,1 H 25"
           inkscape:label="SubminorXDiv0:0:1"
           id="path18910" />
        <path
           style="fill:none;stroke:#000000;stroke-width:0.0113132"
           d="M 0,2 H 25"
           inkscape:label="SubminorXDiv0:0:2"
           id="path18912" />
        <path
           style="fill:none;stroke:#000000;stroke-width:0.0113132"
           d="M 0,3 H 25"
           inkscape:label="SubminorXDiv0:0:3"
           id="path18914" />
        <path
           style="fill:none;stroke:#000000;stroke-width:0.0113132"
           d="M 0,4 H 25"
           inkscape:label="SubminorXDiv0:0:4"
           id="path18916" />
        <path
           style="fill:none;stroke:#000000;stroke-width:0.0113132"
           d="M 0,6 H 25"
           inkscape:label="SubminorXDiv1:0:1"
           id="path18918" />
        <path
           style="fill:none;stroke:#000000;stroke-width:0.0113132"
           d="M 0,7 H 25"
           inkscape:label="SubminorXDiv1:0:2"
           id="path18920" />
        <path
           style="fill:none;stroke:#000000;stroke-width:0.0113132"
           d="M 0,8 H 25"
           inkscape:label="SubminorXDiv1:0:3"
           id="path18922" />
        <path
           style="fill:none;stroke:#000000;stroke-width:0.0113132"
           d="M 0,9 H 25"
           inkscape:label="SubminorXDiv1:0:4"
           id="path18924" />
        <path
           style="fill:none;stroke:#000000;stroke-width:0.0113132"
           d="M 0,11 H 25"
           inkscape:label="SubminorXDiv2:0:1"
           id="path18926" />
        <path
           style="fill:none;stroke:#000000;stroke-width:0.0113132"
           d="M 0,12 H 25"
           inkscape:label="SubminorXDiv2:0:2"
           id="path18928" />
        <path
           style="fill:none;stroke:#000000;stroke-width:0.0113132"
           d="M 0,13 H 25"
           inkscape:label="SubminorXDiv2:0:3"
           id="path18930" />
        <path
           style="fill:none;stroke:#000000;stroke-width:0.0113132"
           d="M 0,14 H 25"
           inkscape:label="SubminorXDiv2:0:4"
           id="path18932" />
        <path
           style="fill:none;stroke:#000000;stroke-width:0.0113132"
           d="M 0,16 H 25"
           inkscape:label="SubminorXDiv3:0:1"
           id="path18934" />
        <path
           style="fill:none;stroke:#000000;stroke-width:0.0113132"
           d="M 0,17 H 25"
           inkscape:label="SubminorXDiv3:0:2"
           id="path18936" />
        <path
           style="fill:none;stroke:#000000;stroke-width:0.0113132"
           d="M 0,18 H 25"
           inkscape:label="SubminorXDiv3:0:3"
           id="path18938" />
        <path
           style="fill:none;stroke:#000000;stroke-width:0.0113132"
           d="M 0,19 H 25"
           inkscape:label="SubminorXDiv3:0:4"
           id="path18940" />
      </g>
      <rect
         x="0"
         y="0"
         width="25"
         height="20"
         style="fill:none;stroke:#000000;stroke-width:5.23343e-18"
         inkscape:label="Border"
         id="rect18944" />
    </g>
    <path
       style="fill:none;stroke:#000000;stroke-width:0.264583px;stroke-linecap:butt;stroke-linejoin:miter;stroke-opacity:1"
       d="M 19.84375,11.90625 H 199.76041"
       id="path19012" />
  </g>
</svg>
