<?xml version="1.0" encoding="UTF-8" standalone="no"?>
<!-- Created with Inkscape (http://www.inkscape.org/) -->

<svg
   width="210mm"
   height="297mm"
   viewBox="0 0 210 297"
   version="1.1"
   id="svg1"
   inkscape:version="1.3.2 (091e20e, 2023-11-25, custom)"
   sodipodi:docname="oppgave_tvungne_dempede_svingninger_kloss_stempel.svg"
   xmlns:inkscape="http://www.inkscape.org/namespaces/inkscape"
   xmlns:sodipodi="http://sodipodi.sourceforge.net/DTD/sodipodi-0.dtd"
   xmlns="http://www.w3.org/2000/svg"
   xmlns:svg="http://www.w3.org/2000/svg"
   xmlns:ns1="http://www.iki.fi/pav/software/textext/">
  <sodipodi:namedview
     id="namedview1"
     pagecolor="#ffffff"
     bordercolor="#666666"
     borderopacity="1.0"
     inkscape:showpageshadow="2"
     inkscape:pageopacity="0.0"
     inkscape:pagecheckerboard="0"
     inkscape:deskcolor="#d1d1d1"
     inkscape:document-units="mm"
     showgrid="true"
     inkscape:zoom="1.7084524"
     inkscape:cx="69.946343"
     inkscape:cy="114.72371"
     inkscape:window-width="1368"
     inkscape:window-height="850"
     inkscape:window-x="-6"
     inkscape:window-y="-6"
     inkscape:window-maximized="1"
     inkscape:current-layer="layer1">
    <inkscape:grid
       id="grid1"
       units="px"
       originx="0"
       originy="0"
       spacingx="0.26458333"
       spacingy="0.26458334"
       empcolor="#0099e5"
       empopacity="0.30196078"
       color="#0099e5"
       opacity="0.14901961"
       empspacing="5"
       dotted="false"
       gridanglex="30"
       gridanglez="30"
       visible="true" />
  </sodipodi:namedview>
  <defs
     id="defs1">
    <marker
       style="overflow:visible"
       id="marker4"
       refX="0"
       refY="0"
       orient="auto-start-reverse"
       inkscape:stockid="Triangle arrow"
       markerWidth="1"
       markerHeight="1"
       viewBox="0 0 1 1"
       inkscape:isstock="true"
       inkscape:collect="always"
       preserveAspectRatio="xMidYMid">
      <path
         transform="scale(0.5)"
         style="fill:context-stroke;fill-rule:evenodd;stroke:context-stroke;stroke-width:1pt"
         d="M 5.77,0 -2.88,5 V -5 Z"
         id="path4" />
    </marker>
    <marker
       style="overflow:visible"
       id="Triangle"
       refX="0"
       refY="0"
       orient="auto-start-reverse"
       inkscape:stockid="Triangle arrow"
       markerWidth="1"
       markerHeight="1"
       viewBox="0 0 1 1"
       inkscape:isstock="true"
       inkscape:collect="always"
       preserveAspectRatio="xMidYMid">
      <path
         transform="scale(0.5)"
         style="fill:context-stroke;fill-rule:evenodd;stroke:context-stroke;stroke-width:1pt"
         d="M 5.77,0 -2.88,5 V -5 Z"
         id="path135" />
    </marker>
  </defs>
  <g
     inkscape:label="Layer 1"
     inkscape:groupmode="layer"
     id="layer1">
    <rect
       style="fill:#ffccaa;stroke:#000000;stroke-width:0.264999;stroke-linejoin:round;stroke-dasharray:none"
       id="rect1"
       width="52.049294"
       height="34.816601"
       x="11.450706"
       y="6.4041986"
       inkscape:export-filename="oppgave_tvungne_dempede_svingninger_kloss_stempel.png"
       inkscape:export-xdpi="300"
       inkscape:export-ydpi="300" />
    <rect
       style="fill:#008000;stroke:#000000;stroke-width:0.465;stroke-miterlimit:4;stroke-dasharray:none"
       id="rect1435"
       width="7.5938177"
       height="7.4365559"
       x="45.8344"
       y="33.880974"
       inkscape:export-xdpi="300"
       inkscape:export-ydpi="300"
       inkscape:export-filename="oppgave_harmonisk_svingning_fart_akselerasjon.png" />
    <g
       transform="matrix(0.42017717,0,0,0.40045497,20.554117,19.878105)"
       id="g4696-8-0"
       style="stroke-width:2.43785"
       inkscape:export-xdpi="300.29193"
       inkscape:export-ydpi="300.29193">
      <path
         inkscape:connector-curvature="0"
         id="path4559-1-4"
         d="M 7.9374999,45.645834 H 11.90625 c 0,0 5.291666,-6.614583 7.9375,-6.614583 2.645833,0 2.645833,5.291666 2.645833,6.614583 0,1.322917 -1.322917,5.291667 -2.645833,5.291667 -1.322917,0 -2.645834,-2.645834 -2.645834,-5.291667 0,-2.645833 3.96875,-6.614583 6.614584,-6.614583 2.645833,0 2.645833,0 2.645833,0"
         style="fill:none;stroke:#000000;stroke-width:0.645015px;stroke-linecap:butt;stroke-linejoin:miter;stroke-opacity:1" />
      <path
         sodipodi:nodetypes="cssssc"
         inkscape:connector-curvature="0"
         id="path4559-2-2-4"
         d="m 26.458333,39.03125 c 2.645833,0 2.645833,5.291666 2.645833,6.614583 0,1.322917 -1.322917,5.291667 -2.645833,5.291667 -1.322917,0 -2.645834,-2.645834 -2.645834,-5.291667 0,-2.645833 3.96875,-6.614583 6.614584,-6.614583 h 2.645833"
         style="fill:none;stroke:#000000;stroke-width:0.645015px;stroke-linecap:butt;stroke-linejoin:miter;stroke-opacity:1" />
      <path
         sodipodi:nodetypes="cssssc"
         inkscape:connector-curvature="0"
         id="path4559-2-3-1-7"
         d="m 33.072917,39.03125 c 2.645833,0 2.645833,5.291666 2.645833,6.614583 0,1.322917 -1.322917,5.291668 -2.645833,5.291668 -1.322917,0 -2.645834,-2.645835 -2.645834,-5.291668 0,-2.645833 3.96875,-6.614583 6.614584,-6.614583 h 2.645834"
         style="fill:none;stroke:#000000;stroke-width:0.645015px;stroke-linecap:butt;stroke-linejoin:miter;stroke-opacity:1" />
      <path
         sodipodi:nodetypes="csssc"
         inkscape:connector-curvature="0"
         id="path4559-2-9-7-7"
         d="m 39.6875,39.03125 c 2.645833,0 2.645833,5.291666 2.645833,6.614583 0,1.322917 -1.322917,5.291667 -2.645833,5.291667 -1.322917,0 -2.645834,-2.645834 -2.645834,-5.291667 0,-2.645833 3.96875,-6.614583 6.614584,-6.614583"
         style="fill:none;stroke:#000000;stroke-width:0.645015px;stroke-linecap:butt;stroke-linejoin:miter;stroke-opacity:1" />
      <path
         sodipodi:nodetypes="ccssssc"
         inkscape:connector-curvature="0"
         id="path4559-7-0-3"
         d="m 59.459146,45.649917 h -3.96875 c 0,0 -5.291666,-6.614583 -7.9375,-6.614583 -2.645833,0 -2.645833,5.291667 -2.645833,6.614583 0,1.322917 1.322917,5.291668 2.645833,5.291668 1.322917,0 2.645834,-2.645834 2.645834,-5.291668 0,-2.645833 -3.96875,-6.614583 -6.614584,-6.614583"
         style="fill:none;stroke:#000000;stroke-width:0.645015px;stroke-linecap:butt;stroke-linejoin:miter;stroke-opacity:1" />
    </g>
    <text
       xml:space="preserve"
       style="font-style:italic;font-size:4.9389px;line-height:1.25;font-family:'Times New Roman';-inkscape-font-specification:'Times New Roman, Italic';font-variant-ligatures:none;stroke-width:0.264583"
       x="13.320673"
       y="13.390954"
       id="text2"><tspan
         sodipodi:role="line"
         style="font-style:normal;font-variant:normal;font-weight:normal;font-stretch:normal;font-size:4.9389px;font-family:'Times New Roman';-inkscape-font-specification:'Times New Roman, Normal';font-variant-ligatures:none;font-variant-caps:normal;font-variant-numeric:normal;font-variant-east-asian:normal;stroke-width:0.264583"
         x="13.320673"
         y="13.390954"
         id="tspan8">Væskas dempings-</tspan><tspan
         sodipodi:role="line"
         style="stroke-width:0.264583"
         x="13.320673"
         y="19.565834"
         id="tspan9"><tspan
   style="font-style:normal;font-variant:normal;font-weight:normal;font-stretch:normal;font-size:4.9389px;font-family:'Times New Roman';-inkscape-font-specification:'Times New Roman, Normal';font-variant-ligatures:none;font-variant-caps:normal;font-variant-numeric:normal;font-variant-east-asian:normal"
   id="tspan11">konstant</tspan> b</tspan></text>
    <text
       xml:space="preserve"
       style="font-style:italic;font-size:4.9389px;line-height:1.25;font-family:'Times New Roman';-inkscape-font-specification:'Times New Roman, Italic';font-variant-ligatures:none;stroke-width:0.264583"
       x="47.540592"
       y="39.22414"
       id="text4"><tspan
         sodipodi:role="line"
         id="tspan4"
         style="stroke-width:0.264583"
         x="47.540592"
         y="39.22414">m</tspan></text>
    <text
       xml:space="preserve"
       style="font-style:italic;font-size:4.9389px;line-height:1.25;font-family:'Times New Roman';-inkscape-font-specification:'Times New Roman, Italic';font-variant-ligatures:none;stroke-width:0.264583"
       x="33.112053"
       y="32.451279"
       id="text5"><tspan
         sodipodi:role="line"
         id="tspan5"
         style="stroke-width:0.264583"
         x="33.112053"
         y="32.451279">k</tspan></text>
    <rect
       style="fill:#666666;stroke:#1a1a1a;stroke-width:0.294;stroke-linejoin:round"
       id="rect2"
       width="9.4406519"
       height="7.7048202"
       x="11.701483"
       y="33.37471" />
    <rect
       style="fill:#666666;stroke:#1a1a1a;stroke-width:0.294;stroke-linejoin:round"
       id="rect2-4"
       width="1.5560986"
       height="7.7048202"
       x="22.789988"
       y="33.457458" />
    <rect
       style="fill:#333333;stroke:#1a1a1a;stroke-width:0.294;stroke-linejoin:round"
       id="rect3"
       width="1.5331075"
       height="3.6685073"
       x="21.087383"
       y="35.402893" />
    <g
       transform="matrix(0.51383371,0,0,0.51383371,21.321444,27.416636)"
       ns1:version="1.10.0"
       ns1:texconverter="pdflatex"
       ns1:pdfconverter="inkscape"
       ns1:text="$\\omega$"
       ns1:preamble="C:\Users\knutb\AppData\Roaming\inkscape\extensions\textext\default_packages.tex"
       ns1:scale="0.9833631348893637"
       ns1:alignment="middle center"
       ns1:stroke-to-path="0"
       ns1:inkscapeversion="1.3.2"
       id="g9927"
       ns1:jacobian_sqrt="0.346909"
       style="stroke-width:0.675139">
      <defs
         id="id-185bd234-c5f9-4bd0-b680-e8f60f5dbe9b">
        <g
           id="id-d2c92094-2372-47ae-80c0-48ff428bf05f">
          <g
             id="id-ab86260e-b568-4c56-8870-041a5f801e1b">
            <path
               d="m 6.03125,-3.703125 c 0,-0.453125 -0.171875,-0.703125 -0.40625,-0.703125 -0.25,0 -0.515625,0.234375 -0.515625,0.46875 0,0.09375 0.046875,0.203125 0.140625,0.296875 0.171875,0.15625 0.359375,0.421875 0.359375,0.84375 0,0.390625 -0.203125,0.96875 -0.5,1.421875 C 4.8125,-0.953125 4.4375,-0.609375 3.96875,-0.609375 3.40625,-0.609375 3.09375,-0.96875 3,-1.5 c 0.109375,-0.265625 0.34375,-0.90625 0.34375,-1.1875 0,-0.109375 -0.046875,-0.21875 -0.1875,-0.21875 -0.078125,0 -0.1875,0.03125 -0.265625,0.171875 C 2.78125,-2.53125 2.65625,-1.890625 2.65625,-1.53125 2.328125,-1.0625 1.9375,-0.609375 1.3125,-0.609375 c -0.671875,0 -0.875,-0.59375 -0.875,-1.140625 0,-1.25 1.015625,-2.296875 1.015625,-2.421875 0,-0.109375 -0.078125,-0.1875 -0.1875,-0.1875 -0.125,0 -0.203125,0.125 -0.265625,0.21875 -0.5,0.734375 -0.875,1.921875 -0.875,2.828125 0,0.6875 0.21875,1.421875 1.046875,1.421875 0.703125,0 1.171875,-0.5 1.53125,-1.046875 0.09375,0.578125 0.484375,1.046875 1.09375,1.046875 0.78125,0 1.25,-0.609375 1.609375,-1.359375 0.25,-0.484375 0.625,-1.84375 0.625,-2.453125 z m 0,0"
               id="id-bf17ece1-2264-42dd-a984-de4bddca9025" />
          </g>
        </g>
      </defs>
      <g
         fill="#000000"
         fill-opacity="1"
         id="id-cb60cc5a-6626-4fad-a2de-172c7b120f71"
         transform="translate(-148.837,-130.359)"
         style="stroke-width:0.675139">
        <g
           transform="translate(148.712,134.765)"
           id="g2344"
           style="stroke-width:0.675139">
          <path
             d="m 6.03125,-3.703125 c 0,-0.453125 -0.171875,-0.703125 -0.40625,-0.703125 -0.25,0 -0.515625,0.234375 -0.515625,0.46875 0,0.09375 0.046875,0.203125 0.140625,0.296875 0.171875,0.15625 0.359375,0.421875 0.359375,0.84375 0,0.390625 -0.203125,0.96875 -0.5,1.421875 C 4.8125,-0.953125 4.4375,-0.609375 3.96875,-0.609375 3.40625,-0.609375 3.09375,-0.96875 3,-1.5 c 0.109375,-0.265625 0.34375,-0.90625 0.34375,-1.1875 0,-0.109375 -0.046875,-0.21875 -0.1875,-0.21875 -0.078125,0 -0.1875,0.03125 -0.265625,0.171875 C 2.78125,-2.53125 2.65625,-1.890625 2.65625,-1.53125 2.328125,-1.0625 1.9375,-0.609375 1.3125,-0.609375 c -0.671875,0 -0.875,-0.59375 -0.875,-1.140625 0,-1.25 1.015625,-2.296875 1.015625,-2.421875 0,-0.109375 -0.078125,-0.1875 -0.1875,-0.1875 -0.125,0 -0.203125,0.125 -0.265625,0.21875 -0.5,0.734375 -0.875,1.921875 -0.875,2.828125 0,0.6875 0.21875,1.421875 1.046875,1.421875 0.703125,0 1.171875,-0.5 1.53125,-1.046875 0.09375,0.578125 0.484375,1.046875 1.09375,1.046875 0.78125,0 1.25,-0.609375 1.609375,-1.359375 0.25,-0.484375 0.625,-1.84375 0.625,-2.453125 z m 0,0"
             id="id-e9e975bf-1316-4e42-8dbc-9d198b91e3f5"
             style="stroke-width:0.675139" />
        </g>
      </g>
    </g>
    <path
       style="fill:none;stroke:#000000;stroke-width:0.264583px;stroke-linecap:butt;stroke-linejoin:miter;stroke-opacity:1;marker-start:url(#Triangle);marker-end:url(#marker4)"
       d="m 21.257297,31.500797 2.771383,0.03881"
       id="path3" />
  </g>
</svg>
