<?xml version="1.0" encoding="UTF-8" standalone="no"?>
<!-- Created with Inkscape (http://www.inkscape.org/) -->

<svg
   width="210mm"
   height="297mm"
   viewBox="0 0 210 297"
   version="1.1"
   id="svg20385"
   sodipodi:docname="oppgave_katodestråle_elektron_elektrisk_felt.svg"
   inkscape:version="1.2.2 (732a01da63, 2022-12-09)"
   xmlns:inkscape="http://www.inkscape.org/namespaces/inkscape"
   xmlns:sodipodi="http://sodipodi.sourceforge.net/DTD/sodipodi-0.dtd"
   xmlns="http://www.w3.org/2000/svg"
   xmlns:svg="http://www.w3.org/2000/svg"
   xmlns:ns4="http://www.iki.fi/pav/software/textext/">
  <sodipodi:namedview
     id="namedview20387"
     pagecolor="#ffffff"
     bordercolor="#666666"
     borderopacity="1.0"
     inkscape:showpageshadow="2"
     inkscape:pageopacity="0.0"
     inkscape:pagecheckerboard="0"
     inkscape:deskcolor="#d1d1d1"
     inkscape:document-units="mm"
     showgrid="true"
     inkscape:zoom="1.6819304"
     inkscape:cx="157.25978"
     inkscape:cy="159.93527"
     inkscape:window-width="1368"
     inkscape:window-height="849"
     inkscape:window-x="-8"
     inkscape:window-y="-8"
     inkscape:window-maximized="1"
     inkscape:current-layer="layer1">
    <inkscape:grid
       type="xygrid"
       id="grid20506" />
  </sodipodi:namedview>
  <defs
     id="defs20382">
    <marker
       style="overflow:visible"
       id="marker21812"
       refX="0"
       refY="0"
       orient="auto"
       inkscape:stockid="Diamond"
       markerWidth="7.2124891"
       markerHeight="7.2124891"
       viewBox="0 0 7.2124892 7.2124892"
       inkscape:isstock="true"
       inkscape:collect="always"
       preserveAspectRatio="xMidYMid">
      <path
         transform="scale(0.45)"
         style="fill:context-stroke;fill-rule:evenodd;stroke:context-stroke;stroke-width:1pt"
         d="M 0,-7.0710768 -7.0710894,0 0,7.0710589 7.0710462,0 Z"
         id="path21810" />
    </marker>
    <marker
       style="overflow:visible"
       id="Diamond"
       refX="0"
       refY="0"
       orient="auto"
       inkscape:stockid="Diamond"
       markerWidth="7.2124891"
       markerHeight="7.2124891"
       viewBox="0 0 7.2124892 7.2124892"
       inkscape:isstock="true"
       inkscape:collect="always"
       preserveAspectRatio="xMidYMid">
      <path
         transform="scale(0.45)"
         style="fill:context-stroke;fill-rule:evenodd;stroke:context-stroke;stroke-width:1pt"
         d="M 0,-7.0710768 -7.0710894,0 0,7.0710589 7.0710462,0 Z"
         id="Diamond1" />
    </marker>
  </defs>
  <g
     inkscape:label="Layer 1"
     inkscape:groupmode="layer"
     id="layer1">
    <path
       style="fill:#000000;stroke:#000000;stroke-width:0.764998;stroke-linecap:butt;stroke-linejoin:miter;stroke-miterlimit:4;stroke-dasharray:none;stroke-opacity:1"
       d="M 61.282465,17.594818 V 45.003089"
       id="path952-3"
       inkscape:export-xdpi="300"
       inkscape:export-ydpi="300"
       inkscape:export-filename="oppgave_katodestråle_elektron_elektrisk_felt.png" />
    <path
       style="fill:#000000;stroke:#000000;stroke-width:0.764998;stroke-linecap:butt;stroke-linejoin:miter;stroke-miterlimit:4;stroke-dasharray:none;stroke-opacity:1"
       d="M 61.290203,47.14113 V 74.549401"
       id="path952-3-6"
       inkscape:export-xdpi="300"
       inkscape:export-ydpi="300"
       inkscape:export-filename="oppgave_katodestråle_elektron_elektrisk_felt.png" />
    <path
       style="fill:#000000;stroke:#000000;stroke-width:0.765;stroke-linecap:butt;stroke-linejoin:miter;stroke-miterlimit:4;stroke-dasharray:none;stroke-opacity:1"
       d="m 34.824132,17.594818 v 56.88541"
       id="path952-3-1"
       inkscape:export-xdpi="300"
       inkscape:export-ydpi="300" />
    <text
       xml:space="preserve"
       style="font-style:normal;font-variant:normal;font-weight:normal;font-stretch:normal;font-size:7.05556px;line-height:1.25;font-family:'Times New Roman';-inkscape-font-specification:'Times New Roman, Normal';font-variant-ligatures:normal;font-variant-caps:normal;font-variant-numeric:normal;font-feature-settings:normal;text-align:start;letter-spacing:0px;word-spacing:0px;writing-mode:lr-tb;text-anchor:start;opacity:0.98;fill:#000000;fill-opacity:1;stroke:none;stroke-width:0.264583"
       x="59.077152"
       y="17.366337"
       id="text1496-9"
       inkscape:export-xdpi="300"
       inkscape:export-ydpi="300"><tspan
         sodipodi:role="line"
         id="tspan1494-3"
         x="59.077152"
         y="17.366337"
         style="stroke-width:0.264583">+</tspan></text>
    <text
       xml:space="preserve"
       style="font-style:normal;font-variant:normal;font-weight:normal;font-stretch:normal;font-size:7.05556px;line-height:1.25;font-family:'Times New Roman';-inkscape-font-specification:'Times New Roman, Normal';font-variant-ligatures:normal;font-variant-caps:normal;font-variant-numeric:normal;font-feature-settings:normal;text-align:start;letter-spacing:0px;word-spacing:0px;writing-mode:lr-tb;text-anchor:start;opacity:0.98;fill:#000000;fill-opacity:1;stroke:none;stroke-width:0.264583"
       x="33.44614"
       y="17.683262"
       id="text1496-1-3"
       inkscape:export-xdpi="300"
       inkscape:export-ydpi="300"><tspan
         sodipodi:role="line"
         id="tspan1494-2-4"
         x="33.44614"
         y="17.683262"
         style="stroke-width:0.264583">-</tspan></text>
    <path
       style="fill:none;stroke:#000000;stroke-width:0.264583px;stroke-linecap:butt;stroke-linejoin:miter;stroke-opacity:1"
       d="M 34.824132,22.886478 H 24.240798 V 9.6573177 h 22.489583 v 0"
       id="path1213"
       inkscape:export-xdpi="300"
       inkscape:export-ydpi="300" />
    <path
       style="fill:none;stroke:#000000;stroke-width:0.264583px;stroke-linecap:butt;stroke-linejoin:miter;stroke-opacity:1"
       d="M 61.282464,22.886478 H 71.865803 V 9.6573177 H 49.376215 v 0"
       id="path1213-0"
       inkscape:export-xdpi="300"
       inkscape:export-ydpi="300" />
    <path
       style="fill:none;stroke:#000000;stroke-width:0.264583px;stroke-linecap:butt;stroke-linejoin:miter;stroke-opacity:1"
       d="M 46.730381,8.3343977 V 10.980228"
       id="path1230"
       inkscape:export-xdpi="300"
       inkscape:export-ydpi="300" />
    <path
       style="fill:none;stroke:#000000;stroke-width:0.264583px;stroke-linecap:butt;stroke-linejoin:miter;stroke-opacity:1"
       d="M 49.376214,4.3656477 V 14.948978"
       id="path1233"
       inkscape:export-xdpi="300"
       inkscape:export-ydpi="300" />
    <g
       transform="matrix(0.529167,0,0,0.529167,40.057441,1.6122818)"
       ns4:version="1.8.2"
       ns4:texconverter="pdflatex"
       ns4:pdfconverter="inkscape"
       ns4:text="$\\Delta V$"
       ns4:preamble="C:\Users\knutb\AppData\Roaming\inkscape\extensions\textext\default_packages.tex"
       ns4:scale="1.5"
       ns4:alignment="middle center"
       ns4:stroke-to-path="0"
       ns4:jacobian_sqrt="0.529167"
       id="g20627">
      <defs
         id="id-4d5b765d-d856-40f9-a94a-e75f926149a3">
        <g
           id="id-3e99e635-2273-4683-a134-fb0c79be07dd">
          <g
             id="id-b91db54d-1ef3-41a6-aa50-5c684ef5c9e1" />
          <g
             id="id-ca128a77-5cc4-47fe-b815-6c7ceb490a2f">
            <path
               d="m 4.40625,-6.953125 c -0.0625,-0.140625 -0.09375,-0.1875 -0.265625,-0.1875 -0.15625,0 -0.1875,0.046875 -0.25,0.1875 l -3.375,6.75 C 0.46875,-0.109375 0.46875,-0.09375 0.46875,-0.078125 0.46875,0 0.53125,0 0.6875,0 h 6.921875 c 0.15625,0 0.21875,0 0.21875,-0.078125 0,-0.015625 0,-0.03125 -0.046875,-0.125 z m -0.578125,0.8125 2.6875,5.390625 h -5.375 z m 0,0"
               id="id-0d7e2d83-f8ca-474b-815b-67e9d7314d47" />
          </g>
          <g
             id="id-e6ca8477-e382-4976-854e-e95dd8e80856" />
          <g
             id="id-ef840c0c-117e-442c-8d0b-58e85ee1f87d">
            <path
               d="M 6.265625,-5.671875 C 6.75,-6.453125 7.171875,-6.484375 7.53125,-6.5 c 0.125,-0.015625 0.140625,-0.171875 0.140625,-0.1875 0,-0.078125 -0.0625,-0.125 -0.140625,-0.125 -0.25,0 -0.546875,0.03125 -0.8125,0.03125 -0.328125,0 -0.671875,-0.03125 -0.984375,-0.03125 -0.0625,0 -0.1875,0 -0.1875,0.1875 0,0.109375 0.078125,0.125 0.15625,0.125 0.265625,0.015625 0.453125,0.125 0.453125,0.328125 0,0.15625 -0.140625,0.375 -0.140625,0.375 l -3.0625,4.875 -0.6875,-5.28125 C 2.265625,-6.375 2.5,-6.5 2.953125,-6.5 c 0.140625,0 0.25,0 0.25,-0.203125 0,-0.078125 -0.078125,-0.109375 -0.125,-0.109375 -0.40625,0 -0.828125,0.03125 -1.25,0.03125 -0.171875,0 -0.359375,0 -0.546875,0 -0.171875,0 -0.359375,-0.03125 -0.53125,-0.03125 -0.078125,0 -0.1875,0 -0.1875,0.1875 0,0.125 0.078125,0.125 0.25,0.125 0.546875,0 0.5625,0.09375 0.59375,0.34375 L 2.1875,-0.015625 C 2.21875,0.1875 2.265625,0.21875 2.390625,0.21875 c 0.15625,0 0.203125,-0.046875 0.28125,-0.171875 z m 0,0"
               id="id-97126b08-5804-4a2e-9f5f-b3a8c447de45" />
          </g>
        </g>
      </defs>
      <g
         fill="#000000"
         fill-opacity="1"
         id="id-db3dae2a-a44f-470b-8653-67ddcaa18367"
         transform="translate(-149.181,-127.624)">
        <g
           transform="translate(148.712,134.765)"
           id="g20620">
          <path
             d="m 4.40625,-6.953125 c -0.0625,-0.140625 -0.09375,-0.1875 -0.265625,-0.1875 -0.15625,0 -0.1875,0.046875 -0.25,0.1875 l -3.375,6.75 C 0.46875,-0.109375 0.46875,-0.09375 0.46875,-0.078125 0.46875,0 0.53125,0 0.6875,0 h 6.921875 c 0.15625,0 0.21875,0 0.21875,-0.078125 0,-0.015625 0,-0.03125 -0.046875,-0.125 z m -0.578125,0.8125 2.6875,5.390625 h -5.375 z m 0,0"
             id="id-c6eafd0d-3e0d-44e4-b63b-3d726fe6ed20" />
        </g>
      </g>
      <g
         fill="#000000"
         fill-opacity="1"
         id="id-a9136238-9c74-4f5e-8b0f-4c05ea80e2a8"
         transform="translate(-149.181,-127.624)">
        <g
           transform="translate(157.015,134.765)"
           id="g20624">
          <path
             d="M 6.265625,-5.671875 C 6.75,-6.453125 7.171875,-6.484375 7.53125,-6.5 c 0.125,-0.015625 0.140625,-0.171875 0.140625,-0.1875 0,-0.078125 -0.0625,-0.125 -0.140625,-0.125 -0.25,0 -0.546875,0.03125 -0.8125,0.03125 -0.328125,0 -0.671875,-0.03125 -0.984375,-0.03125 -0.0625,0 -0.1875,0 -0.1875,0.1875 0,0.109375 0.078125,0.125 0.15625,0.125 0.265625,0.015625 0.453125,0.125 0.453125,0.328125 0,0.15625 -0.140625,0.375 -0.140625,0.375 l -3.0625,4.875 -0.6875,-5.28125 C 2.265625,-6.375 2.5,-6.5 2.953125,-6.5 c 0.140625,0 0.25,0 0.25,-0.203125 0,-0.078125 -0.078125,-0.109375 -0.125,-0.109375 -0.40625,0 -0.828125,0.03125 -1.25,0.03125 -0.171875,0 -0.359375,0 -0.546875,0 -0.171875,0 -0.359375,-0.03125 -0.53125,-0.03125 -0.078125,0 -0.1875,0 -0.1875,0.1875 0,0.125 0.078125,0.125 0.25,0.125 0.546875,0 0.5625,0.09375 0.59375,0.34375 L 2.1875,-0.015625 C 2.21875,0.1875 2.265625,0.21875 2.390625,0.21875 c 0.15625,0 0.203125,-0.046875 0.28125,-0.171875 z m 0,0"
             id="id-2bb3e5fc-a557-4430-bbfa-75f332fd4f12" />
        </g>
      </g>
    </g>
    <text
       xml:space="preserve"
       style="font-style:italic;font-size:4.9389px;line-height:1.25;font-family:'Times New Roman';-inkscape-font-specification:'Times New Roman, Italic';font-variant-ligatures:none;stroke-width:0.264583"
       x="28.364796"
       y="46.940952"
       id="text20649"><tspan
         sodipodi:role="line"
         id="tspan20647"
         style="stroke-width:0.264583"
         x="28.364796"
         y="46.940952">-e</tspan></text>
    <path
       style="fill:none;stroke:#000000;stroke-width:0.264583px;stroke-linecap:butt;stroke-linejoin:miter;stroke-opacity:1;stroke-dasharray:1.58749795,0.26458299;stroke-dashoffset:0"
       d="m 34.395833,46.302083 h 27.78125"
       id="path20651" />
    <ellipse
       style="opacity:0.98;fill:#666666;stroke:#000000;stroke-width:0.465;stroke-miterlimit:4;stroke-dasharray:none;stroke-dashoffset:0;stroke-opacity:1"
       id="path857-5"
       cx="36.212681"
       cy="46.167286"
       rx="1.3830186"
       ry="1.3162012"
       inkscape:export-xdpi="300"
       inkscape:export-ydpi="300" />
    <text
       xml:space="preserve"
       style="font-style:italic;font-size:4.9389px;line-height:1.25;font-family:'Times New Roman';-inkscape-font-specification:'Times New Roman, Italic';font-variant-ligatures:none;stroke-width:0.264583"
       x="36.335415"
       y="52.858788"
       id="text21018"><tspan
         sodipodi:role="line"
         id="tspan21016"
         style="stroke-width:0.264583"
         x="36.335415"
         y="52.858788">m</tspan></text>
    <path
       style="fill:none;stroke:#000000;stroke-width:0.264583px;stroke-linecap:butt;stroke-linejoin:miter;stroke-opacity:1;marker-start:url(#Diamond);marker-end:url(#marker21812)"
       d="M 35.355532,75.406249 H 60.673109"
       id="path21782" />
    <text
       xml:space="preserve"
       style="font-style:italic;font-size:4.9389px;line-height:1.25;font-family:'Times New Roman';-inkscape-font-specification:'Times New Roman, Italic';font-variant-ligatures:none;stroke-width:0.264583"
       x="48.947918"
       y="80.697914"
       id="text21866"><tspan
         sodipodi:role="line"
         id="tspan21864"
         style="stroke-width:0.264583"
         x="48.947918"
         y="80.697914">d</tspan></text>
  </g>
</svg>
